<?xml version="1.0" encoding="UTF-8" standalone="no"?>
<svg
   xmlns:dc="http://purl.org/dc/elements/1.1/"
   xmlns:cc="http://creativecommons.org/ns#"
   xmlns:rdf="http://www.w3.org/1999/02/22-rdf-syntax-ns#"
   xmlns:svg="http://www.w3.org/2000/svg"
   xmlns="http://www.w3.org/2000/svg"
   viewBox="0 0 593.32001 423.66666"
   height="423.66666"
   width="593.32001"
   xml:space="preserve"
   id="svg2"
   version="1.1"><metadata
     id="metadata8"><rdf:RDF><cc:Work
         rdf:about=""><dc:format>image/svg+xml</dc:format><dc:type
           rdf:resource="http://purl.org/dc/dcmitype/StillImage" /></cc:Work></rdf:RDF></metadata><defs
     id="defs6"><linearGradient
       id="linearGradient324"
       spreadMethod="pad"
       gradientTransform="matrix(205.58,0,0,-205.58,3876.95,1134.71)"
       gradientUnits="userSpaceOnUse"
       y2="0"
       x2="1"
       y1="0"
       x1="0"><stop
         id="stop318"
         offset="0"
         style="stop-opacity:1;stop-color:#4c984b" /><stop
         id="stop320"
         offset="0.53"
         style="stop-opacity:1;stop-color:#23632e" /><stop
         id="stop322"
         offset="1"
         style="stop-opacity:1;stop-color:#17311b" /></linearGradient><clipPath
       id="clipPath392"
       clipPathUnits="userSpaceOnUse"><path
         id="path390"
         d="M 2009.03,1028.18 829.074,792.719 559.773,2122.31 1738.04,2366.11 Z" /></clipPath></defs><g
     transform="matrix(1.3333333,0,0,-1.3333333,0,423.66667)"
     id="g10"><g
       transform="scale(0.1)"
       id="g12"><path
         id="path14"
         style="fill:#d4bee4;fill-opacity:1;fill-rule:nonzero;stroke:none"
         d="m 4337.85,1118.66 c 0,-750.14 -801.22,-740.101 -1789.58,-740.101 -988.35,0 -2386.106,-160.918 -2386.106,589.23 0,750.161 1397.756,2127.311 2386.106,2127.311 988.36,0 1789.58,-1226.28 1789.58,-1976.44" /><path
         id="path16"
         style="fill:#e7d5ed;fill-opacity:1;fill-rule:nonzero;stroke:none"
         d="m 4303.73,355.051 c 0,328.258 -891.62,221.07 -1991.48,221.07 -1099.87,0 -2160.469,9.82 -2160.469,-227.98 C 151.781,73.4688 777.867,0 1877.74,0 2977.61,0 4303.73,0 4303.73,355.051" /><path
         id="path18"
         style="fill:#8c68bb;fill-opacity:1;fill-rule:nonzero;stroke:none"
         d="m 4320.77,1554.95 c -56.21,-57.92 -87.57,-125.34 -87.78,-125.67 -0.39,-0.16 71.62,16.84 131.22,78.13 59.7,61.17 78.49,137.52 78.31,137.09 -0.3,-0.2 -65.35,-31.88 -121.75,-89.55" /><path
         id="path20"
         style="fill:#8c68bb;fill-opacity:1;fill-rule:nonzero;stroke:none"
         d="m 3764.47,1167.92 c 22.38,7.73 44.54,16.02 66.49,24.81 43.91,17.58 86.89,37.36 128.88,59.1 83.99,43.46 163.99,95.02 238.74,154.34 20.44,16.22 40.5,33 60.17,50.29 20.75,18.22 40.58,38.13 61.75,55.89 1.93,1.62 4.21,-0.95 2.54,-2.89 -31.51,-36.66 -69.54,-67.55 -106.4,-97.72 -37.11,-30.4 -75.55,-58.9 -115.16,-85.48 -79.21,-53.15 -163.17,-98.56 -250.95,-135.16 -24,-10 -48.29,-19.35 -72.83,-28.03 -25.78,-9.12 -52,-19.19 -78.92,-24.4 -4.4,-0.85 -5.99,5.16 -1.81,6.79 22.05,8.66 45.2,14.76 67.5,22.46" /><path
         id="path22"
         style="fill:#8c68bb;fill-opacity:1;fill-rule:nonzero;stroke:none"
         d="m 4315.25,1525.04 c 1.17,0.98 2.62,-0.58 1.45,-1.65 -23.43,-21.54 -45.81,-45.15 -66.16,-69.89 -5.21,-6.34 -10.23,-12.82 -15.19,-19.38 2.58,5.12 7.25,14 13.81,25.2 20.29,23.42 41.72,45.47 66.09,65.72" /><path
         id="path24"
         style="fill:#8c68bb;fill-opacity:1;fill-rule:nonzero;stroke:none"
         d="m 4263.64,1446.53 c 24.55,14.77 47.83,32.25 68.15,53.57 1.44,1.51 3.19,-0.59 1.89,-2.14 -18.39,-21.62 -39.95,-39.41 -63.37,-54.13 -1.98,-1.24 -3.98,-2.49 -6,-3.75 -18.94,-7.87 -31.32,-10.78 -31.32,-10.8 0,0 0.28,0.58 0.78,1.64 10.13,4.87 20.27,9.83 29.87,15.61" /><path
         id="path26"
         style="fill:#8c68bb;fill-opacity:1;fill-rule:nonzero;stroke:none"
         d="m 4177.24,1519.13 c -7.47,-79.1 -14.44,-146.81 -16.44,-146.1 1.91,-1.41 71.28,48.2 78.25,129.81 7.16,80.83 -0.81,145.57 1.42,145.13 -2.28,-0.22 -55.54,-50.47 -63.23,-128.84" /><path
         id="path28"
         style="fill:#8c68bb;fill-opacity:1;fill-rule:nonzero;stroke:none"
         d="m 4189.78,1491.38 c 0.39,1.42 2.44,0.91 2.11,-0.6 -6.55,-30.05 -12.55,-61.42 -22.25,-90.79 -2.47,-7.52 -5.08,-14.93 -8.03,-22.21 0.89,5.06 2.5,14.03 4.13,26.05 9.91,28.44 15.98,58.06 24.04,87.55" /><path
         id="path30"
         style="fill:#8c68bb;fill-opacity:1;fill-rule:nonzero;stroke:none"
         d="m 4185.7,1401.21 c 17.42,23.97 27.47,50.56 31.63,78.56 0.29,1.99 2.92,1.23 2.75,-0.72 -2.41,-27.19 -10.72,-53.05 -26.64,-76.5 -1.34,-1.97 -2.72,-3.96 -4.17,-5.95 -15.33,-15.69 -28.58,-23.53 -28.47,-23.57 0,0 0.09,0.57 0.27,1.59 9.39,8.43 17.82,17.24 24.63,26.59" /><path
         id="path32"
         style="fill:#8c68bb;fill-opacity:1;fill-rule:nonzero;stroke:none"
         d="m 4160.8,1373.03 c -0.02,0.01 0.55,3.24 1.58,9.12 7.42,10.84 13.65,22.05 18.45,33.35 11.79,27.73 16.93,57.22 23.9,85.61 0.33,1.35 2.07,0.88 1.96,-0.53 -2.19,-29.7 -9.04,-58.81 -20.71,-86.63 -5.19,-12.37 -11.25,-24.89 -19.19,-36.81 -3.75,-2.7 -6,-4.1 -5.99,-4.11" /><path
         id="path34"
         style="fill:#8c68bb;fill-opacity:1;fill-rule:nonzero;stroke:none"
         d="m 4304.33,1352.64 c -80.72,3.77 -142.63,21.7 -142.73,19.19 0.73,2.37 63.54,53.26 142.05,50.75 79.16,-2.96 146.44,-4.93 146.25,-2.63 0.87,-2.4 -64.13,-71.55 -145.57,-67.31" /><path
         id="path36"
         style="fill:#8c68bb;fill-opacity:1;fill-rule:nonzero;stroke:none"
         d="m 4280.77,1371.04 c 1.49,0.16 1.57,2.48 0.02,2.39 -30.93,-1.71 -62.15,-0.38 -91.98,-1.35 -7.64,-0.23 -15.19,-0.5 -22.69,-1.02 4.83,-0.79 13.4,-2.12 24.91,-4.1 29.18,1.54 58.89,0.68 89.74,4.08" /><path
         id="path38"
         style="fill:#8c68bb;fill-opacity:1;fill-rule:nonzero;stroke:none"
         d="m 4194.93,1388.04 c 26.98,10.77 54.06,15.15 81.82,14.72 1.97,-0.03 1.87,2.91 -0.03,3.06 -26.54,2.14 -52.44,-0.72 -78.31,-10.3 -2.19,-0.8 -4.39,-1.64 -6.62,-2.53 -18.69,-10.92 -30.19,-21.25 -30.19,-21.16 0,0 0.53,-0.1 1.51,-0.27 10.69,6.53 21.27,12.27 31.82,16.48" /><path
         id="path40"
         style="fill:#8c68bb;fill-opacity:1;fill-rule:nonzero;stroke:none"
         d="m 4161.6,1371.83 c 0,-0.01 3.07,-0.56 8.69,-1.45 12.22,3.89 24.37,6.85 36.23,8.65 29.04,4.43 58.29,3.48 87.69,6.6 1.41,0.14 1.39,2.11 -0.02,2.21 -29.39,2.25 -58.55,1.21 -87.56,-3.1 -12.89,-1.93 -26.09,-4.3 -39.36,-8.31 -3.65,-2.85 -5.67,-4.6 -5.67,-4.6" /><path
         id="path42"
         style="fill:#8c68bb;fill-opacity:1;fill-rule:nonzero;stroke:none"
         d="m 4057.44,1427.48 c -15.19,-77.7 -28.84,-144.21 -30.76,-143.28 1.77,-1.6 75.74,39.96 90.63,120.18 15.05,79.42 13.4,144.52 15.57,143.83 -2.28,0.04 -60.07,-43.77 -75.44,-120.73" /><path
         id="path44"
         style="fill:#8c68bb;fill-opacity:1;fill-rule:nonzero;stroke:none"
         d="m 4067.2,1398.52 c 0.52,1.36 2.51,0.62 2.04,-0.83 -9.47,-29.1 -18.53,-59.59 -31.09,-87.68 -3.21,-7.21 -6.53,-14.28 -10.18,-21.18 1.38,4.93 3.88,13.65 6.68,25.42 12.67,27.14 21.63,55.88 32.55,84.27" /><path
         id="path46"
         style="fill:#8c68bb;fill-opacity:1;fill-rule:nonzero;stroke:none"
         d="m 4054.25,1309.44 c 19.71,21.85 32.32,47.14 39.21,74.47 0.48,1.93 3.02,0.89 2.67,-1.03 -5.07,-26.72 -15.88,-51.47 -34.04,-72.99 -1.52,-1.8 -3.1,-3.63 -4.73,-5.44 -16.81,-13.87 -30.79,-20.19 -30.68,-20.25 0,0 0.15,0.55 0.42,1.55 10.2,7.33 19.47,15.14 27.15,23.69" /><path
         id="path48"
         style="fill:#8c68bb;fill-opacity:1;fill-rule:nonzero;stroke:none"
         d="m 4026.68,1284.2 c -0.01,0.01 0.88,3.16 2.48,8.89 8.46,9.95 15.77,20.39 21.66,31.07 14.47,26.23 22.48,54.93 32.2,82.34 0.46,1.3 2.15,0.65 1.91,-0.75 -5.11,-29.23 -14.77,-57.37 -29.14,-83.71 -6.37,-11.7 -13.65,-23.45 -22.74,-34.41 -3.99,-2.28 -6.38,-3.42 -6.37,-3.43" /><path
         id="path50"
         style="fill:#8c68bb;fill-opacity:1;fill-rule:nonzero;stroke:none"
         d="m 4167.5,1247.95 c -79.92,12.77 -139.79,37.44 -140.13,34.97 0.96,2.28 68.52,45.85 146.31,34.54 78.41,-11.82 145.05,-21.41 145.08,-19.11 0.64,-2.47 -70.66,-63.7 -151.26,-50.4" /><path
         id="path52"
         style="fill:#8c68bb;fill-opacity:1;fill-rule:nonzero;stroke:none"
         d="m 4145.89,1268.85 c 1.49,0 1.79,2.28 0.25,2.37 -30.94,1.77 -61.88,6.57 -91.66,8.93 -7.64,0.62 -15.17,1.19 -22.7,1.5 4.74,-1.33 13.15,-3.59 24.4,-6.83 29.19,-1.72 58.68,-5.89 89.71,-5.97" /><path
         id="path54"
         style="fill:#8c68bb;fill-opacity:1;fill-rule:nonzero;stroke:none"
         d="m 4062.14,1295.31 c 27.91,7.7 55.29,9.02 82.86,5.48 1.96,-0.25 2.14,2.69 0.27,3.05 -26.19,5.1 -52.23,5.15 -78.93,-1.47 -2.24,-0.56 -4.53,-1.16 -6.82,-1.78 -19.69,-8.76 -32.17,-17.76 -32.15,-17.67 0,0 0.5,-0.15 1.47,-0.44 11.29,5.31 22.38,9.83 33.3,12.83" /><path
         id="path56"
         style="fill:#8c68bb;fill-opacity:1;fill-rule:nonzero;stroke:none"
         d="m 4027.37,1282.92 c 0,-0.01 2.99,-0.89 8.5,-2.4 12.56,2.5 24.93,4.08 36.92,4.55 29.34,1.17 58.35,-3.04 87.89,-3.24 1.41,0 1.59,1.94 0.2,2.21 -29.01,5.52 -58.12,7.75 -87.41,6.68 -13.02,-0.45 -26.4,-1.35 -40.01,-3.86 -3.92,-2.42 -6.09,-3.95 -6.09,-3.94" /><path
         id="path58"
         style="fill:#8c68bb;fill-opacity:1;fill-rule:nonzero;stroke:none"
         d="m 3922.46,1346.23 c -23.25,-75.4 -43.89,-139.88 -45.7,-138.73 1.6,-1.79 79.75,30.92 102.9,108.82 23.25,77.11 28.32,141.89 30.42,140.96 -2.25,0.32 -64.26,-36.4 -87.62,-111.05" /><path
         id="path60"
         style="fill:#8c68bb;fill-opacity:1;fill-rule:nonzero;stroke:none"
         d="m 3929.15,1316.34 c 0.67,1.29 2.57,0.32 1.95,-1.06 -12.48,-27.81 -24.71,-57.04 -40.19,-83.48 -3.94,-6.78 -8.01,-13.43 -12.38,-19.85 1.89,4.73 5.31,13.11 9.33,24.47 15.49,25.49 27.45,53 41.29,79.92" /><path
         id="path62"
         style="fill:#8c68bb;fill-opacity:1;fill-rule:nonzero;stroke:none"
         d="m 3906.91,1229.36 c 21.95,19.43 37.16,43.07 46.86,69.41 0.7,1.88 3.12,0.54 2.55,-1.32 -7.83,-25.95 -21.19,-49.28 -41.54,-68.54 -1.72,-1.62 -3.49,-3.24 -5.3,-4.86 -18.22,-11.83 -32.83,-16.49 -32.72,-16.55 0,0 0.21,0.52 0.59,1.49 10.93,6.09 21,12.79 29.56,20.37" /><path
         id="path64"
         style="fill:#8c68bb;fill-opacity:1;fill-rule:nonzero;stroke:none"
         d="m 3876.76,1207.5 c -0.01,0 1.2,3.03 3.41,8.53 9.48,8.9 17.87,18.43 24.87,28.36 17.17,24.37 28.17,51.95 40.71,78.03 0.59,1.24 2.2,0.4 1.81,-0.96 -8.13,-28.44 -20.71,-55.27 -37.79,-79.75 -7.59,-10.88 -16.08,-21.73 -26.29,-31.55 -4.24,-1.8 -6.73,-2.66 -6.72,-2.66" /><path
         id="path66"
         style="fill:#8c68bb;fill-opacity:1;fill-rule:nonzero;stroke:none"
         d="m 4013.32,1155.15 c -78.27,21.98 -135.41,53.41 -136.01,50.99 1.21,2.15 73.18,37.61 149.42,17.31 76.83,-20.88 142.08,-38.21 142.36,-35.93 0.39,-2.51 -76.86,-54.94 -155.77,-32.37" /><path
         id="path68"
         style="fill:#8c68bb;fill-opacity:1;fill-rule:nonzero;stroke:none"
         d="m 3993.98,1178.41 c 1.48,-0.18 2.02,2.07 0.5,2.33 -30.64,5.36 -60.97,13.72 -90.42,19.51 -7.55,1.5 -15.01,2.95 -22.48,4.13 4.58,-1.88 12.73,-5.1 23.62,-9.63 28.93,-5.09 57.87,-12.65 88.78,-16.34" /><path
         id="path70"
         style="fill:#8c68bb;fill-opacity:1;fill-rule:nonzero;stroke:none"
         d="m 3913.28,1214.43 c 28.65,4.4 56.06,2.53 83.15,-4.19 1.93,-0.48 2.41,2.42 0.59,2.99 -25.55,8.11 -51.49,11.19 -78.79,7.71 -2.31,-0.29 -4.64,-0.62 -7.01,-0.98 -20.54,-6.41 -33.93,-13.9 -33.91,-13.82 0,0 0.5,-0.21 1.42,-0.6 11.83,3.95 23.36,7.17 34.55,8.89" /><path
         id="path72"
         style="fill:#8c68bb;fill-opacity:1;fill-rule:nonzero;stroke:none"
         d="m 3877.31,1206.14 c -0.01,-0.01 2.89,-1.23 8.23,-3.36 12.78,1.02 25.29,1.16 37.29,0.24 29.38,-2.25 57.84,-9.8 87.24,-13.43 1.41,-0.17 1.79,1.74 0.43,2.16 -28.32,8.86 -57.08,14.46 -86.4,16.81 -13.02,1.04 -26.46,1.71 -40.3,0.79 -4.16,-1.96 -6.49,-3.22 -6.49,-3.21" /><path
         id="path74"
         style="fill:#8c68bb;fill-opacity:1;fill-rule:nonzero;stroke:none"
         d="m 3786.33,1283.92 c -30.83,-72.38 -58.06,-134.21 -59.74,-132.86 1.44,-1.97 82.93,21.94 113.85,96.82 30.96,74.08 42.45,137.9 44.47,136.73 -2.22,0.58 -67.7,-29.06 -98.58,-100.69" /><path
         id="path76"
         style="fill:#8c68bb;fill-opacity:1;fill-rule:nonzero;stroke:none"
         d="m 3789.99,1253.47 c 0.79,1.21 2.6,0.04 1.84,-1.27 -15.26,-26.26 -30.46,-53.98 -48.61,-78.55 -4.65,-6.3 -9.39,-12.46 -14.42,-18.37 2.38,4.51 6.65,12.45 11.84,23.31 18.07,23.62 32.81,49.64 49.35,74.88" /><path
         id="path78"
         style="fill:#8c68bb;fill-opacity:1;fill-rule:nonzero;stroke:none"
         d="m 3758.97,1169.46 c 23.91,16.9 41.5,38.73 53.86,63.83 0.87,1.79 3.15,0.19 2.41,-1.59 -10.44,-24.93 -26.14,-46.65 -48.45,-63.55 -1.88,-1.42 -3.82,-2.85 -5.79,-4.24 -19.41,-9.76 -34.51,-12.78 -34.41,-12.85 0,0 0.25,0.49 0.73,1.41 11.57,4.86 22.31,10.39 31.65,16.99" /><path
         id="path80"
         style="fill:#8c68bb;fill-opacity:1;fill-rule:nonzero;stroke:none"
         d="m 3726.59,1151.06 c -0.01,0.01 1.51,2.88 4.27,8.1 10.4,7.8 19.75,16.35 27.76,25.44 19.65,22.35 33.41,48.55 48.56,73.09 0.72,1.17 2.25,0.15 1.72,-1.15 -10.99,-27.38 -26.26,-52.66 -45.82,-75.12 -8.69,-9.97 -18.28,-19.82 -29.5,-28.46 -4.42,-1.32 -7,-1.89 -6.99,-1.9" /><path
         id="path82"
         style="fill:#8c68bb;fill-opacity:1;fill-rule:nonzero;stroke:none"
         d="m 3857.84,1083.97 c -75.99,30.48 -130,68.01 -130.84,65.68 1.44,2 77.05,29.32 151.1,0.73 74.6,-29.22 137.91,-53.66 138.41,-51.42 0.14,-2.53 -82.1,-46.11 -158.67,-14.99" /><path
         id="path84"
         style="fill:#8c68bb;fill-opacity:1;fill-rule:nonzero;stroke:none"
         d="m 3840.85,1109.23 c 1.47,-0.34 2.23,1.83 0.73,2.27 -30.06,8.69 -59.55,20.33 -88.42,29.34 -7.39,2.33 -14.72,4.58 -22.07,6.57 4.39,-2.35 12.22,-6.46 22.65,-12.15 28.43,-8.26 56.61,-18.96 87.11,-26.03" /><path
         id="path86"
         style="fill:#8c68bb;fill-opacity:1;fill-rule:nonzero;stroke:none"
         d="m 3763.83,1153.91 c 29.09,1.23 56.3,-3.64 82.68,-13.31 1.87,-0.7 2.65,2.13 0.89,2.91 -24.71,10.88 -50.32,16.78 -77.97,16.34 -2.34,-0.04 -4.71,-0.1 -7.1,-0.2 -21.2,-4.12 -35.36,-10.08 -35.33,-10 0,0 0.46,-0.27 1.35,-0.75 12.24,2.63 24.11,4.54 35.48,5.01" /><path
         id="path88"
         style="fill:#8c68bb;fill-opacity:1;fill-rule:nonzero;stroke:none"
         d="m 3727,1149.65 c -0.01,-0.01 2.77,-1.54 7.89,-4.26 12.9,-0.39 25.43,-1.63 37.32,-3.86 29.16,-5.47 56.84,-16.11 85.84,-22.96 1.39,-0.34 1.95,1.53 0.64,2.1 -27.39,11.93 -55.56,20.66 -84.63,26.22 -12.92,2.48 -26.3,4.62 -40.24,5.23 -4.36,-1.48 -6.83,-2.47 -6.82,-2.47" /><path
         id="path90"
         style="fill:#e7d5ed;fill-opacity:1;fill-rule:nonzero;stroke:none"
         d="m 3157.77,2172.71 c -28.08,-75.99 -29.66,-150.48 -29.71,-150.87 -0.3,-0.3 58.68,44.79 88.52,125.26 29.98,80.39 16.46,157.88 16.47,157.42 -0.2,-0.31 -46.9,-55.96 -75.28,-131.81" /><path
         id="path92"
         style="fill:#e7d5ed;fill-opacity:1;fill-rule:nonzero;stroke:none"
         d="m 2804.92,1590.7 c 17.34,16.25 34.26,32.92 50.79,49.96 33.05,34.09 64.38,69.8 94.03,106.9 59.29,74.19 111.68,154.15 156.15,239.04 12.16,23.21 23.74,46.77 34.79,70.65 11.63,25.17 21.75,51.5 33.96,76.41 1.12,2.28 4.23,0.87 3.49,-1.59 -14.06,-46.43 -36.41,-90.28 -57.96,-132.96 -21.7,-43.02 -45.39,-84.84 -70.91,-125.39 -51.02,-81.09 -109.5,-157.04 -175.01,-226.52 -17.92,-18.99 -36.36,-37.49 -55.29,-55.5 -19.9,-18.92 -39.82,-38.89 -62.32,-54.69 -3.69,-2.58 -7.55,2.25 -4.39,5.46 16.67,16.97 35.39,32.03 52.67,48.23" /><path
         id="path94"
         style="fill:#e7d5ed;fill-opacity:1;fill-rule:nonzero;stroke:none"
         d="m 3164.74,2143.11 c 0.68,1.37 2.64,0.55 2,-0.91 -12.75,-29.3 -23.72,-60.06 -32.38,-91.02 -2.22,-7.94 -4.2,-15.92 -6.09,-23.94 0.3,5.73 1,15.76 2.5,28.69 9.13,29.73 19.85,58.67 33.97,87.18" /><path
         id="path96"
         style="fill:#e7d5ed;fill-opacity:1;fill-rule:nonzero;stroke:none"
         d="m 3149.12,2050.18 c 16.51,23.58 30.76,49.11 40.77,76.93 0.7,1.97 3.15,0.77 2.57,-1.18 -8.11,-27.31 -20.66,-52.42 -36.16,-75.48 -1.3,-1.94 -2.62,-3.91 -3.96,-5.88 -14.15,-14.97 -24.29,-22.71 -24.28,-22.73 0,0 0.01,0.64 0.05,1.82 7.3,8.61 14.57,17.3 21.01,26.52" /><path
         id="path98"
         style="fill:#e7d5ed;fill-opacity:1;fill-rule:nonzero;stroke:none"
         d="m 3041,2081.07 c 24.96,-75.36 45.79,-140.1 43.68,-140.26 2.31,-0.51 45.78,73.3 19.35,150.74 -25.92,76.81 -59.23,132.7 -57.01,133.21 -2,-1.14 -30.47,-68.92 -6.02,-143.69" /><path
         id="path100"
         style="fill:#e7d5ed;fill-opacity:1;fill-rule:nonzero;stroke:none"
         d="m 3063.62,2060.86 c -0.22,1.45 1.86,1.82 2.16,0.32 6.09,-30.15 13.21,-61.29 16.15,-92.11 0.76,-7.88 1.36,-15.73 1.59,-23.59 -1.22,5 -3.35,13.85 -6.7,25.5 -2.37,30.05 -8.72,59.61 -13.2,89.88" /><path
         id="path102"
         style="fill:#e7d5ed;fill-opacity:1;fill-rule:nonzero;stroke:none"
         d="m 3096.11,1976.78 c 6.3,29.06 4.78,57.48 -2.66,84.77 -0.53,1.94 2.18,2.32 2.8,0.47 8.72,-25.83 11.53,-52.88 6.4,-80.84 -0.43,-2.35 -0.9,-4.74 -1.43,-7.15 -7.69,-20.62 -16.66,-33.23 -16.54,-33.22 0,0 -0.14,0.55 -0.39,1.56 5.21,11.56 9.37,23.07 11.82,34.41" /><path
         id="path104"
         style="fill:#e7d5ed;fill-opacity:1;fill-rule:nonzero;stroke:none"
         d="m 3084.68,1940.81 c -0.01,0 -0.79,3.19 -2.22,8.98 2.43,12.96 3.62,25.76 3.47,38.05 -0.38,30.18 -7.53,59.23 -12.56,88.04 -0.24,1.37 1.54,1.66 2,0.32 9.93,-28.04 15.38,-57.45 15.88,-87.67 0.24,-13.42 -0.28,-27.35 -2.74,-41.5 -2.34,-4.02 -3.84,-6.22 -3.83,-6.22" /><path
         id="path106"
         style="fill:#e7d5ed;fill-opacity:1;fill-rule:nonzero;stroke:none"
         d="m 3224.04,1981.09 c -75.29,-29.69 -139.06,-38.72 -138.14,-41.05 -0.29,2.47 36.66,74.75 109.42,104.68 73.52,29.78 135.8,55.6 134.69,57.62 1.76,-1.84 -29.85,-91.7 -105.97,-121.25" /><path
         id="path108"
         style="fill:#e7d5ed;fill-opacity:1;fill-rule:nonzero;stroke:none"
         d="m 3195.13,1988.23 c 1.29,0.76 0.42,2.9 -0.96,2.19 -27.57,-14.25 -56.65,-25.86 -83.51,-38.98 -6.9,-3.35 -13.68,-6.69 -20.32,-10.25 4.73,1.25 13.1,3.56 24.41,6.48 26.04,13.39 53.53,24.79 80.38,40.56" /><path
         id="path110"
         style="fill:#e7d5ed;fill-opacity:1;fill-rule:nonzero;stroke:none"
         d="m 3109.84,1968.53 c 20.33,20.92 43.32,36.03 68.86,47.03 1.82,0.78 0.53,3.43 -1.27,2.79 -25.1,-8.93 -47.62,-22.19 -67.42,-41.55 -1.67,-1.63 -3.35,-3.31 -5.03,-5.03 -12.69,-17.65 -19.05,-31.81 -19.08,-31.73 0,0 0.52,0.12 1.49,0.37 7.14,10.36 14.5,19.94 22.45,28.12" /><path
         id="path112"
         style="fill:#e7d5ed;fill-opacity:1;fill-rule:nonzero;stroke:none"
         d="m 3085.9,1940.04 c 0,-0.01 3.02,0.75 8.52,2.24 9.61,8.57 19.52,16.26 29.63,22.77 24.76,15.98 51.87,27.11 77.49,42.03 1.23,0.71 0.42,2.5 -0.91,2.02 -27.77,-10.02 -54,-22.93 -78.76,-38.79 -11.01,-7.04 -22.12,-14.63 -32.64,-23.74 -2.2,-4.11 -3.33,-6.53 -3.33,-6.53" /><path
         id="path114"
         style="fill:#e7d5ed;fill-opacity:1;fill-rule:nonzero;stroke:none"
         d="m 2968.36,1948.14 c 17.34,-77.24 31.57,-143.62 29.46,-143.55 2.25,-0.74 53.15,67.6 34.53,147.01 -18.17,78.76 -45.83,137.57 -43.56,137.83 -2.11,-0.89 -37.31,-64.65 -20.43,-141.29" /><path
         id="path116"
         style="fill:#e7d5ed;fill-opacity:1;fill-rule:nonzero;stroke:none"
         d="m 2988.91,1925.68 c -0.07,1.47 2.04,1.6 2.2,0.08 3.03,-30.48 7,-62.06 6.81,-92.89 -0.04,-7.89 -0.22,-15.72 -0.79,-23.53 -0.72,5.08 -1.94,14.07 -4.11,25.98 0.67,29.99 -2.68,59.94 -4.11,90.36" /><path
         id="path118"
         style="fill:#e7d5ed;fill-opacity:1;fill-rule:nonzero;stroke:none"
         d="m 3012.87,1838.96 c 9.23,28.06 10.59,56.35 5.9,84.15 -0.33,1.97 2.41,2.05 2.85,0.16 6.11,-26.5 6.18,-53.56 -1.77,-80.67 -0.67,-2.28 -1.38,-4.6 -2.14,-6.92 -9.79,-19.58 -20.02,-31.09 -19.89,-31.09 0,0 -0.09,0.56 -0.25,1.59 6.38,10.88 11.7,21.82 15.3,32.78" /><path
         id="path120"
         style="fill:#e7d5ed;fill-opacity:1;fill-rule:nonzero;stroke:none"
         d="m 2997.82,1804.59 c -0.02,0 -0.47,3.24 -1.31,9.13 3.73,12.57 6.22,25.11 7.31,37.29 2.68,29.91 -1.53,59.43 -3.66,88.45 -0.11,1.39 1.7,1.48 2.03,0.11 7.09,-28.81 9.56,-58.5 7.02,-88.45 -1.13,-13.32 -3.04,-27.05 -6.95,-40.79 -2.74,-3.72 -4.45,-5.74 -4.44,-5.74" /><path
         id="path122"
         style="fill:#e7d5ed;fill-opacity:1;fill-rule:nonzero;stroke:none"
         d="m 3141.07,1829.25 c -78.18,-21.12 -142.8,-23.15 -142.12,-25.56 -0.03,2.48 44.21,70.03 119.83,91.62 76.41,21.38 141.15,39.97 140.27,42.09 1.56,-1.99 -38.99,-87.22 -117.98,-108.15" /><path
         id="path124"
         style="fill:#e7d5ed;fill-opacity:1;fill-rule:nonzero;stroke:none"
         d="m 3112.91,1839.48 c 1.37,0.61 0.73,2.83 -0.72,2.27 -28.98,-11.08 -59.19,-19.39 -87.35,-29.46 -7.23,-2.57 -14.34,-5.13 -21.34,-7.94 4.85,0.73 13.45,2.11 25.05,3.76 27.36,10.42 55.97,18.71 84.36,31.37" /><path
         id="path126"
         style="fill:#e7d5ed;fill-opacity:1;fill-rule:nonzero;stroke:none"
         d="m 3025.75,1829.29 c 22.42,18.5 46.9,30.94 73.52,39.02 1.9,0.57 0.88,3.33 -0.99,2.89 -25.97,-6.09 -49.79,-16.73 -71.52,-33.74 -1.83,-1.43 -3.68,-2.91 -5.53,-4.43 -14.47,-16.08 -22.25,-29.42 -22.28,-29.33 0,0 0.54,0.06 1.52,0.2 8.2,9.48 16.52,18.17 25.28,25.39" /><path
         id="path128"
         style="fill:#e7d5ed;fill-opacity:1;fill-rule:nonzero;stroke:none"
         d="m 2998.95,1803.7 c 0.01,-0.02 3.09,0.41 8.74,1.29 10.47,7.44 21.15,13.97 31.9,19.31 26.35,13.12 54.54,21.18 81.62,33.12 1.3,0.57 0.68,2.43 -0.69,2.09 -28.74,-6.86 -56.24,-16.77 -82.58,-29.76 -11.71,-5.77 -23.57,-12.07 -35,-19.95 -2.6,-3.83 -3.99,-6.11 -3.99,-6.1" /><path
         id="path130"
         style="fill:#e7d5ed;fill-opacity:1;fill-rule:nonzero;stroke:none"
         d="m 2877.65,1818.49 c 9.04,-78.44 16.09,-145.84 13.98,-145.53 2.19,-0.99 60.45,60.98 50.32,141.68 -9.74,80.01 -31.15,141.29 -28.84,141.29 -2.2,-0.63 -44.1,-59.63 -35.46,-137.44" /><path
         id="path132"
         style="fill:#e7d5ed;fill-opacity:1;fill-rule:nonzero;stroke:none"
         d="m 2895.77,1793.92 c 0.09,1.45 2.22,1.35 2.21,-0.17 -0.23,-30.53 0.33,-62.26 -3.18,-92.78 -0.89,-7.81 -1.93,-15.55 -3.34,-23.23 -0.17,5.12 -0.42,14.17 -1.3,26.21 3.92,29.65 3.78,59.68 5.61,89.97" /><path
         id="path134"
         style="fill:#e7d5ed;fill-opacity:1;fill-rule:nonzero;stroke:none"
         d="m 2910.39,1705.31 c 12.26,26.76 16.64,54.61 14.95,82.67 -0.13,1.99 2.62,1.76 2.86,-0.17 3.26,-26.92 0.44,-53.73 -10.43,-79.68 -0.92,-2.19 -1.88,-4.4 -2.89,-6.62 -11.89,-18.29 -23.37,-28.54 -23.25,-28.55 0,0 -0.03,0.56 -0.06,1.6 7.54,10.06 14.05,20.31 18.82,30.75" /><path
         id="path136"
         style="fill:#e7d5ed;fill-opacity:1;fill-rule:nonzero;stroke:none"
         d="m 2891.63,1672.96 c -0.02,0 -0.12,3.26 -0.32,9.2 5.09,12.02 8.94,24.17 11.34,36.11 5.9,29.33 4.86,59.04 5.84,88.02 0.05,1.38 1.86,1.27 2.05,-0.13 3.99,-29.33 3.28,-59 -2.49,-88.39 -2.57,-13.06 -5.97,-26.45 -11.35,-39.63 -3.15,-3.37 -5.08,-5.18 -5.07,-5.18" /><path
         id="path138"
         style="fill:#e7d5ed;fill-opacity:1;fill-rule:nonzero;stroke:none"
         d="m 3037.46,1681.17 c -80.36,-12.04 -145.21,-6.77 -144.79,-9.22 0.24,2.46 51.77,64.4 129.6,77.14 78.59,12.45 145.19,23.4 144.52,25.59 1.37,-2.13 -48.15,-81.75 -129.33,-93.51" /><path
         id="path140"
         style="fill:#e7d5ed;fill-opacity:1;fill-rule:nonzero;stroke:none"
         d="m 3010.43,1694.49 c 1.43,0.45 1.02,2.71 -0.49,2.33 -30.13,-7.68 -61.22,-12.5 -90.45,-19.28 -7.5,-1.73 -14.9,-3.48 -22.2,-5.46 4.93,0.17 13.68,0.56 25.45,0.9 28.48,7.22 57.97,12.2 87.69,21.51" /><path
         id="path142"
         style="fill:#e7d5ed;fill-opacity:1;fill-rule:nonzero;stroke:none"
         d="m 2922.23,1694.27 c 24.39,15.79 50.2,25.33 77.66,30.31 1.95,0.35 1.23,3.2 -0.68,2.98 -26.6,-3.08 -51.54,-10.92 -75.09,-25.31 -1.99,-1.21 -4,-2.46 -6.01,-3.76 -16.19,-14.3 -25.42,-26.63 -25.44,-26.54 0,0 0.55,0 1.54,0.02 9.22,8.48 18.48,16.14 28.02,22.3" /><path
         id="path144"
         style="fill:#e7d5ed;fill-opacity:1;fill-rule:nonzero;stroke:none"
         d="m 2892.67,1671.95 c 0,-0.02 3.14,0.05 8.88,0.29 11.28,6.19 22.65,11.45 33.97,15.53 27.75,10.01 56.8,14.79 85.13,23.54 1.35,0.41 0.93,2.32 -0.48,2.15 -29.43,-3.53 -57.97,-10.22 -85.7,-20.11 -12.33,-4.39 -24.87,-9.3 -37.15,-15.81 -3.02,-3.5 -4.65,-5.6 -4.65,-5.59" /><path
         id="path146"
         style="fill:#e7d5ed;fill-opacity:1;fill-rule:nonzero;stroke:none"
         d="m 2778.28,1705.68 c 0.91,-78.81 0.87,-146.47 -1.21,-145.94 2.11,-1.2 66.97,54.09 65.14,135.22 -1.47,80.4 -16.61,143.44 -14.31,143.19 -2.25,-0.38 -50.18,-54.34 -49.62,-132.47" /><path
         id="path148"
         style="fill:#e7d5ed;fill-opacity:1;fill-rule:nonzero;stroke:none"
         d="m 2793.87,1679.35 c 0.23,1.44 2.35,1.11 2.19,-0.4 -3.4,-30.27 -6.15,-61.83 -12.87,-91.74 -1.71,-7.67 -3.57,-15.24 -5.78,-22.7 0.36,5.09 1.06,14.11 1.44,26.15 7.03,29.01 10.04,58.84 15.02,88.69" /><path
         id="path150"
         style="fill:#e7d5ed;fill-opacity:1;fill-rule:nonzero;stroke:none"
         d="m 2799.27,1589.86 c 15.07,25.24 22.36,52.41 23.57,80.43 0.08,1.99 2.81,1.46 2.85,-0.47 0.47,-27.06 -5.15,-53.36 -18.75,-77.96 -1.15,-2.07 -2.34,-4.16 -3.59,-6.25 -13.82,-16.89 -26.4,-25.84 -26.28,-25.87 0,0 0.03,0.55 0.1,1.6 8.62,9.18 16.21,18.65 22.1,28.52" /><path
         id="path152"
         style="fill:#e7d5ed;fill-opacity:1;fill-rule:nonzero;stroke:none"
         d="m 2777.07,1559.74 c -0.02,0 0.23,3.25 0.65,9.16 6.37,11.4 11.48,23.05 15.14,34.65 8.98,28.47 11.04,58.07 15.02,86.71 0.19,1.37 1.99,1.07 2.04,-0.35 0.95,-29.52 -2.85,-58.89 -11.7,-87.45 -3.93,-12.68 -8.74,-25.6 -15.52,-38.11 -3.51,-3.02 -5.64,-4.61 -5.63,-4.61" /><path
         id="path154"
         style="fill:#e7d5ed;fill-opacity:1;fill-rule:nonzero;stroke:none"
         d="m 2923.97,1552.31 c -81.68,-3.34 -146.12,8.79 -145.97,6.31 0.53,2.43 58.64,58.42 137.79,62.7 79.92,3.91 147.59,7.56 147.15,9.81 1.16,-2.26 -56.5,-75.84 -138.97,-78.82" /><path
         id="path156"
         style="fill:#e7d5ed;fill-opacity:1;fill-rule:nonzero;stroke:none"
         d="m 2898.29,1568.42 c 1.48,0.28 1.3,2.58 -0.24,2.36 -30.97,-4.39 -62.59,-5.85 -92.59,-9.47 -7.69,-0.92 -15.29,-1.85 -22.81,-3.05 4.96,-0.35 13.77,-0.89 25.59,-1.82 29.29,4.13 59.33,5.92 90.05,11.98" /><path
         id="path158"
         style="fill:#e7d5ed;fill-opacity:1;fill-rule:nonzero;stroke:none"
         d="m 2809.96,1577.64 c 26.09,13.06 52.91,19.76 80.9,21.76 1.99,0.14 1.57,3.04 -0.36,3.02 -26.94,-0.19 -52.71,-5.3 -77.81,-17.07 -2.12,-0.99 -4.26,-2.02 -6.41,-3.08 -17.72,-12.47 -28.27,-23.73 -28.27,-23.65 0,0 0.54,-0.05 1.54,-0.13 10.14,7.42 20.21,14.05 30.41,19.15" /><path
         id="path160"
         style="fill:#e7d5ed;fill-opacity:1;fill-rule:nonzero;stroke:none"
         d="m 2778.01,1558.62 c -0.01,0 3.16,-0.27 8.93,-0.65 11.94,4.94 23.89,8.96 35.66,11.79 28.84,6.97 58.4,8.61 87.66,14.25 1.4,0.27 1.18,2.2 -0.25,2.18 -29.83,-0.34 -59.09,-3.92 -87.89,-10.78 -12.8,-3.04 -25.88,-6.57 -38.86,-11.73 -3.4,-3.15 -5.25,-5.06 -5.25,-5.06" /><path
         id="path162"
         style="fill:#e7d5ed;fill-opacity:1;fill-rule:nonzero;stroke:none"
         d="m 347.527,1619.16 c 56.411,-70.18 84.301,-148.31 84.493,-148.7 0.425,-0.2 -77.758,26.21 -137.598,100.49 -59.977,74.15 -72.977,160.87 -72.828,160.38 0.316,-0.26 69.254,-42.26 125.933,-112.17" /><path
         id="path164"
         style="fill:#e7d5ed;fill-opacity:1;fill-rule:nonzero;stroke:none"
         d="m 925.148,1131.21 c -24.043,10.93 -47.785,22.45 -71.242,34.51 -46.922,24.13 -92.586,50.59 -136.965,79.13 -88.75,57.05 -172.238,122.67 -249.101,196.35 -21.016,20.15 -41.547,40.88 -61.617,62.14 -21.153,22.39 -41.106,46.57 -62.782,68.5 -1.972,2 -4.765,-0.61 -3.117,-2.93 31.203,-44 70.235,-82.29 108.035,-119.62 38.067,-37.64 77.813,-73.3 119.036,-106.96 82.453,-67.32 170.957,-126.53 264.621,-176.36 25.609,-13.62 51.605,-26.53 77.953,-38.75 27.676,-12.83 55.746,-26.76 85.074,-35.36 4.805,-1.41 7.187,5.09 2.715,7.34 -23.578,11.93 -48.653,21.12 -72.61,32.01" /><path
         id="path166"
         style="fill:#e7d5ed;fill-opacity:1;fill-rule:nonzero;stroke:none"
         d="m 350.578,1585.38 c -1.199,1.2 -2.976,-0.37 -1.797,-1.68 23.793,-26.37 46.207,-54.92 66.254,-84.51 5.133,-7.59 10.035,-15.31 14.86,-23.09 -2.329,5.94 -6.602,16.28 -12.739,29.41 -20.101,28.11 -41.625,54.83 -66.578,79.87" /><path
         id="path168"
         style="fill:#e7d5ed;fill-opacity:1;fill-rule:nonzero;stroke:none"
         d="m 399.789,1492.82 c -25.738,18.98 -49.777,40.82 -70.137,66.62 -1.441,1.83 -3.609,-0.33 -2.308,-2.18 18.183,-25.93 40.277,-47.94 64.765,-66.73 2.063,-1.58 4.153,-3.18 6.262,-4.79 20.215,-10.72 33.652,-15.25 33.649,-15.28 0,0.01 -0.239,0.67 -0.7,1.91 -10.742,6.47 -21.472,13.04 -31.531,20.45" /><path
         id="path170"
         style="fill:#e7d5ed;fill-opacity:1;fill-rule:nonzero;stroke:none"
         d="m 503.137,1564.34 c 0.164,-88.58 0.937,-164.47 3.23,-163.88 -2.262,-1.36 -74.164,60.98 -73.504,152.29 0.348,90.45 15.867,161.47 13.328,161.21 2.512,-0.48 56.457,-61.84 56.946,-149.62" /><path
         id="path172"
         style="fill:#e7d5ed;fill-opacity:1;fill-rule:nonzero;stroke:none"
         d="m 486.359,1534.86 c -0.281,1.61 -2.613,1.25 -2.402,-0.44 4.188,-34.05 7.621,-69.5 15.367,-103.11 1.969,-8.6 4.098,-17.11 6.621,-25.5 -0.465,5.72 -1.336,15.83 -1.898,29.36 -8.067,32.59 -11.77,66.1 -17.688,99.69" /><path
         id="path174"
         style="fill:#e7d5ed;fill-opacity:1;fill-rule:nonzero;stroke:none"
         d="m 481.629,1434.36 c -16.875,28.42 -25.289,58.99 -27.031,90.5 -0.121,2.23 -3.121,1.67 -3.129,-0.51 -0.117,-30.43 6.445,-60.01 21.703,-87.7 1.285,-2.33 2.621,-4.69 4.019,-7.04 15.399,-19.02 29.305,-29.12 29.176,-29.15 0,0 -0.047,0.64 -0.133,1.8 -9.566,10.33 -18.019,20.99 -24.605,32.1" /><path
         id="path176"
         style="fill:#e7d5ed;fill-opacity:1;fill-rule:nonzero;stroke:none"
         d="m 506.367,1400.46 c 0.012,0 -0.285,3.65 -0.82,10.28 -7.121,12.82 -12.887,25.91 -17.055,38.96 -10.226,32.01 -12.902,65.27 -17.722,97.51 -0.231,1.54 -2.204,1.21 -2.231,-0.38 -0.617,-33.19 3.988,-66.21 14.086,-98.32 4.484,-14.26 9.922,-28.79 17.516,-42.85 3.882,-3.4 6.234,-5.2 6.226,-5.2" /><path
         id="path178"
         style="fill:#e7d5ed;fill-opacity:1;fill-rule:nonzero;stroke:none"
         d="m 344.969,1392.89 c 89.984,-4.28 160.523,9.11 160.383,6.32 -0.567,2.71 -65.051,65.78 -152.434,71.24 -88.152,5.02 -163.031,9.89 -162.582,12.43 -1.207,-2.58 63.816,-86.14 154.633,-89.99" /><path
         id="path180"
         style="fill:#e7d5ed;fill-opacity:1;fill-rule:nonzero;stroke:none"
         d="m 373,1410.84 c -1.629,0.33 -1.469,2.91 0.23,2.66 34.157,-5.14 68.95,-6.95 101.95,-11.14 8.461,-1.07 16.812,-2.16 25.082,-3.53 -5.446,-0.38 -15.102,-0.95 -28.074,-1.93 -32.227,4.77 -65.286,6.93 -99.188,13.94" /><path
         id="path182"
         style="fill:#e7d5ed;fill-opacity:1;fill-rule:nonzero;stroke:none"
         d="m 470.031,1420.7 c -28.832,14.78 -58.445,22.49 -89.304,24.92 -2.192,0.17 -1.77,3.43 0.355,3.41 29.672,-0.41 58.125,-6.32 85.856,-19.66 2.339,-1.13 4.707,-2.29 7.078,-3.5 19.629,-14.08 31.324,-26.76 31.336,-26.66 0,0 -0.598,-0.06 -1.7,-0.14 -11.203,8.37 -22.351,15.85 -33.621,21.63" /><path
         id="path184"
         style="fill:#e7d5ed;fill-opacity:1;fill-rule:nonzero;stroke:none"
         d="m 505.352,1399.21 c 0,-0.01 -3.457,-0.29 -9.793,-0.69 -13.168,5.59 -26.348,10.15 -39.313,13.4 -31.785,7.96 -64.344,9.99 -96.652,16.53 -1.543,0.31 -1.328,2.49 0.242,2.45 32.859,-0.59 65.113,-4.79 96.855,-12.64 14.114,-3.48 28.524,-7.51 42.84,-13.35 3.762,-3.55 5.821,-5.7 5.821,-5.7" /><path
         id="path186"
         style="fill:#e7d5ed;fill-opacity:1;fill-rule:nonzero;stroke:none"
         d="m 626.664,1450.04 c 8.883,-87.84 17.195,-163.08 19.418,-162.25 -2.129,-1.59 -79.945,52.31 -88.23,142.9 -8.536,89.72 -0.012,161.79 -2.508,161.26 2.539,-0.19 62.183,-54.89 71.32,-141.91" /><path
         id="path188"
         style="fill:#e7d5ed;fill-opacity:1;fill-rule:nonzero;stroke:none"
         d="m 612.863,1418.92 c -0.437,1.57 -2.722,0.95 -2.347,-0.71 7.519,-33.3 14.445,-68.08 25.492,-100.57 2.816,-8.33 5.777,-16.53 9.129,-24.57 -1.028,5.61 -2.907,15.55 -4.801,28.91 -11.273,31.45 -18.273,64.29 -27.473,96.94" /><path
         id="path190"
         style="fill:#e7d5ed;fill-opacity:1;fill-rule:nonzero;stroke:none"
         d="m 618.074,1318.69 c -19.625,26.33 -31.015,55.73 -35.847,86.77 -0.344,2.21 -3.27,1.31 -3.067,-0.85 2.875,-30.19 12.324,-58.81 30.262,-84.58 1.516,-2.18 3.082,-4.36 4.703,-6.54 17.227,-17.17 32.09,-25.65 31.957,-25.7 0,0 -0.102,0.63 -0.309,1.77 -10.554,9.2 -20.039,18.84 -27.699,29.13" /><path
         id="path192"
         style="fill:#e7d5ed;fill-opacity:1;fill-rule:nonzero;stroke:none"
         d="m 646.082,1287.79 c 0.02,0.01 -0.644,3.6 -1.836,10.12 -8.363,11.94 -15.406,24.29 -20.844,36.76 -13.359,30.64 -19.308,63.34 -27.277,94.77 -0.375,1.5 -2.312,0.95 -2.187,-0.63 2.656,-32.98 10.496,-65.22 23.73,-95.97 5.875,-13.65 12.734,-27.46 21.695,-40.58 4.203,-2.94 6.731,-4.46 6.719,-4.47" /><path
         id="path194"
         style="fill:#e7d5ed;fill-opacity:1;fill-rule:nonzero;stroke:none"
         d="m 486.066,1262.35 c 90.016,5.79 159,26.87 159.133,24.1 -0.844,2.62 -71.347,58.07 -158.847,53.69 -88.239,-4.89 -163.18,-8.54 -162.981,-5.98 -0.957,-2.67 71.883,-78.12 162.695,-71.81" /><path
         id="path196"
         style="fill:#e7d5ed;fill-opacity:1;fill-rule:nonzero;stroke:none"
         d="m 512.203,1283.27 c -1.652,0.15 -1.746,2.73 -0.027,2.66 34.515,-1.29 69.351,0.79 102.648,0.28 8.535,-0.1 16.957,-0.26 25.34,-0.71 -5.391,-0.98 -14.957,-2.61 -27.781,-5.03 -32.586,1.16 -65.731,-0.37 -100.18,2.8" /><path
         id="path198"
         style="fill:#e7d5ed;fill-opacity:1;fill-rule:nonzero;stroke:none"
         d="m 607.879,1303.85 c -30.195,11.47 -60.445,15.81 -91.406,14.77 -2.196,-0.06 -2.094,3.21 0.019,3.42 29.59,2.9 58.496,0.23 87.442,-9.93 2.441,-0.85 4.914,-1.75 7.402,-2.68 20.949,-11.8 33.867,-23.08 33.863,-22.98 0,0 -0.59,-0.13 -1.683,-0.33 -11.993,7.07 -23.84,13.25 -35.637,17.73" /><path
         id="path200"
         style="fill:#e7d5ed;fill-opacity:1;fill-rule:nonzero;stroke:none"
         d="m 645.199,1286.45 c 0,-0.02 -3.418,-0.68 -9.687,-1.78 -13.684,4.09 -27.262,7.15 -40.5,8.93 -32.453,4.38 -65.078,2.75 -97.883,5.63 -1.574,0.14 -1.57,2.32 0,2.47 32.773,3.08 65.301,2.5 97.699,-1.75 14.402,-1.89 29.16,-4.28 44.004,-8.49 4.106,-3.11 6.367,-5.02 6.367,-5.01" /><path
         id="path202"
         style="fill:#e7d5ed;fill-opacity:1;fill-rule:nonzero;stroke:none"
         d="m 768.125,1345.7 c 18.059,-86.13 34.34,-159.86 36.465,-158.77 -1.965,-1.83 -85.328,42.68 -103.024,131.58 -17.875,88.02 -16.839,160.45 -19.277,159.63 2.543,0.11 67.582,-47.14 85.836,-132.44" /><path
         id="path204"
         style="fill:#e7d5ed;fill-opacity:1;fill-rule:nonzero;stroke:none"
         d="m 757.629,1313.21 c -0.598,1.52 -2.816,0.64 -2.266,-0.96 10.992,-32.17 21.559,-65.89 36.016,-96.87 3.691,-7.94 7.516,-15.74 11.707,-23.34 -1.617,5.47 -4.543,15.12 -7.848,28.16 -14.57,29.91 -25.011,61.69 -37.609,93.01" /><path
         id="path206"
         style="fill:#e7d5ed;fill-opacity:1;fill-rule:nonzero;stroke:none"
         d="m 773.371,1214.36 c -22.355,23.86 -36.801,51.71 -44.879,81.95 -0.562,2.15 -3.39,0.92 -2.961,-1.2 6.035,-29.62 18.457,-56.91 39.067,-80.43 1.738,-1.98 3.531,-3.97 5.386,-5.95 18.993,-15.04 34.735,-21.75 34.606,-21.8 0,0 -0.168,0.6 -0.496,1.71 -11.512,7.91 -21.996,16.4 -30.723,25.72" /><path
         id="path208"
         style="fill:#e7d5ed;fill-opacity:1;fill-rule:nonzero;stroke:none"
         d="m 804.59,1186.93 c 0.012,0.01 -1.024,3.49 -2.902,9.82 -9.614,10.88 -17.946,22.32 -24.688,34.08 -16.559,28.87 -25.922,60.63 -37.156,90.88 -0.539,1.45 -2.41,0.67 -2.117,-0.87 6.105,-32.42 17.304,-63.5 33.746,-92.48 7.304,-12.87 15.609,-25.8 25.937,-37.78 4.512,-2.43 7.188,-3.64 7.18,-3.65" /><path
         id="path210"
         style="fill:#e7d5ed;fill-opacity:1;fill-rule:nonzero;stroke:none"
         d="m 647.645,1143.16 c 89.132,16.18 155.781,45.06 156.207,42.32 -1.129,2.52 -77.364,49.42 -164.067,34.89 -87.414,-15.1 -161.613,-27.49 -161.68,-24.93 -0.691,-2.74 79.649,-69.04 169.54,-52.28" /><path
         id="path212"
         style="fill:#e7d5ed;fill-opacity:1;fill-rule:nonzero;stroke:none"
         d="m 671.512,1166.96 c -1.668,-0.04 -2.035,2.5 -0.313,2.63 34.547,2.73 69.074,8.81 102.356,12.16 8.527,0.87 16.957,1.69 25.371,2.22 -5.281,-1.6 -14.656,-4.33 -27.203,-8.21 -32.633,-2.61 -65.532,-7.96 -100.211,-8.8" /><path
         id="path214"
         style="fill:#e7d5ed;fill-opacity:1;fill-rule:nonzero;stroke:none"
         d="m 764.766,1198.45 c -31.336,7.89 -61.953,8.7 -92.711,4.08 -2.184,-0.33 -2.422,2.94 -0.336,3.39 29.187,6.32 58.289,7 88.234,0.27 2.527,-0.56 5.09,-1.17 7.672,-1.81 22.145,-9.28 36.234,-19 36.227,-18.9 0,0 -0.579,-0.19 -1.649,-0.52 -12.719,5.64 -25.199,10.4 -37.437,13.49" /><path
         id="path216"
         style="fill:#e7d5ed;fill-opacity:1;fill-rule:nonzero;stroke:none"
         d="m 803.852,1185.48 c 0,-0.01 -3.344,-1.06 -9.485,-2.88 -14.09,2.49 -27.961,3.95 -41.359,4.19 -32.844,0.59 -65.203,-4.8 -98.203,-5.74 -1.582,-0.05 -1.809,2.12 -0.262,2.44 32.34,6.86 64.84,10.06 97.613,9.58 14.567,-0.21 29.543,-0.88 44.809,-3.35 4.426,-2.61 6.887,-4.25 6.887,-4.24" /><path
         id="path218"
         style="fill:#e7d5ed;fill-opacity:1;fill-rule:nonzero;stroke:none"
         d="m 912.813,1262.25 c 26.777,-83.58 50.632,-155.04 52.648,-153.73 -1.801,-2.02 -89.777,33.06 -116.414,119.42 -26.742,85.46 -32.942,157.5 -35.289,156.41 2.519,0.41 72.144,-39.36 99.055,-122.1" /><path
         id="path220"
         style="fill:#e7d5ed;fill-opacity:1;fill-rule:nonzero;stroke:none"
         d="m 905.613,1228.83 c -0.758,1.44 -2.879,0.32 -2.168,-1.21 14.243,-30.74 28.254,-63.1 45.883,-92.28 4.504,-7.49 9.125,-14.81 14.102,-21.9 -2.18,5.24 -6.094,14.51 -10.731,27.11 -17.636,28.11 -31.312,58.54 -47.086,88.28" /><path
         id="path222"
         style="fill:#e7d5ed;fill-opacity:1;fill-rule:nonzero;stroke:none"
         d="m 931.414,1132.35 c -24.805,21.26 -42.078,47.34 -53.211,76.5 -0.793,2.07 -3.484,0.54 -2.844,-1.52 9.028,-28.76 24.219,-54.52 47.243,-75.62 1.937,-1.78 3.933,-3.55 5.992,-5.32 20.539,-12.86 36.992,-17.79 36.867,-17.87 0,0 -0.227,0.58 -0.672,1.65 -12.34,6.6 -23.687,13.87 -33.375,22.18" /><path
         id="path224"
         style="fill:#e7d5ed;fill-opacity:1;fill-rule:nonzero;stroke:none"
         d="m 965.461,1108.52 c 0.016,0.01 -1.383,3.36 -3.91,9.44 -10.738,9.76 -20.242,20.22 -28.188,31.15 -19.511,26.86 -32.101,57.39 -46.39,86.21 -0.688,1.38 -2.477,0.41 -2.028,-1.1 9.383,-31.53 23.735,-61.19 43.141,-88.17 8.613,-11.99 18.246,-23.91 29.812,-34.68 4.766,-1.92 7.575,-2.84 7.563,-2.85" /><path
         id="path226"
         style="fill:#e7d5ed;fill-opacity:1;fill-rule:nonzero;stroke:none"
         d="m 812.902,1047.84 c 87.457,25.85 151.266,61.84 151.965,59.16 -1.402,2.38 -82.5,40.63 -167.629,16.68 -85.793,-24.61 -158.574,-45.07 -158.894,-42.55 -0.426,-2.79 86.375,-59.78 174.558,-33.29" /><path
         id="path228"
         style="fill:#e7d5ed;fill-opacity:1;fill-rule:nonzero;stroke:none"
         d="m 834.348,1074.09 c -1.66,-0.22 -2.285,2.27 -0.575,2.59 34.262,6.5 68.18,16.33 101.149,23.29 8.445,1.8 16.801,3.54 25.168,4.98 -5.117,-2.16 -14.227,-5.89 -26.391,-11.12 -32.402,-6.17 -64.765,-15.09 -99.351,-19.74" /><path
         id="path230"
         style="fill:#e7d5ed;fill-opacity:1;fill-rule:nonzero;stroke:none"
         d="m 924.418,1115.6 c -32.16,4.41 -62.855,1.86 -93.125,-6.11 -2.152,-0.56 -2.727,2.66 -0.684,3.33 28.532,9.48 57.563,13.35 88.207,9.95 2.59,-0.29 5.215,-0.6 7.864,-0.96 23.105,-6.8 38.211,-14.9 38.187,-14.81 0,0 -0.558,-0.25 -1.594,-0.7 -13.308,4.21 -26.289,7.58 -38.855,9.3" /><path
         id="path232"
         style="fill:#e7d5ed;fill-opacity:1;fill-rule:nonzero;stroke:none"
         d="m 964.867,1107 c 0.004,-0.01 -3.238,-1.42 -9.199,-3.89 -14.359,0.92 -28.395,0.86 -41.82,-0.37 -32.926,-3.01 -64.739,-11.92 -97.625,-16.48 -1.571,-0.21 -2.02,1.91 -0.508,2.4 31.629,10.37 63.801,17.1 96.637,20.22 14.593,1.39 29.652,2.36 45.191,1.58 4.695,-2.11 7.328,-3.47 7.324,-3.46" /><path
         id="path234"
         style="fill:#8c68bb;fill-opacity:1;fill-rule:nonzero;stroke:none"
         d="m 2131.17,2299.29 c 23.81,-77.41 21.26,-151.82 21.29,-152.2 0.28,-0.33 -56.07,48 -81.38,129.97 -25.46,81.9 -7.69,158.44 -7.73,157.99 0.18,-0.33 43.7,-58.49 67.82,-135.76" /><path
         id="path236"
         style="fill:#8c68bb;fill-opacity:1;fill-rule:nonzero;stroke:none"
         d="m 2450.99,1698.68 c -16.41,17.19 -32.36,34.78 -47.92,52.72 -31.08,35.87 -60.36,73.27 -87.89,111.96 -55.05,77.38 -102.89,160.11 -142.56,247.31 -10.84,23.85 -21.1,48.01 -30.79,72.46 -10.22,25.76 -18.85,52.61 -29.66,78.16 -0.99,2.32 -4.17,1.1 -3.56,-1.4 11.46,-47.12 31.32,-92.12 50.47,-135.93 19.26,-44.14 40.58,-87.21 63.79,-129.1 46.42,-83.79 100.56,-162.87 162.07,-235.89 16.82,-19.96 34.19,-39.47 52.09,-58.5 18.8,-20.01 37.57,-41.04 59.15,-58.09 3.53,-2.78 7.65,1.82 4.67,5.2 -15.69,17.88 -33.52,33.96 -49.86,51.1" /><path
         id="path238"
         style="fill:#8c68bb;fill-opacity:1;fill-rule:nonzero;stroke:none"
         d="m 2122.57,2270.15 c -0.6,1.41 -2.6,0.7 -2.04,-0.79 11.1,-29.97 20.34,-61.27 27.27,-92.65 1.77,-8.04 3.3,-16.12 4.75,-24.22 0.02,5.73 -0.12,15.78 -0.91,28.76 -7.46,30.17 -16.55,59.66 -29.07,88.9" /><path
         id="path240"
         style="fill:#8c68bb;fill-opacity:1;fill-rule:nonzero;stroke:none"
         d="m 2133.01,2176.55 c -15.16,24.46 -27.96,50.73 -36.41,79.06 -0.59,2 -3.1,0.94 -2.63,-1.04 6.58,-27.7 17.71,-53.46 31.89,-77.34 1.19,-2.02 2.41,-4.05 3.64,-6.1 13.28,-15.73 22.97,-24.03 22.96,-24.04 0,0 0.02,0.64 0.05,1.81 -6.81,9.01 -13.58,18.09 -19.5,27.65" /><path
         id="path242"
         style="fill:#8c68bb;fill-opacity:1;fill-rule:nonzero;stroke:none"
         d="m 2242.59,2201.26 c -29.07,-73.77 -53.44,-137.19 -51.34,-137.47 -2.33,-0.37 -41.61,75.72 -10.96,151.48 30.11,75.17 66.44,129.04 64.24,129.68 1.94,-1.25 26.6,-70.48 -1.94,-143.69" /><path
         id="path244"
         style="fill:#8c68bb;fill-opacity:1;fill-rule:nonzero;stroke:none"
         d="m 2218.91,2182.36 c 0.3,1.44 -1.76,1.93 -2.14,0.45 -7.74,-29.74 -16.57,-60.4 -21.21,-90.97 -1.2,-7.83 -2.23,-15.62 -2.9,-23.45 1.5,4.91 4.11,13.62 8.1,25.06 4.03,29.84 12,58.98 18.15,88.91" /><path
         id="path246"
         style="fill:#8c68bb;fill-opacity:1;fill-rule:nonzero;stroke:none"
         d="m 2181.84,2100.33 c -4.67,29.34 -1.59,57.61 7.34,84.42 0.64,1.9 -2.04,2.43 -2.77,0.63 -10.13,-25.29 -14.42,-52.11 -10.86,-80.3 0.31,-2.37 0.64,-4.78 1.03,-7.21 6.54,-21.01 14.79,-34.1 14.67,-34.08 0,0 0.17,0.54 0.48,1.54 -4.55,11.83 -8.07,23.54 -9.89,35" /><path
         id="path248"
         style="fill:#8c68bb;fill-opacity:1;fill-rule:nonzero;stroke:none"
         d="m 2191.25,2063.79 c 0.01,0 0.97,3.14 2.71,8.83 -1.7,13.07 -2.18,25.91 -1.35,38.16 2.04,30.09 10.78,58.67 17.4,87.12 0.32,1.36 -1.44,1.75 -1.98,0.44 -11.45,-27.42 -18.52,-56.45 -20.69,-86.57 -0.98,-13.37 -1.24,-27.3 0.44,-41.56 2.11,-4.13 3.48,-6.42 3.47,-6.42" /><path
         id="path250"
         style="fill:#8c68bb;fill-opacity:1;fill-rule:nonzero;stroke:none"
         d="m 2054.45,2111.85 c 73.46,-33.87 136.58,-46.48 135.54,-48.76 0.42,2.45 -32.44,76.65 -103.36,110.63 -71.71,33.87 -132.41,63.14 -131.2,65.1 -1.85,-1.73 24.71,-93.18 99.02,-126.97" /><path
         id="path252"
         style="fill:#8c68bb;fill-opacity:1;fill-rule:nonzero;stroke:none"
         d="m 2083.69,2117.35 c -1.25,0.83 -0.26,2.92 1.06,2.13 26.74,-15.78 55.09,-29 81.17,-43.61 6.69,-3.74 13.28,-7.46 19.71,-11.38 -4.66,1.52 -12.88,4.3 -24,7.85 -25.24,14.82 -52.04,27.76 -77.94,45.01" /><path
         id="path254"
         style="fill:#8c68bb;fill-opacity:1;fill-rule:nonzero;stroke:none"
         d="m 2167.68,2092.87 c -19.12,22.01 -41.22,38.4 -66.1,50.82 -1.76,0.88 -0.34,3.45 1.42,2.71 24.56,-10.34 46.29,-24.83 64.97,-45.27 1.57,-1.72 3.16,-3.49 4.74,-5.3 11.69,-18.33 17.24,-32.82 17.28,-32.74 0,0 -0.51,0.15 -1.46,0.46 -6.56,10.74 -13.37,20.71 -20.85,29.32" /><path
         id="path256"
         style="fill:#8c68bb;fill-opacity:1;fill-rule:nonzero;stroke:none"
         d="m 2189.99,2063.09 c 0,-0.01 -2.97,0.93 -8.38,2.72 -9.11,9.09 -18.57,17.33 -28.29,24.39 -23.83,17.34 -50.26,29.99 -74.99,46.31 -1.18,0.78 -0.28,2.52 1.02,1.96 27.15,-11.55 52.6,-25.92 76.43,-43.14 10.6,-7.65 21.26,-15.85 31.25,-25.53 1.96,-4.23 2.96,-6.71 2.96,-6.71" /><path
         id="path258"
         style="fill:#8c68bb;fill-opacity:1;fill-rule:nonzero;stroke:none"
         d="m 2307.71,2064.53 c -21.57,-76.09 -39.45,-141.5 -37.34,-141.55 -2.29,-0.61 -49.28,70.44 -26.31,148.62 22.48,77.55 53.34,134.65 51.08,135.04 2.05,-1 33.65,-66.61 12.57,-142.11" /><path
         id="path260"
         style="fill:#8c68bb;fill-opacity:1;fill-rule:nonzero;stroke:none"
         d="m 2285.96,2043.28 c 0.16,1.46 -1.94,1.72 -2.19,0.21 -4.71,-30.25 -10.42,-61.53 -11.94,-92.29 -0.4,-7.88 -0.65,-15.7 -0.51,-23.52 1,5.02 2.72,13.93 5.54,25.68 0.99,29.97 5.99,59.65 9.1,89.92" /><path
         id="path262"
         style="fill:#8c68bb;fill-opacity:1;fill-rule:nonzero;stroke:none"
         d="m 2257.25,1958.12 c -7.65,28.52 -7.43,56.81 -1.22,84.28 0.44,1.95 -2.3,2.19 -2.83,0.33 -7.56,-26.1 -9.13,-53.09 -2.71,-80.58 0.55,-2.32 1.12,-4.67 1.76,-7.03 8.67,-20.09 18.25,-32.15 18.12,-32.14 0,0 0.12,0.55 0.33,1.57 -5.75,11.21 -10.46,22.43 -13.45,33.57" /><path
         id="path264"
         style="fill:#8c68bb;fill-opacity:1;fill-rule:nonzero;stroke:none"
         d="m 2270.37,1922.98 c 0.02,0 0.65,3.2 1.81,9.03 -3.03,12.75 -4.81,25.4 -5.22,37.62 -1.02,29.99 4.81,59.2 8.54,88.04 0.18,1.38 -1.61,1.57 -2.02,0.22 -8.67,-28.34 -12.78,-57.82 -11.89,-87.85 0.38,-13.34 1.54,-27.15 4.66,-41.09 2.53,-3.86 4.13,-5.97 4.12,-5.97" /><path
         id="path266"
         style="fill:#8c68bb;fill-opacity:1;fill-rule:nonzero;stroke:none"
         d="m 2128.82,1955.69 c 76.82,-25.5 141.18,-31.18 140.37,-33.54 0.17,2.47 -40.22,72.36 -114.48,98.18 -75.05,25.65 -138.61,47.86 -137.6,49.92 -1.68,-1.9 34.06,-89.22 111.71,-114.56" /><path
         id="path268"
         style="fill:#8c68bb;fill-opacity:1;fill-rule:nonzero;stroke:none"
         d="m 2157.47,1964.3 c -1.32,0.68 -0.56,2.86 0.85,2.22 28.3,-12.69 57.98,-22.69 85.52,-34.33 7.06,-2.97 14.02,-5.94 20.85,-9.13 -4.8,1 -13.3,2.86 -24.77,5.17 -26.74,11.94 -54.82,21.83 -82.45,36.07" /><path
         id="path270"
         style="fill:#8c68bb;fill-opacity:1;fill-rule:nonzero;stroke:none"
         d="m 2243.87,1949.2 c -21.34,19.72 -45.08,33.52 -71.19,43.09 -1.85,0.68 -0.68,3.37 1.14,2.83 25.58,-7.55 48.76,-19.51 69.49,-37.71 1.75,-1.53 3.52,-3.11 5.28,-4.73 13.54,-16.87 20.57,-30.61 20.6,-30.53 0,0 -0.52,0.1 -1.5,0.29 -7.66,9.93 -15.48,19.06 -23.82,26.76" /><path
         id="path272"
         style="fill:#8c68bb;fill-opacity:1;fill-rule:nonzero;stroke:none"
         d="m 2269.19,1922.15 c -0.01,-0.01 -3.06,0.59 -8.64,1.78 -10.04,8.02 -20.33,15.14 -30.76,21.08 -25.57,14.57 -53.25,24.21 -79.61,37.65 -1.26,0.64 -0.53,2.46 0.82,2.05 28.29,-8.47 55.17,-19.91 80.73,-34.36 11.36,-6.42 22.85,-13.38 33.82,-21.89 2.39,-3.96 3.64,-6.31 3.64,-6.31" /><path
         id="path274"
         style="fill:#8c68bb;fill-opacity:1;fill-rule:nonzero;stroke:none"
         d="m 2391.03,1930.06 c -13.37,-77.76 -24.13,-144.6 -22,-144.41 -2.24,-0.86 -56.94,64.26 -42.36,144.2 14.14,79.26 38.89,139.19 36.59,139.33 2.15,-0.76 40.7,-61.99 27.77,-139.12" /><path
         id="path276"
         style="fill:#8c68bb;fill-opacity:1;fill-rule:nonzero;stroke:none"
         d="m 2371.59,1906.56 c 0,1.46 -2.14,1.48 -2.21,-0.04 -1.46,-30.47 -3.79,-62.1 -1.96,-92.74 0.44,-7.86 1.06,-15.63 2.04,-23.37 0.46,5.09 1.21,14.11 2.75,26.07 -2.27,29.8 -0.47,59.77 -0.62,90.08" /><path
         id="path278"
         style="fill:#8c68bb;fill-opacity:1;fill-rule:nonzero;stroke:none"
         d="m 2352.09,1818.99 c -10.74,27.39 -13.58,55.42 -10.32,83.32 0.23,1.97 -2.53,1.9 -2.87,-0.01 -4.75,-26.68 -3.41,-53.58 6,-80.09 0.79,-2.23 1.63,-4.49 2.52,-6.76 10.84,-18.91 21.73,-29.79 21.61,-29.8 0,0 0.06,0.56 0.15,1.59 -6.97,10.46 -12.9,21.05 -17.09,31.75" /><path
         id="path280"
         style="fill:#8c68bb;fill-opacity:1;fill-rule:nonzero;stroke:none"
         d="m 2369.03,1785.65 c 0.01,0 0.3,3.25 0.82,9.15 -4.42,12.29 -7.57,24.63 -9.31,36.68 -4.27,29.6 -1.58,59.18 -0.96,88.14 0.03,1.39 -1.77,1.37 -2.05,-0.01 -5.6,-29.04 -6.53,-58.68 -2.4,-88.33 1.83,-13.17 4.48,-26.72 9.13,-40.17 2.95,-3.55 4.78,-5.46 4.77,-5.46" /><path
         id="path282"
         style="fill:#8c68bb;fill-opacity:1;fill-rule:nonzero;stroke:none"
         d="m 2223.99,1802.08 c 79.51,-16.55 144.5,-14.96 143.94,-17.39 -0.1,2.47 -48.08,67.19 -125.03,84.3 -77.72,16.87 -143.55,31.55 -142.76,33.71 -1.48,-2.06 43.51,-84.29 123.85,-100.62" /><path
         id="path284"
         style="fill:#8c68bb;fill-opacity:1;fill-rule:nonzero;stroke:none"
         d="m 2251.69,1813.85 c -1.39,0.53 -0.87,2.76 0.62,2.29 29.65,-9.36 60.38,-15.92 89.18,-24.35 7.39,-2.15 14.67,-4.31 21.84,-6.7 -4.91,0.45 -13.61,1.34 -25.34,2.33 -28.02,8.82 -57.16,15.46 -86.3,26.43" /><path
         id="path286"
         style="fill:#8c68bb;fill-opacity:1;fill-rule:nonzero;stroke:none"
         d="m 2339.68,1808.64 c -23.48,17.13 -48.68,28.11 -75.8,34.63 -1.93,0.47 -1.05,3.26 0.83,2.93 26.38,-4.57 50.82,-13.8 73.53,-29.49 1.91,-1.32 3.84,-2.68 5.78,-4.09 15.37,-15.18 23.89,-28.01 23.91,-27.93 0,0 -0.53,0.04 -1.54,0.13 -8.72,8.97 -17.54,17.14 -26.71,23.82" /><path
         id="path288"
         style="fill:#8c68bb;fill-opacity:1;fill-rule:nonzero;stroke:none"
         d="m 2367.93,1784.69 c 0,-0.01 -3.13,0.24 -8.83,0.8 -10.91,6.82 -21.98,12.71 -33.04,17.42 -27.14,11.55 -55.85,17.97 -83.63,28.29 -1.32,0.5 -0.8,2.37 0.6,2.12 29.17,-5.18 57.27,-13.46 84.39,-24.9 12.05,-5.08 24.29,-10.68 36.18,-17.88 2.82,-3.66 4.33,-5.85 4.33,-5.85" /><path
         id="path290"
         style="fill:#8c68bb;fill-opacity:1;fill-rule:nonzero;stroke:none"
         d="m 2483.92,1811.88 c -5.27,-78.57 -8.98,-146.08 -6.87,-145.66 -2.16,-1.09 -63.81,57.75 -57.51,138.58 5.92,80.13 24.52,142.17 22.2,142.05 2.24,-0.51 47.06,-57.05 42.18,-134.97" /><path
         id="path292"
         style="fill:#8c68bb;fill-opacity:1;fill-rule:nonzero;stroke:none"
         d="m 2466.92,1786.5 c -0.17,1.45 -2.3,1.24 -2.21,-0.28 1.72,-30.39 2.71,-62.02 7.75,-92.25 1.29,-7.74 2.72,-15.4 4.53,-22.98 -0.09,5.11 -0.29,14.13 0,26.17 -5.4,29.35 -6.75,59.28 -10.07,89.34" /><path
         id="path294"
         style="fill:#8c68bb;fill-opacity:1;fill-rule:nonzero;stroke:none"
         d="m 2456.58,1697.51 c -13.65,26.05 -19.42,53.57 -19.07,81.58 0.02,2 -2.72,1.62 -2.87,-0.3 -1.96,-26.98 2.19,-53.53 14.39,-78.84 1.02,-2.13 2.11,-4.29 3.23,-6.44 12.86,-17.63 24.92,-27.27 24.79,-27.29 0,-0.01 0,0.55 -0.02,1.59 -8.08,9.65 -15.13,19.53 -20.45,29.7" /><path
         id="path296"
         style="fill:#8c68bb;fill-opacity:1;fill-rule:nonzero;stroke:none"
         d="m 2477.05,1666.22 c 0.01,0 -0.04,3.25 -0.14,9.17 -5.73,11.74 -10.18,23.64 -13.19,35.42 -7.38,28.92 -7.79,58.56 -10.18,87.37 -0.12,1.37 -1.93,1.17 -2.05,-0.24 -2.59,-29.4 -0.42,-58.91 6.83,-87.9 3.22,-12.88 7.3,-26.04 13.37,-38.91 3.33,-3.21 5.37,-4.91 5.36,-4.91" /><path
         id="path298"
         style="fill:#8c68bb;fill-opacity:1;fill-rule:nonzero;stroke:none"
         d="m 2330.09,1667.1 c 81.3,-7.94 146.27,0.51 145.97,-1.95 -0.38,2.45 -55.27,61.6 -134.01,70.34 -79.51,8.42 -146.82,15.89 -146.26,18.12 -1.27,-2.19 52.18,-78.86 134.3,-86.51" /><path
         id="path300"
         style="fill:#8c68bb;fill-opacity:1;fill-rule:nonzero;stroke:none"
         d="m 2356.6,1681.73 c -1.46,0.37 -1.17,2.65 0.37,2.34 30.64,-6.13 62.12,-9.38 91.84,-14.68 7.63,-1.35 15.16,-2.71 22.6,-4.33 -4.98,-0.08 -13.79,-0.12 -25.64,-0.37 -29,5.78 -58.86,9.26 -89.17,17.04" /><path
         id="path302"
         style="fill:#8c68bb;fill-opacity:1;fill-rule:nonzero;stroke:none"
         d="m 2445.23,1685.93 c -25.3,14.5 -51.69,22.72 -79.51,26.29 -1.98,0.25 -1.39,3.12 0.52,3 26.88,-1.73 52.31,-8.28 76.69,-21.43 2.06,-1.12 4.14,-2.26 6.22,-3.45 17,-13.44 26.9,-25.27 26.91,-25.19 0,0 -0.55,-0.02 -1.55,-0.04 -9.7,7.98 -19.39,15.16 -29.28,20.82" /><path
         id="path304"
         style="fill:#8c68bb;fill-opacity:1;fill-rule:nonzero;stroke:none"
         d="m 2476.06,1665.15 c 0,-0.01 -3.17,-0.09 -8.95,-0.14 -11.64,5.6 -23.34,10.28 -34.92,13.78 -28.4,8.58 -57.8,11.89 -86.67,19.17 -1.39,0.34 -1.05,2.26 0.37,2.16 29.74,-2.02 58.72,-7.25 87.08,-15.72 12.61,-3.76 25.46,-8.02 38.13,-13.9 3.21,-3.34 4.96,-5.35 4.96,-5.35" /><path
         id="path306"
         style="fill:#6a4caa;fill-opacity:1;fill-rule:nonzero;stroke:none"
         d="m 3257.87,1138.09 c 106.74,-65.6 244.62,-62.65 361.59,-18.3 116.96,44.35 216.46,125.53 308.08,211.35 30.95,29 61.98,59.69 79.26,98.6 17.27,38.9 17.91,88.25 -9.13,120.98 -62.32,75.47 -193.29,4.45 -277.99,52.78 -9.3,55.15 32.47,107.65 81.68,133.28 49.21,25.63 105.61,32.23 158.82,47.67 53.2,15.44 107.77,43.98 130.34,95.07 22.58,51.09 -6.66,125.29 -61.94,128.19 -35.22,1.86 -76.02,-22.52 -102.34,1.2 -20.44,18.43 -13.12,54.38 6.57,73.64 19.67,19.25 47.27,27.07 72.65,37.48 94.43,38.69 169.11,123.48 196.22,222.74 16.44,60.16 8.17,138.3 -47.5,165.29 -65.28,31.65 -135.52,-29.49 -182.73,-84.98 -65.71,-77.24 -131.43,-154.48 -197.14,-231.72 -29.66,-34.87 -86.78,-69.7 -113.17,-32.25 -21.22,30.1 7.71,75.05 -8.67,108.09 -16.44,33.19 -66.4,30.14 -96.55,8.95 -61.29,-43.07 -76.64,-127.28 -79.75,-202.66 -3.12,-75.38 -0.68,-156.31 -41.96,-219.17 -41.28,-62.86 -147.96,-85.56 -186.71,-21.07 -15.12,25.16 -15.87,56.17 -22.99,84.71 -7.12,28.54 -25.9,58.81 -54.94,61.16 -33.37,2.69 -56.86,-31.8 -70.57,-62.67 -120.11,-270.42 -53.2,-573.62 158.87,-778.36" /><path
         id="path308"
         style="fill:none;stroke:#251c12;stroke-width:5;stroke-linecap:butt;stroke-linejoin:miter;stroke-miterlimit:10;stroke-dasharray:none;stroke-opacity:1"
         d="m 3234.02,1212.22 c 282.72,414.25 472.58,692.41 755.3,1106.66" /><path
         id="path310"
         style="fill:none;stroke:#251c12;stroke-width:5;stroke-linecap:butt;stroke-linejoin:miter;stroke-miterlimit:10;stroke-dasharray:none;stroke-opacity:1"
         d="m 3622.3,1781.13 c 0,0 -56.83,166.41 -61.6,330.71" /><path
         id="path312"
         style="fill:none;stroke:#251c12;stroke-width:5;stroke-linecap:butt;stroke-linejoin:miter;stroke-miterlimit:10;stroke-dasharray:none;stroke-opacity:1"
         d="m 3427.22,1482.17 c 0,0 89.69,-118.56 383.75,-61.99" /><path
         id="path314"
         style="fill:none;stroke:#251c12;stroke-width:5;stroke-linecap:butt;stroke-linejoin:miter;stroke-miterlimit:10;stroke-dasharray:none;stroke-opacity:1"
         d="m 3726.53,1929.93 c 0,0 60.23,-75.13 212.97,-26.12" /><path
         id="path316"
         style="fill:none;stroke:#251c12;stroke-width:5;stroke-linecap:butt;stroke-linejoin:miter;stroke-miterlimit:10;stroke-dasharray:none;stroke-opacity:1"
         d="m 3325.08,1345.65 c 0,0 -197.4,226.84 -148.98,399.58" /><path
         id="path326"
         style="fill:url(#linearGradient324);fill-opacity:1;fill-rule:evenodd;stroke:none"
         d="m 3885.94,1247.97 c 0,0 90.97,-103.4 112.07,-226.51 0,0 -193.26,83.7 -112.07,226.51" /><path
         id="path328"
         style="fill:#bc97ce;fill-opacity:1;fill-rule:evenodd;stroke:none"
         d="m 3882.69,1231.54 69.82,-96.83 -27.61,22.93 9.77,-27.87 14.63,-9.87 9.79,-16.38 v -18.06 h -6.58 l 16.2,-9.79 v -9.93 l -3.2,-4.89 h -21.06 l -14.67,16.41 -24.34,18.04 -24.39,26.32 v 26.23 l -8.07,29.51 9.71,54.18" /><path
         id="path330"
         style="fill:#140b11;fill-opacity:1;fill-rule:evenodd;stroke:none"
         d="m 4047.95,572.648 c 0.29,0.024 0.56,0.032 0.84,0.051 42.18,2.36 70.86,44.289 58.45,85.102 l -93.13,306.051 -427.44,180.638 -394.62,-14.74 -1972.14,-7.38 -485.914,-77.54 -82.062,-472.182 H 4047.95" /><path
         id="path332"
         style="fill:#bfe9e5;fill-opacity:1;fill-rule:evenodd;stroke:none"
         d="m 2817.83,1817.79 -83.24,-20.06 -40.17,-25.83 c 0,0 231.02,-47.4 468.43,-390.81 l 336.16,40.65 c 0,0 -209.92,244.65 -681.18,396.05" /><path
         id="path334"
         style="fill:#181b37;fill-opacity:1;fill-rule:evenodd;stroke:none"
         d="m 746.883,1536.6 -19.805,11.17 c -36.207,1.92 -160.918,-292.04 -108,-335.75 0,0 171.637,173.17 127.805,324.58" /><path
         id="path336"
         style="fill:#5241a2;fill-opacity:1;fill-rule:evenodd;stroke:none"
         d="m 4222.98,700.719 -4.62,-64.981 c -1.64,-23.097 -17.26,-42.758 -39.23,-49.359 v 0 c 0,0 -0.01,0 -0.03,0 -57.17,-17.16 -116.16,20.16 -126.35,79.551 -20.92,121.968 -94.44,308.32 -348.48,305.422 C 3346.26,982.43 3363.18,598.641 3363.18,598.641 H 1364.65 c 0,0 21.5,389.597 -391.111,372.711 C 627.559,958.34 675.555,554.328 675.555,554.328 l -51.192,14.731 c 0,0 -19.871,124.742 -37.48,242.902 -13.285,89.148 -9.594,179.73 7.828,268.149 2.519,12.78 4.109,26.04 4.109,39.14 0,0 83.973,450.6 244.778,620.43 21.39,40.88 -96.422,47.55 -74.18,78.2 23.52,3.12 1377.022,177.7 2048.442,-0.1 l -83.22,-20.01 c 0,0 296.71,-113.48 439.21,-394.12 l 328.74,36.9 c 179.22,-40.88 368.56,-76.37 508.6,-175.23 72.38,-50.98 131.44,-118.85 169.32,-213.19 0.34,-0.85 0.68,-1.71 1.03,-2.57 10.76,-27.4 15.65,-56.822 15.26,-86.31 l -3.09,-232.949 29.27,-29.582" /><path
         id="path338"
         style="fill:#23193b;fill-opacity:1;fill-rule:evenodd;stroke:none"
         d="M 4229.79,754.422 4219.12,635.781 C 4217.03,612.582 4201.18,593 4179.1,586.34 v 0 c 0,0 -0.01,0 -0.02,-0.008 -57.21,-17.113 -116.18,20.227 -126.37,79.637 -20.93,121.953 -94.44,308.261 -348.43,305.351 -358.03,11.059 -341.12,-372.629 -341.12,-372.629 L 1364.64,598.66 c 0,0 21.51,389.539 -391.132,372.66 C 627.563,958.301 675.531,554.301 675.531,554.301 l -85.468,21.539 c 0,0 -18.571,119.609 -36.067,233.922 21.031,6.328 75.188,10.949 80.012,11.828 58.621,187.79 212.426,284.43 373.712,294.42 287.84,17.82 414.78,-281.272 444.8,-445.639 524.57,2.641 1287.36,5.219 1785.47,7.719 100.53,578.09 674.06,540.12 889.9,142.531 0,0 24.09,-1.871 50.81,-4.301 31.03,-2.808 53.91,-30.558 51.09,-61.898" /><path
         id="path340"
         style="fill:#bfe9e5;fill-opacity:1;fill-rule:evenodd;stroke:none"
         d="m 3075,1386.44 c -51.1,93.77 -344.81,403.64 -777.67,419.3 -75.65,2.73 -150.95,3.59 -224.4,3.1 l -29.33,-422.4 z m -1970.6,360.8 C 995.398,1737.73 965.891,1492.52 949.094,1386.44 H 1966.22 l 44.41,422.06 c -143.34,-1.84 -776.69,-11.33 -906.23,-61.26 v 0" /><path
         id="path342"
         style="fill:#23193b;fill-opacity:1;fill-rule:evenodd;stroke:none"
         d="m 2995.32,1495.65 c 0,0 -43.82,-81.22 14.66,-147.7 0,0 204.58,81.22 -14.66,147.7" /><path
         id="path344"
         style="fill:#ffffff;fill-opacity:1;fill-rule:evenodd;stroke:none"
         d="m 4180.51,1052.13 c -65.65,-39.9 -182.2,53.25 -211.67,103.26 -32.35,54.54 -31.82,113.27 42.35,109.93 72.38,-50.98 131.44,-118.85 169.32,-213.19" /><path
         id="path346"
         style="fill:#23193b;fill-opacity:1;fill-rule:evenodd;stroke:none"
         d="m 2054.7,1270.43 -0.04,13.05 c -0.07,12.04 7.24,21.84 16.31,21.91 l 194.04,1.08 c 9.08,0.06 16.48,-9.68 16.54,-21.71 l 0.05,-13.05 -226.9,-1.28" /><path
         id="path348"
         style="fill:#181b37;fill-opacity:1;fill-rule:evenodd;stroke:none"
         d="m 1295.97,1265.05 -0.05,13.03 c -0.05,12.05 7.27,21.86 16.33,21.91 l 194.03,1.08 c 9.08,0.05 16.48,-9.66 16.53,-21.71 l 0.06,-13.05 -226.9,-1.26" /><path
         id="path350"
         style="fill:#13141a;fill-opacity:1;fill-rule:evenodd;stroke:none"
         d="m 3839.1,504.41 v 0 c -77.43,-79.039 -203.59,-79.672 -281.79,-1.41 -78.2,78.25 -78.82,205.77 -1.41,284.801 77.44,79.039 203.6,79.668 281.8,1.418 78.2,-78.25 78.83,-205.77 1.4,-284.809 z m -334.07,-54.781 c 107.37,-107.438 280.57,-106.559 386.87,1.949 106.3,108.524 105.44,283.563 -1.92,391.012 -107.37,107.43 -280.56,106.57 -386.87,-1.942 -106.29,-108.519 -105.43,-283.578 1.92,-391.019 v 0" /><path
         id="path352"
         style="fill:#ffffff;fill-opacity:1;fill-rule:evenodd;stroke:none"
         d="m 3696.39,874.629 c 124.84,0.633 226.58,-101.18 227.21,-227.367 0.62,-126.211 -100.1,-229.043 -224.97,-229.66 -124.86,-0.633 -226.6,101.187 -227.21,227.378 -0.63,126.192 100.11,229.032 224.97,229.649" /><path
         id="path354"
         style="fill:#13141a;fill-opacity:1;fill-rule:evenodd;stroke:none"
         d="m 3696.52,847.449 c -110.01,-0.558 -198.75,-91.14 -198.21,-202.328 0.55,-111.199 90.17,-200.891 200.18,-200.332 110.03,0.539 198.76,91.133 198.21,202.332 -0.54,111.188 -90.17,200.879 -200.18,200.328" /><path
         id="path356"
         style="fill:#5241a2;fill-opacity:1;fill-rule:evenodd;stroke:none"
         d="m 3737.43,592.02 c 26.93,27.5 26.71,71.851 -0.48,99.07 -27.21,27.211 -71.09,27 -98.01,-0.5 -26.93,-27.481 -26.72,-71.84 0.48,-99.059 27.19,-27.222 71.08,-26.992 98.01,0.489" /><path
         id="path358"
         style="fill:#ffffff;fill-opacity:1;fill-rule:evenodd;stroke:none"
         d="m 3674.89,608.359 26.93,0.153 18.95,19.328 -0.13,27.262 -19.14,19.148 -26.95,-0.141 -18.96,-19.347 0.14,-27.223 z m 0.13,-183.129 -12.59,152.352 -114.51,-99.891 -20.22,20.239 97.67,116.711 -150.84,11.211 -0.14,28.769 150.72,12.731 -98.81,115.718 20.01,20.442 115.49,-98.711 11.08,152.461 28.46,0.129 12.59,-152.34 114.51,99.879 20.23,-20.239 -97.68,-116.722 150.84,-11.207 0.15,-28.762 -150.74,-12.73 98.82,-115.731 -20.02,-20.437 -115.48,98.726 -11.08,-152.457 -28.46,-0.141 v 0" /><path
         id="path360"
         style="fill:#13141a;fill-opacity:1;fill-rule:evenodd;stroke:none"
         d="m 1150.35,504.41 v 0 C 1072.92,425.371 946.758,424.738 868.559,503 c -78.196,78.25 -78.825,205.77 -1.403,284.801 77.434,79.039 203.584,79.668 281.794,1.418 78.2,-78.25 78.83,-205.77 1.4,-284.809 z M 816.281,449.629 c 107.36,-107.438 280.559,-106.559 386.859,1.949 106.3,108.524 105.45,283.563 -1.92,391.012 C 1093.86,950.02 920.66,949.16 814.363,840.648 708.066,732.129 708.93,557.07 816.281,449.629 v 0" /><path
         id="path362"
         style="fill:#ffffff;fill-opacity:1;fill-rule:evenodd;stroke:none"
         d="m 1007.64,874.629 c 124.84,0.633 226.58,-101.18 227.21,-227.367 0.62,-126.211 -100.11,-229.043 -224.98,-229.66 -124.85,-0.633 -226.585,101.187 -227.206,227.378 -0.621,126.192 100.109,229.032 224.976,229.649" /><path
         id="path364"
         style="fill:#13141a;fill-opacity:1;fill-rule:evenodd;stroke:none"
         d="M 1007.77,847.449 C 897.754,846.891 809.012,756.309 809.555,645.121 810.105,533.922 899.73,444.23 1009.74,444.789 c 110.02,0.539 198.76,91.133 198.21,202.332 -0.54,111.188 -90.18,200.879 -200.18,200.328" /><path
         id="path366"
         style="fill:#436b4f;fill-opacity:1;fill-rule:evenodd;stroke:none"
         d="m 1048.68,592.02 c 26.92,27.5 26.71,71.851 -0.49,99.07 -27.2,27.211 -71.077,27 -98.006,-0.5 -26.93,-27.481 -26.715,-71.84 0.484,-99.059 27.191,-27.222 71.082,-26.992 98.012,0.489" /><path
         id="path368"
         style="fill:#ffffff;fill-opacity:1;fill-rule:evenodd;stroke:none"
         d="m 986.133,608.359 26.927,0.153 18.95,19.328 -0.12,27.262 -19.15,19.148 -26.939,-0.141 -18.965,-19.347 0.137,-27.223 z m 0.137,-183.129 -12.598,152.352 -114.504,-99.891 -20.223,20.239 97.672,116.711 -150.836,11.211 -0.148,28.769 150.719,12.731 -98.805,115.718 20.016,20.442 115.488,-98.711 11.082,152.461 28.457,0.129 12.59,-152.34 114.51,99.879 20.23,-20.239 -97.69,-116.722 150.84,-11.207 0.15,-28.762 -150.73,-12.73 98.82,-115.731 -20.02,-20.437 -115.48,98.726 -11.09,-152.457 -28.45,-0.141 v 0" /><path
         id="path370"
         style="fill:#5a3fa1;fill-opacity:1;fill-rule:nonzero;stroke:none"
         d="m 1035.41,439.52 c 54.11,85.699 56.37,199.57 26,297.691 -30.37,98.117 -89.73,183.16 -152.93,261.879 -21.347,26.6 -44.003,53.31 -73.453,68.98 -29.449,15.66 -67.496,17.99 -93.636,-3.13 -60.266,-48.69 -9.782,-159.331 -49.848,-227.46 -42.859,-5.66 -81.988,30.711 -100.145,72.239 -18.152,41.531 -21.39,88.312 -31.55,132.771 -10.168,44.47 -30.391,90.53 -69.059,111.01 -38.672,20.48 -96.875,-0.95 -100.937,-46.46 -2.586,-28.98 14.882,-63.54 -4.286,-84.39 -14.89,-16.19 -42.382,-8.86 -56.593,8.08 -14.203,16.94 -19.332,39.99 -26.524,61.32 -26.754,79.32 -89.707,144.03 -165.394,170 C 91.1914,1277.79 30.6328,1273.81 7.98047,1228.86 -18.5859,1176.14 26.2773,1115.96 67.5313,1074.99 124.965,1017.97 182.395,960.941 239.824,903.922 c 25.922,-25.742 50.91,-74.141 21.156,-94.563 -23.921,-16.418 -57.64,9.09 -83.675,-3.23 -26.141,-12.359 -25.434,-53.699 -10.075,-79.34 31.215,-52.129 95.672,-67.848 153.723,-73.168 58.055,-5.312 120.563,-6.23 167.703,-42.57 47.145,-36.352 61.149,-125.192 10.125,-154.832 -19.906,-11.559 -43.855,-11.047 -66.105,-15.899 -22.258,-4.832 -46.227,-19.218 -48.992,-43.09 -3.172,-27.441 22.664,-48.089 46.027,-60.519 C 634.383,227.789 870.488,271.98 1035.41,439.52" /><path
         id="path372"
         style="fill:none;stroke:#251c12;stroke-width:5;stroke-linecap:butt;stroke-linejoin:miter;stroke-miterlimit:10;stroke-dasharray:none;stroke-opacity:1"
         d="M 977.434,422.531 C 667.148,670.871 458.797,837.621 148.504,1085.96" /><path
         id="path374"
         style="fill:none;stroke:#251c12;stroke-width:5;stroke-linecap:butt;stroke-linejoin:miter;stroke-miterlimit:10;stroke-dasharray:none;stroke-opacity:1"
         d="m 551.309,763.59 c 0,0 -130.25,-40.852 -257.164,-38.82" /><path
         id="path376"
         style="fill:none;stroke:#251c12;stroke-width:5;stroke-linecap:butt;stroke-linejoin:miter;stroke-miterlimit:10;stroke-dasharray:none;stroke-opacity:1"
         d="m 775.527,591.762 c 0,0 94.422,69.687 60.442,314.379" /><path
         id="path378"
         style="fill:none;stroke:#251c12;stroke-width:5;stroke-linecap:butt;stroke-linejoin:miter;stroke-miterlimit:10;stroke-dasharray:none;stroke-opacity:1"
         d="m 439.934,854.988 c 0,0 59.941,46.973 27.148,174.782" /><path
         id="path380"
         style="fill:none;stroke:#251c12;stroke-width:5;stroke-linecap:butt;stroke-linejoin:miter;stroke-miterlimit:10;stroke-dasharray:none;stroke-opacity:1"
         d="m 877.492,502.52 c 0,0 -181.488,-154.641 -313.152,-108.418" /><path
         id="path382"
         style="fill:#ffffff;fill-opacity:1;fill-rule:nonzero;stroke:none"
         d="M 2031.74,437.109 1035.15,232.641 c -61.88,-12.7 -122.798,28.078 -135.361,90.64 L 447.484,2575.27 c -12.562,62.55 27.793,124.12 89.684,136.82 l 996.582,204.47 c 61.89,12.7 122.81,-28.09 135.37,-90.64 l 452.3,-2251.99 c 12.57,-62.551 -27.79,-124.121 -89.68,-136.821" /><path
         id="path384"
         style="fill:#23193b;fill-opacity:1;fill-rule:nonzero;stroke:none"
         d="M 2094.48,596.762 C 2107.43,532.27 2063.42,468.801 1996.17,455 L 1058.63,262.641 c -67.251,-13.801 -132.263,27.3 -145.22,91.8 L 470.145,2561.41 c -12.954,64.5 31.066,127.98 98.32,141.78 l 215.894,44.3 c 19.536,4 38.422,-7.93 42.184,-26.67 l 0.441,-2.19 v 0 c 5.957,-29.67 35.86,-48.58 66.793,-42.23 l 345.503,70.89 c 30.93,6.35 51.17,35.54 45.22,65.21 -0.15,0.74 -0.38,1.44 -0.56,2.17 l 0.12,0.03 v 0 c -3.77,18.73 9.02,37.16 28.55,41.17 l 193.38,39.67 c 67.25,13.8 132.27,-27.3 145.22,-91.79 z M 1498.18,2934.45 560.645,2742.09 c -89.512,-18.37 -148.301,-103.15 -131.063,-189 L 872.844,346.121 c 17.242,-85.84 104.09,-140.75 193.606,-122.383 l 937.53,192.364 c 89.51,18.359 148.3,103.148 131.06,188.98 L 1691.78,2812.06 c -17.25,85.85 -104.09,140.75 -193.6,122.39" /><g
         id="g386"><g
           clip-path="url(#clipPath392)"
           id="g388"><path
             id="path394"
             style="fill:#e7d5ed;fill-opacity:1;fill-rule:nonzero;stroke:none"
             d="M 2100.03,578.859 921.77,335.059 559.773,2122.31 1738.04,2366.11 2100.03,578.859" /><path
             id="path396"
             style="fill:#b29ed6;fill-opacity:1;fill-rule:nonzero;stroke:none"
             d="m 1048.52,1486.42 -356.575,-73.78 -69.343,342.39 356.566,73.77 69.352,-342.38" /><path
             id="path398"
             style="fill:#5c52ad;fill-opacity:1;fill-rule:nonzero;stroke:none"
             d="M 1411.33,827.828 976.418,737.84 863.32,1296.22 l 434.92,89.99 113.09,-558.382" /><path
             id="path400"
             style="fill:#b29ed6;fill-opacity:1;fill-rule:nonzero;stroke:none"
             d="m 1456.43,1826.43 c 16.25,-80.25 -34.94,-158.63 -114.33,-175.05 -79.4,-16.43 -156.95,35.31 -173.2,115.56 -16.26,80.24 34.94,158.62 114.34,175.05 79.4,16.42 156.93,-35.31 173.19,-115.56" /><path
             id="path402"
             style="fill:#5c52ad;fill-opacity:1;fill-rule:nonzero;stroke:none"
             d="m 1246.31,2258.68 c 14.06,-69.41 -30.21,-137.19 -98.88,-151.4 -68.67,-14.21 -135.74,30.54 -149.793,99.94 -14.059,69.41 30.213,137.19 98.883,151.4 68.67,14.21 135.73,-30.54 149.79,-99.94" /><path
             id="path404"
             style="fill:#b29ed6;fill-opacity:1;fill-rule:nonzero;stroke:none"
             d="m 1940.9,1364.55 -425.46,-88.03 -52.97,261.55 425.45,88.03 52.98,-261.55" /><path
             id="path406"
             style="fill:#b29ed6;fill-opacity:1;fill-rule:nonzero;stroke:none"
             d="m 1783.35,2170.36 -294.72,-60.98 -39.88,196.87 294.72,60.98 39.88,-196.87" /><path
             id="path408"
             style="fill:#5c52ad;fill-opacity:1;fill-rule:nonzero;stroke:none"
             d="m 853.836,1975.51 -294.719,-60.98 -63.629,314.18 294.715,60.97 63.633,-314.17" /><path
             id="path410"
             style="fill:#b29ed6;fill-opacity:1;fill-rule:nonzero;stroke:none"
             d="m 1530.62,1680.22 v 0 0 0 0" /><path
             id="path412"
             style="fill:#5c52ad;fill-opacity:1;fill-rule:nonzero;stroke:none"
             d="m 1863.03,1749 -182.17,-37.69 -50.15,247.62 182.16,37.69 50.16,-247.62" /><path
             id="path414"
             style="fill:#5c52ad;fill-opacity:1;fill-rule:nonzero;stroke:none"
             d="m 2014.47,1001.29 -411.83,-85.212 -46.36,228.852 411.84,85.21 46.35,-228.85" /></g></g><path
         id="path416"
         style="fill:#5241a2;fill-opacity:1;fill-rule:evenodd;stroke:none"
         d="m 1743.23,503.07 -431.37,-89.25 c -43.8,-9.058 -86.56,19.469 -95.53,63.739 l -1.18,5.812 c -8.97,44.27 19.27,87.5 63.07,96.559 l 431.36,89.25 c 43.79,9.058 86.57,-19.469 95.53,-63.739 l 1.18,-5.82 c 8.96,-44.262 -19.27,-87.492 -63.06,-96.551" /><g
         transform="scale(10)"
         id="g418"><text
           id="text426"
           style="font-variant:normal;font-weight:normal;font-size:7.45376396px;font-family:MyriadPro;-inkscape-font-specification:MyriadPro-Regular;writing-mode:lr-tb;fill:#ffffff;fill-opacity:1;fill-rule:nonzero;stroke:none"
           transform="matrix(0.97172693,0.18813571,0.18614045,-0.98214304,144.621,50.6672)"><tspan
             id="tspan420"
             y="0"
             x="0">s</tspan><tspan
             id="tspan422"
             y="0.00060627342"
             x="2.9515023">t</tspan><tspan
             id="tspan424"
             y="-5.344396e-05"
             x="5.4188437 9.0115585 11.627505">art</tspan></text>
</g><path
         id="path428"
         style="fill:#5241a2;fill-opacity:1;fill-rule:evenodd;stroke:none"
         d="m 840.145,2295.83 -185.497,-38.51 -38.093,187.49 185.5,38.5 38.09,-187.48" /><path
         id="path430"
         style="fill:none;stroke:#5c52ad;stroke-width:10;stroke-linecap:round;stroke-linejoin:miter;stroke-miterlimit:10;stroke-dasharray:none;stroke-opacity:1"
         d="m 867.645,2461.7 503.045,104.4" /><path
         id="path432"
         style="fill:none;stroke:#5c52ad;stroke-width:10;stroke-linecap:round;stroke-linejoin:miter;stroke-miterlimit:10;stroke-dasharray:none;stroke-opacity:1"
         d="m 879.824,2401.75 405.416,84.15" /><path
         id="path434"
         style="fill:none;stroke:#5c52ad;stroke-width:10;stroke-linecap:round;stroke-linejoin:miter;stroke-miterlimit:10;stroke-dasharray:none;stroke-opacity:1"
         d="m 892,2341.82 210.16,43.62" /><path
         id="path436"
         style="fill:none;stroke:#5c52ad;stroke-width:10;stroke-linecap:round;stroke-linejoin:miter;stroke-miterlimit:10;stroke-dasharray:none;stroke-opacity:1"
         d="m 1023.28,732.941 838.68,163.27" /><path
         id="path438"
         style="fill:none;stroke:#5c52ad;stroke-width:10;stroke-linecap:round;stroke-linejoin:miter;stroke-miterlimit:10;stroke-dasharray:none;stroke-opacity:1"
         d="m 1111.91,689.02 645.58,125.679" /><path
         id="path440"
         style="fill:none;stroke:#5c52ad;stroke-width:10;stroke-linecap:round;stroke-linejoin:miter;stroke-miterlimit:10;stroke-dasharray:none;stroke-opacity:1"
         d="m 1303.8,653.082 351.97,68.52" /><path
         id="path442"
         style="fill:#ffffff;fill-opacity:1;fill-rule:nonzero;stroke:none"
         d="m 1896.98,2010.31 c 16.08,0 16.11,25 0,25 -16.09,0 -16.11,-25 0,-25 v 0" /><path
         id="path444"
         style="fill:#ffffff;fill-opacity:1;fill-rule:nonzero;stroke:none"
         d="m 1896.98,1946.64 c 8.04,0 8.06,12.5 0,12.5 -8.04,0 -8.06,-12.5 0,-12.5 v 0" /><path
         id="path446"
         style="fill:#ffffff;fill-opacity:1;fill-rule:nonzero;stroke:none"
         d="m 3676.31,2428.18 c 16.1,0 16.12,25 0,25 -16.08,0 -16.11,-25 0,-25 v 0" /><path
         id="path448"
         style="fill:#ffffff;fill-opacity:1;fill-rule:nonzero;stroke:none"
         d="m 3719.61,2379.9 c 8.04,0 8.06,12.5 0,12.5 -8.04,0 -8.05,-12.5 0,-12.5 v 0" /><path
         id="path450"
         style="fill:#ffffff;fill-opacity:1;fill-rule:nonzero;stroke:none"
         d="m 411.219,1403.55 c 16.09,0 16.113,25 0,25 -16.082,0 -16.114,-25 0,-25 v 0" /><path
         id="path452"
         style="fill:#ffffff;fill-opacity:1;fill-rule:nonzero;stroke:none"
         d="m 472.414,1365.9 c 16.086,0 16.113,25 0,25 -16.09,0 -16.113,-25 0,-25 v 0" /><path
         id="path454"
         style="fill:#ffffff;fill-opacity:1;fill-rule:nonzero;stroke:none"
         d="m 411.219,1339.88 c 8.047,0 8.058,12.5 0,12.5 -8.043,0 -8.059,-12.5 0,-12.5 v 0" /><path
         id="path456"
         style="fill:#ffffff;fill-opacity:1;fill-rule:nonzero;stroke:none"
         d="m 1875.7,2791.54 c 16.08,0 16.11,25 0,25 -16.09,0 -16.12,-25 0,-25 v 0" /><path
         id="path458"
         style="fill:#ffffff;fill-opacity:1;fill-rule:nonzero;stroke:none"
         d="m 1836.82,2730.71 c 16.09,0 16.11,25 0,25 -16.08,0 -16.11,-25 0,-25 v 0" /><path
         id="path460"
         style="fill:#ffffff;fill-opacity:1;fill-rule:nonzero;stroke:none"
         d="m 1806.55,2799.66 c 8.04,0 8.05,12.5 0,12.5 -8.05,0 -8.06,-12.5 0,-12.5 v 0" /><path
         id="path462"
         style="fill:#ffffff;fill-opacity:1;fill-rule:nonzero;stroke:none"
         d="m 2934.71,2559.3 c 16.09,0 16.11,25 0,25 -16.08,0 -16.11,-25 0,-25 v 0" /><path
         id="path464"
         style="fill:#ffffff;fill-opacity:1;fill-rule:nonzero;stroke:none"
         d="m 2972.41,2497.73 c 16.08,0 16.11,25 0,25 -16.1,0 -16.12,-25 0,-25 v 0" /><path
         id="path466"
         style="fill:#ffffff;fill-opacity:1;fill-rule:nonzero;stroke:none"
         d="m 2903.38,2503.22 c 8.05,0 8.06,12.5 0,12.5 -8.03,0 -8.05,-12.5 0,-12.5 v 0" /><path
         id="path468"
         style="fill:#ffffff;fill-opacity:1;fill-rule:nonzero;stroke:none"
         d="m 4193.38,1260.99 c 16.09,0 16.12,25 0,25 -16.08,0 -16.11,-25 0,-25 v 0" /><path
         id="path470"
         style="fill:#ffffff;fill-opacity:1;fill-rule:nonzero;stroke:none"
         d="m 4123.29,1276 c 16.1,0 16.12,25 0,25 -16.08,0 -16.11,-25 0,-25 v 0" /><path
         id="path472"
         style="fill:#ffffff;fill-opacity:1;fill-rule:nonzero;stroke:none"
         d="m 4170.44,1333.2 c 8.05,0 8.06,12.5 0,12.5 -8.03,0 -8.05,-12.5 0,-12.5 v 0" /><path
         id="path474"
         style="fill:#ffffff;fill-opacity:1;fill-rule:nonzero;stroke:none"
         d="m 3318.67,428.91 c 16.08,0 16.11,25 0,25 -16.1,0 -16.12,-25 0,-25 v 0" /><path
         id="path476"
         style="fill:#ffffff;fill-opacity:1;fill-rule:nonzero;stroke:none"
         d="m 3365.8,486.121 c 8.05,0 8.06,12.5 0,12.5 -8.03,0 -8.05,-12.5 0,-12.5 v 0" /><path
         id="path478"
         style="fill:#ffffff;fill-opacity:1;fill-rule:nonzero;stroke:none"
         d="m 1155.37,162.512 c 16.09,0 16.11,25 0,25 -16.08,0 -16.11,-25 0,-25 v 0" /><path
         id="path480"
         style="fill:#ffffff;fill-opacity:1;fill-rule:nonzero;stroke:none"
         d="m 1089.05,148.91 c 8.04,0 8.05,12.5 0,12.5 -8.05,0 -8.06,-12.5 0,-12.5 v 0" /><path
         id="path482"
         style="fill:#5241a2;fill-opacity:1;fill-rule:nonzero;stroke:none"
         d="m 2608.92,2412.41 -211.97,411.92 c -61.76,171.66 64.02,353.16 244.74,353.16 v 0 c 180.73,0 306.51,-181.5 244.75,-353.16 l -211.97,-411.92 c -13.8,-26.81 -51.75,-26.81 -65.55,0" /><path
         id="path484"
         style="fill:#d4bee4;fill-opacity:1;fill-rule:nonzero;stroke:none"
         d="m 2786.43,2919.43 c 0,-80.78 -64.81,-146.27 -144.74,-146.27 -79.93,0 -144.72,65.49 -144.72,146.27 0,80.8 64.79,146.29 144.72,146.29 79.93,0 144.74,-65.49 144.74,-146.29" /><path
         id="path486"
         style="fill:#b29ed6;fill-opacity:1;fill-rule:nonzero;stroke:none"
         d="m 2786.43,2326.71 c 0,-9.82 -64.81,-17.77 -144.74,-17.77 -79.93,0 -144.72,7.95 -144.72,17.77 0,9.82 64.79,17.78 144.72,17.78 79.93,0 144.74,-7.96 144.74,-17.78" /></g></g></svg>