<?xml version="1.0" encoding="UTF-8" standalone="no"?>
<svg
   xmlns:dc="http://purl.org/dc/elements/1.1/"
   xmlns:cc="http://creativecommons.org/ns#"
   xmlns:rdf="http://www.w3.org/1999/02/22-rdf-syntax-ns#"
   xmlns:svg="http://www.w3.org/2000/svg"
   xmlns="http://www.w3.org/2000/svg"
   viewBox="0 0 1800 1200"
   height="1200"
   width="1800"
   xml:space="preserve"
   id="svg2"
   version="1.1"><metadata
     id="metadata8"><rdf:RDF><cc:Work
         rdf:about=""><dc:format>image/svg+xml</dc:format><dc:type
           rdf:resource="http://purl.org/dc/dcmitype/StillImage" /></cc:Work></rdf:RDF></metadata><defs
     id="defs6" /><g
     transform="matrix(1.3333333,0,0,-1.3333333,0,1200)"
     id="g10"><g
       transform="scale(0.1)"
       id="g12"><path
         id="path14"
         style="fill:#ffffff;fill-opacity:1;fill-rule:nonzero;stroke:none"
         d="M 0,0 H 13500 V 9000 H 0 Z" /><path
         id="path16"
         style="fill:#c0f6ff;fill-opacity:1;fill-rule:nonzero;stroke:none"
         d="m 12002.4,1488.36 c -133.4,412.08 -304.4,697.21 -287.4,1153.61 15.6,416.82 127.6,866.03 -85.5,1249.83 -234.5,422.22 -713.2,567.22 -1040.4,864.57 -731.36,664.9 240.7,1805.19 -589.31,2501.5 -461.24,386.95 -1085.47,211.46 -1602.02,161.75 -572.5,-55.09 -1195.99,-141.77 -1683.88,270.42 -363.87,307.42 -565.13,719 -1082.5,623.59 C 5065.13,8209.2 4319.51,7572.86 4032.15,7068.17 3659.78,6414.15 3650.51,5835.76 3028.57,5430.14 2566.78,5128.94 1892.42,4996.57 1750.11,4349.15 1593.71,3637.63 1949.27,2967.39 1929.24,2256.85 1921.62,1986.16 1642.38,617.391 1289.12,502.191 L 12061.4,430.723 c -142.5,278.718 48.1,726.887 -59,1057.637" /><path
         id="path18"
         style="fill:#686868;fill-opacity:1;fill-rule:nonzero;stroke:none"
         d="m 12684.6,414.949 c 0,-94.328 -2657,-170.777 -5934.6,-170.777 -3277.59,0 -5934.602,76.449 -5934.602,170.777 0,94.321 2657.012,170.774 5934.602,170.774 3277.6,0 5934.6,-76.453 5934.6,-170.774" /><path
         id="path20"
         style="fill:#ed7b14;fill-opacity:1;fill-rule:nonzero;stroke:none"
         d="m 8304.72,4839.04 c -16.68,179.94 -140.95,238.83 -283.94,398.39 l -506.32,78.31 c 327.19,-128.5 389.52,-503.32 303.88,-695.69 -81.84,-183.85 -375.96,-550.19 -709.31,-596.72 495.27,-105.1 919,187.03 1054.49,390.99 100.68,151.53 153.2,295.08 141.2,424.72" /><path
         id="path22"
         style="fill:#f9c44e;fill-opacity:1;fill-rule:nonzero;stroke:none"
         d="m 8286.79,4853.57 c 12.54,379.64 -689.58,739.57 -1231.42,458.31 -228.66,-118.7 -448.38,-424.48 -419.21,-635.53 16.61,-120.2 90.07,-486.73 405.32,-641.76 l 225.18,-33.77 c -228.67,137.58 -152.7,801.8 3.3,954.6 363.41,355.98 1022.53,70.68 1016.83,-101.85" /><path
         id="path24"
         style="fill:#ed7b14;fill-opacity:1;fill-rule:nonzero;stroke:none"
         d="m 6533.94,5199.78 c -195.99,38.52 -287.88,-45.96 -491.59,-116.58 l -201.8,-391.02 c 213.61,230.13 628.28,172.47 813.67,46.72 177.19,-120.15 449.16,-452.22 421.03,-738.08 227.8,374.24 65.29,790.74 -120.8,960.54 -138.28,126.15 -279.3,210.65 -420.51,238.42" /><path
         id="path26"
         style="fill:#f9c44e;fill-opacity:1;fill-rule:nonzero;stroke:none"
         d="m 6514.25,5189.34 c -402.39,120.25 -950.55,-349.15 -776.72,-873.41 73.35,-221.24 308.98,-367.23 541.11,-404.53 132.2,-21.23 454.9,-70.81 526.4,33.12 l 619.24,112.59 C 7224.04,3910.09 6294.92,4216.23 6168.15,4388 c -295.21,400.08 163.25,855.99 346.1,801.34" /><path
         id="path28"
         style="fill:#ed7b14;fill-opacity:1;fill-rule:nonzero;stroke:none"
         d="m 8415.57,4071.45 c 84.25,141.04 27.35,232.29 10.93,405.97 l -318.13,250.78 c 163.97,-220.38 8.13,-524.61 -155.5,-636.14 -156.36,-106.59 -466.6,-271.45 -728.45,-179.8 295.97,-266.63 658.72,-206.47 863.95,-105.22 152.49,75.25 266.49,162.79 327.2,264.41" /><path
         id="path30"
         style="fill:#f9c44e;fill-opacity:1;fill-rule:nonzero;stroke:none"
         d="m 8410.58,4089.1 c 211.7,279.47 -95.24,815.39 -630.62,810.45 -225.95,-2.12 -420.98,-147.24 -512.9,-316.31 -52.38,-96.27 -159.72,-430.19 -79.53,-510.57 l 89.9,-102.4 c -89.11,189.78 272.19,525.78 464.71,580.97 448.48,128.58 764.65,-335.13 668.44,-462.14" /><path
         id="path32"
         style="fill:#110f0f;fill-opacity:1;fill-rule:nonzero;stroke:none"
         d="m 1555.57,975.211 h 2259.39 l 4820.84,81.649 1379.1,242.44 208.9,-245.1 336.8,505.06 -892.99,910.59 L 6916.6,2367.43 4525.55,2154.7 2391.19,2367.43 1433.91,1999.98 1555.57,975.211" /><path
         id="path34"
         style="fill:#ff0d0d;fill-opacity:1;fill-rule:nonzero;stroke:none"
         d="m 8642.13,3068.01 -950.05,-31.51 c -59.49,-2.04 -106.26,50.6 -97.35,109.52 l 65.36,434.8 c 7.1,46.76 50.35,79.81 97.35,73.44 473.39,-64.8 782.03,-291.32 939.93,-441.32 54.11,-51.33 19.51,-142.65 -55.24,-144.93 z m -1368.78,556.55 -167.2,-602.58 -1814.51,-56.96 c 0,0 162.23,182.31 -127.14,245.62 0,0 685.66,623.16 2034.59,519.36 52.39,-3.77 88.3,-54.6 74.26,-105.44 z M 11316.9,1986.48 c 0,43.51 -21.3,84.22 -56.9,109.36 l -140.1,97.85 c 3.4,22.68 6.1,44.96 8.2,66.43 0.3,3.34 0.6,6.6 1,9.86 1.5,17.23 2.7,34.03 3.6,50.26 0.8,14.45 1.3,28.57 1.5,42.29 0.4,17.7 0.3,34.84 -0.1,51.33 -1.4,61.6 -7.6,114.81 -15.5,158.97 -1.7,9.61 -3.5,18.76 -5.3,27.48 -4.8,22.45 -9.9,42.04 -14.8,58.68 -8.5,29.21 -16.5,49.38 -21,59.98 -2.5,5.81 -4.1,8.66 -4.1,8.66 0,0 186.2,349.67 -842.2,335.07 -15.5,-0.22 -30.1,2.77 -43.8,4.08 -47.6,4.58 -93.6,17.71 -136,38.6 -26.7,12.98 -51.93,28.97 -75.26,47.82 -356.94,287.75 -739.6,488.66 -1125.51,625.1 -199.53,70.59 -399.95,123.96 -598.09,163.29 -478.2,94.91 -943.28,107.89 -1351.07,82.75 -588.37,-36.15 -1057.68,-151.45 -1275.73,-213.72 -32.57,-9.39 -64.88,-20.07 -96.38,-32.56 -47.57,-18.52 -93.6,-40.64 -138.08,-66.11 L 3958.94,2896.87 c -175.13,3.35 -343.25,1.56 -503.34,-3.99 h -0.26 c -166.96,-5.88 -325.84,-16.16 -476.4,-29.71 -900.29,-81.12 -1501.15,-280.39 -1743.11,-373.83 -74.26,-28.72 -127.55,-94.26 -141.34,-172.85 l -13.87,-79.23 -1.47,-8.58 -5.96,-33.69 -31.58,-180.76 -2.04,-11.75 c -0.9,-5.22 -1.06,-10.53 -0.32,-15.66 0.16,-1.89 0.49,-3.69 0.97,-5.47 1.89,-8.41 5.87,-16.33 11.6,-23.11 9.62,-11.4 14.76,-25.87 14.76,-40.13 0,-12.17 -3.58,-24.15 -10.68,-34.86 l -58.771,-87.97 h -56.223 c -50.84,0 -91.968,-41.13 -91.968,-91.96 v -113.68 c 0,-8.42 1.152,-16.56 3.347,-24.41 4.981,-18.61 15.75,-35.25 30.93,-47.57 h 0.242 c 32.07,-25.62 51.902,-63.25 55.164,-103.97 l 18.125,-226.78 c 2.277,-28.15 10.609,-55.9 24.152,-80.78 16.485,-30.29 39.902,-55.17 67.812,-72.98 27.99,-18.35 60.56,-29.52 94.58,-32.06 84.14,-6.129 218.95,-15.5 412.35,-25.938 v 247.338 c 0,111.72 19.92,219.11 56.4,318.59 130.9,357.19 474.85,613.75 875.7,613.75 256.25,0 489.32,-104.77 658.4,-273.86 168.84,-169.01 273.79,-401.92 273.79,-658.48 V 911.66 c 1128.61,-16.328 3280.15,-5.879 4874.72,35 v 278.68 c 0,74.75 8.89,147.63 25.87,217.4 98.5,408.61 468.42,714.62 906.15,714.62 h 64.8 c 416.85,0 772.03,-277.2 890.33,-656.28 27.2,-87.22 41.9,-179.85 41.9,-275.74 v -171.13 c 516.3,-33.38 849.1,-28.64 951.6,42.76 71.4,49.7 108.3,200.28 127,363.82 28.4,247.98 14.6,525.69 14.6,525.69" /><path
         id="path36"
         style="fill:#ff3e3e;fill-opacity:1;fill-rule:nonzero;stroke:none"
         d="m 8642.17,3067.99 -950.15,-31.53 c -59.36,-2.02 -106.21,50.6 -97.27,109.6 l 65.38,434.76 c 7.05,46.69 50.21,79.8 97.27,73.41 473.43,-64.78 782.08,-291.32 940.01,-441.37 54.05,-51.27 19.45,-142.62 -55.24,-144.87 z m -3477.65,142.63 c 0,0 685.62,623.17 2034.65,519.43 52.39,-3.83 88.19,-54.65 74.16,-105.55 l -167.17,-602.45 -1814.57,-56.97 c 0,0 162.22,182.25 -127.07,245.54 z m 5022.88,-143.83 c -47.6,4.58 -93.6,17.72 -136,38.59 -26.7,12.98 -51.87,28.97 -75.22,47.8 -356.99,287.72 -739.67,488.67 -1125.56,625.13 -199.52,70.56 -399.94,124 -598.1,163.33 -270.53,27.56 -559.67,49.33 -862.84,64.49 -61.26,3 -123.03,5.77 -185.41,8.32 -99.61,3.99 -200.57,7.3 -302.73,9.85 -588.41,-36.12 -1057.78,-151.41 -1275.84,-213.71 -32.57,-9.39 -64.85,-20.04 -96.31,-32.5 -47.58,-18.55 -93.6,-40.69 -138.19,-66.14 L 3959.01,2896.86 c -175.19,3.37 -343.26,1.57 -503.38,-3.99 h -0.21 c -167.02,-5.86 -325.93,-16.21 -476.5,-29.65 704.61,-217.53 1963.19,-362.32 3398.38,-362.32 313.84,0 619.27,6.9 912.24,19.96 54.8,2.48 109.14,5.11 163.04,8.03 1347.3,71.83 2407.78,275.48 2778.72,533.84 -15.6,1.36 -30.2,2.71 -43.9,4.06" /><path
         id="path38"
         style="fill:#110f0f;fill-opacity:1;fill-rule:nonzero;stroke:none"
         d="m 5529.35,3778.08 -1330.91,-920.05 -742.88,34.8 c 160.16,5.61 328.23,7.4 503.4,4.08 l 1432.31,815.06 c 44.53,25.45 90.54,47.55 138.08,66.11" /><path
         id="path40"
         style="fill:#110f0f;fill-opacity:1;fill-rule:nonzero;stroke:none"
         d="m 10051.4,3105.38 -75.53,-31.54 c -355.92,329.49 -1291,704.51 -1291,704.51 h 165.77 c 385.92,-136.52 768.54,-337.37 1125.5,-625.17 23.38,-18.81 48.56,-34.84 75.26,-47.8" /><path
         id="path42"
         style="fill:#110f0f;fill-opacity:1;fill-rule:nonzero;stroke:none"
         d="m 8642.17,3067.99 -950.15,-31.53 c -59.36,-2.02 -106.21,50.6 -97.27,109.6 l 65.38,434.76 c 7.05,46.69 50.21,79.8 97.27,73.41 473.43,-64.78 782.08,-291.32 940.01,-441.37 54.05,-51.27 19.45,-142.62 -55.24,-144.87 z M 7273.33,3624.5 7106.16,3022.05 5291.59,2965.08 c 0,0 162.22,182.25 -127.07,245.54 0,0 685.62,623.17 2034.65,519.43 52.39,-3.83 88.19,-54.65 74.16,-105.55 z m 1705.5,-247.85 c -328.48,209.81 -840.11,445.42 -1519.87,486.33 -1506.81,90.01 -2625.69,-635.55 -2986.74,-905.85 -40.91,-30.78 -18.02,-95.26 33.09,-93.76 l 2246.41,77.55 376.82,12.9 1751.58,60.58 c 193.21,6.53 261.36,258.3 98.71,362.25" /><path
         id="path44"
         style="fill:#c40505;fill-opacity:1;fill-rule:nonzero;stroke:none"
         d="m 1485.61,1664.87 c 0,0 4.23,10.03 12.16,28.76 8.07,18.71 18.65,46.63 37.51,80.01 8.92,16.93 18.45,35.98 31.15,55.18 12.6,19.25 24.35,41.5 40.74,62.6 15.96,21.34 31.6,45.31 51.62,67.72 9.75,11.42 19.76,23.17 29.99,35.18 10.57,11.72 22.28,22.86 33.79,34.67 45.95,47.5 101.57,93.33 164.58,135.7 62.62,43.21 134.8,79.55 212.05,110.03 77.31,30.93 161.66,51.2 248.26,62.92 21.74,2.21 43.46,5.85 65.49,6.86 22.02,0.9 44.07,1.82 66.17,2.73 24.42,0.42 44.04,-1.42 66.31,-2.01 21.73,-1.04 43.09,-0.98 65.72,-4.72 l 66.87,-9.19 c 22.19,-3.31 43.44,-9.47 65.15,-14.07 43.63,-8.28 84.9,-24.37 126.67,-37.35 20.57,-7.44 40.35,-16.74 60.37,-24.98 19.99,-8.44 39.77,-16.98 58.34,-27.79 18.85,-10.17 37.59,-20.28 56.18,-30.32 18.09,-10.86 35.33,-22.87 52.85,-34.11 35.61,-21.61 66.46,-48.73 98,-73.18 15.56,-12.48 29.22,-26.96 43.65,-40.06 13.82,-13.76 28.9,-25.9 41.18,-40.45 51.65,-55.69 96.4,-112.17 130.54,-168.74 8.67,-14.03 17.16,-27.79 25.44,-41.24 8.3,-13.4 14.49,-27.61 21.35,-40.96 13.13,-27.02 26.62,-52.09 35.4,-77.45 9.38,-25.01 19.43,-47.9 26.42,-69.86 6.47,-22.11 12.42,-42.42 17.78,-60.76 5.96,-18.15 9.29,-34.89 11.72,-49.52 2.7,-14.55 5.02,-26.93 6.9,-36.96 3.73,-20 5.73,-30.68 5.73,-30.68 0,0 -3.02,10.44 -8.65,30.03 -2.78,9.78 -6.25,21.81 -10.3,35.99 -3.93,14.17 -8.46,30.43 -15.57,48.02 -6.56,17.69 -13.85,37.29 -21.76,58.62 -8.38,21.11 -19.91,42.96 -30.82,66.76 -10.28,24.11 -25.28,47.76 -39.97,73.15 -7.69,12.45 -14.2,26.05 -23,38.67 -8.77,12.65 -17.68,25.61 -26.82,38.82 -17.26,27.09 -39.15,52.43 -61.09,79.03 -20.8,27.62 -47.6,51.53 -72.37,78.44 -12.28,13.57 -27.34,24.72 -41.12,37.43 -14.3,12.08 -27.84,25.49 -43.24,36.92 -31.39,22.11 -61.02,47.97 -95.75,67.66 -66.02,44.84 -142.04,77.4 -219.39,107.89 -39.92,11.97 -79.29,27.16 -120.88,34.63 -20.62,4.2 -41.17,10.05 -61.85,12.93 l -62.13,8.2 c -20.22,3.73 -42.38,3.91 -63.96,5.09 -21.03,0.72 -44.68,2.81 -63.47,2.43 -21.09,-0.73 -42.12,-1.43 -63.11,-2.13 -20.98,-0.77 -41.69,-4.17 -62.43,-6.09 -82.48,-10.99 -163.59,-27.25 -238.1,-55.61 -74.32,-28 -145.02,-59.74 -206.77,-99.22 -61.93,-38.93 -118.03,-80.33 -165,-124.07 -11.73,-10.95 -23.72,-21.21 -34.57,-32.07 -10.62,-11.1 -21.03,-21.96 -31.15,-32.53 -21.14,-20.48 -37.94,-42.75 -55.07,-62.6 -17.62,-19.57 -30.59,-40.5 -44.37,-58.62 -13.9,-18.09 -24.46,-36.04 -34.43,-52.06 -20.57,-31.67 -34.54,-58.22 -44.11,-76.19 -9.66,-17.91 -14.83,-27.48 -14.83,-27.48" /><path
         id="path46"
         style="fill:#c40505;fill-opacity:1;fill-rule:nonzero;stroke:none"
         d="m 8240.22,1664.87 c 0,0 4.24,10.03 12.2,28.76 8.07,18.71 18.62,46.63 37.48,80.01 8.92,16.93 18.45,35.98 31.14,55.18 12.62,19.25 24.38,41.5 40.75,62.6 15.96,21.34 31.6,45.31 51.62,67.72 9.75,11.42 19.75,23.17 29.98,35.18 10.57,11.69 22.29,22.83 33.79,34.67 45.95,47.5 101.58,93.3 164.6,135.7 62.6,43.21 134.78,79.55 212.07,110.03 77.28,30.93 161.66,51.18 248.23,62.92 21.76,2.21 43.49,5.85 65.49,6.86 22.01,0.9 44.1,1.82 66.2,2.73 24.39,0.42 44.01,-1.42 66.31,-2.01 21.69,-1.04 43.08,-0.98 65.69,-4.72 l 66.87,-9.19 c 22.2,-3.31 43.45,-9.47 65.15,-14.07 43.64,-8.28 84.92,-24.37 126.7,-37.35 20.53,-7.44 40.3,-16.74 60.36,-24.98 19.99,-8.44 39.77,-16.98 58.32,-27.79 18.86,-10.17 37.58,-20.28 56.2,-30.32 18.09,-10.86 35.34,-22.87 52.82,-34.11 35.62,-21.58 66.48,-48.73 98,-73.18 15.59,-12.48 29.23,-26.96 43.65,-40.06 13.86,-13.76 28.96,-25.9 41.26,-40.45 51.6,-55.69 96.3,-112.17 130.5,-168.74 8.6,-14.03 17.1,-27.79 25.4,-41.24 8.3,-13.4 14.5,-27.61 21.4,-40.96 13.1,-27.02 26.6,-52.09 35.4,-77.45 9.4,-25.01 19.4,-47.9 26.4,-69.86 6.5,-22.11 12.4,-42.42 17.8,-60.76 5.9,-18.15 9.2,-34.89 11.7,-49.52 2.7,-14.55 5,-26.93 6.9,-36.96 3.7,-20 5.7,-30.68 5.7,-30.68 0,0 -3,10.44 -8.6,30.03 -2.8,9.78 -6.3,21.81 -10.3,35.99 -4,14.17 -8.5,30.43 -15.6,48.02 -6.6,17.69 -13.8,37.29 -21.8,58.62 -8.3,21.11 -19.9,42.96 -30.8,66.76 -10.3,24.11 -25.3,47.76 -39.9,73.15 -7.8,12.45 -14.3,26.05 -23.1,38.67 -8.7,12.65 -17.6,25.61 -26.8,38.82 -17.2,27.09 -39.1,52.43 -61.1,79.03 -20.7,27.64 -47.6,51.53 -72.3,78.44 -12.32,13.57 -27.35,24.72 -41.13,37.43 -14.33,12.08 -27.83,25.49 -43.27,36.92 -31.39,22.11 -60.98,47.99 -95.76,67.66 -66.01,44.84 -142.03,77.42 -219.37,107.89 -39.93,11.97 -79.28,27.16 -120.89,34.63 -20.58,4.2 -41.15,10.05 -61.86,12.93 l -62.09,8.2 c -20.25,3.73 -42.39,3.91 -63.99,5.09 -21.04,0.72 -44.68,2.81 -63.48,2.43 -21.06,-0.73 -42.12,-1.43 -63.08,-2.13 -20.97,-0.77 -41.69,-4.17 -62.46,-6.09 -82.43,-10.99 -163.58,-27.25 -238.06,-55.61 -74.32,-28 -145.05,-59.74 -206.8,-99.22 -61.94,-38.93 -118.03,-80.33 -164.99,-124.07 -11.73,-10.95 -23.71,-21.21 -34.58,-32.07 -10.63,-11.1 -21.04,-21.96 -31.16,-32.56 -21.13,-20.47 -37.93,-42.72 -55.07,-62.57 -17.6,-19.57 -30.57,-40.5 -44.34,-58.62 -13.92,-18.09 -24.48,-36.04 -34.46,-52.07 -20.56,-31.66 -34.53,-58.21 -44.1,-76.18 -9.69,-17.91 -14.84,-27.48 -14.84,-27.48" /><path
         id="path48"
         style="fill:#c40505;fill-opacity:1;fill-rule:nonzero;stroke:none"
         d="m 4102.36,1037.78 c -153.76,600.54 -104.06,1191.53 -85.32,1414.02 7.16,85.08 46.5,162.18 107.88,211.56 l 318.47,256.25 15.76,-25.37 -318.46,-256.25 c -54.88,-44.13 -90.02,-113.1 -96.44,-189.17 -18.59,-220.85 -67.94,-807.52 84.32,-1402.36 l -26.21,-8.68" /><path
         id="path50"
         style="fill:#c40505;fill-opacity:1;fill-rule:nonzero;stroke:none"
         d="m 7102.64,1062.5 -25.53,11.18 c 227.02,668.81 324.58,1558.38 333.68,1644.89 l -174.63,228 20.61,20.39 182.57,-238.34 -0.67,-6.78 c -0.96,-9.49 -97.12,-955.42 -336.03,-1659.34" /><path
         id="path52"
         style="fill:#c40505;fill-opacity:1;fill-rule:nonzero;stroke:none"
         d="m 1612.04,1541.08 c -36.48,-99.48 -56.4,-206.87 -56.4,-318.59 V 975.152 c -193.4,10.438 -328.21,19.809 -412.35,25.938 -34.02,2.54 -66.59,13.71 -94.58,32.06 -27.91,17.81 -51.327,42.69 -67.812,72.98 -13.543,24.88 -21.875,52.63 -24.152,80.78 l -18.125,226.78 c -3.262,40.72 -23.094,78.35 -55.164,103.97 h -0.242 c -15.18,12.32 -25.949,28.96 -30.93,47.57 121.426,-42.18 278.605,-54.92 377.995,-55.9 124.86,-1.14 257.47,0.34 381.76,31.75" /><path
         id="path54"
         style="fill:#c40505;fill-opacity:1;fill-rule:nonzero;stroke:none"
         d="m 11290.5,2068.31 c 0,0 -4.2,-2.26 -12.2,-6.51 -8.3,-4.06 -21.1,-9.38 -37.1,-16.42 -15.9,-7.74 -35.7,-12.71 -58.1,-20.77 -11.2,-3.79 -23.2,-7.8 -35.8,-12.02 -12.8,-3.23 -26.3,-6.58 -40.3,-10.11 -28.2,-6.64 -58.5,-15.34 -91,-21.8 -32.6,-5.55 -67,-11.42 -102.5,-17.47 -17.8,-2.91 -35.8,-6.37 -54.2,-8.95 -18.5,-1.85 -37.1,-3.69 -55.9,-5.61 -37.6,-3.72 -75.8,-7.53 -114,-11.34 -38.1,-4.92 -76.5,-4.7 -114.2,-6.42 -37.7,-1.38 -74.8,-2.69 -110.7,-4 -35.9,-0.95 -70.5,-3.54 -103.5,-1.9 -32.9,0.74 -64,1.43 -92.7,2.06 -114.8,2.53 -191.3,4.22 -191.3,4.22 0,0 76.5,0.2 191.3,0.54 28.7,0.09 59.8,0.17 92.7,0.26 32.8,-0.84 67.4,2.63 103.2,4.47 35.8,2.17 72.8,4.44 110.3,6.74 37.5,2.64 75.8,3.38 113.6,9.22 37.9,4.75 75.8,9.45 113.2,14.11 18.6,2.35 37.1,4.65 55.4,6.94 18.1,3.01 35.9,6.91 53.5,10.21 35.1,6.87 69,13.54 101.2,19.85 32,7.16 61.5,16.51 89.1,23.73 13.8,3.79 27,7.42 39.5,10.87 12.2,4.47 23.8,8.66 34.7,12.62 21.4,8.35 41.3,13.94 55.5,21.38 14.8,6.94 26.3,11.93 34.2,15.99 7.9,4.47 12.1,6.85 12.1,6.85 l 14,-26.74" /><path
         id="path56"
         style="fill:#0b1829;fill-opacity:1;fill-rule:nonzero;stroke:none"
         d="m 980.273,1436.84 v -161.27 c 0,-57.69 46.777,-104.48 104.497,-104.48 h 19.99 c 32,0 60.51,20.3 70.97,50.53 l 45.12,130.11 c 20.34,58.7 -17.4,121.49 -78.75,131.04 l -91.53,14.26 c -36.92,5.74 -70.297,-22.83 -70.297,-60.19" /><path
         id="path58"
         style="fill:#110f0f;fill-opacity:1;fill-rule:nonzero;stroke:none"
         d="m 7136.86,3308.02 v -296.69 c 0,-19.83 -3.05,-39.16 -8.38,-57.47 l -376.76,-12.98 c -8.42,21.89 -12.98,45.78 -12.98,70.45 v 296.69 c 0,109.57 89.48,199.05 199.06,199.05 54.91,0 104.48,-22.37 140.6,-58.49 36.09,-36.09 58.46,-85.66 58.46,-140.56" /><path
         id="path60"
         style="fill:#c40505;fill-opacity:1;fill-rule:nonzero;stroke:none"
         d="m 8320.56,1442.72 c -17.04,-69.78 -25.86,-142.61 -25.86,-217.41 V 946.672 C 7898.88,936.5 7468.79,928.27 7028.54,921.832 c -58.51,-0.84 -117.27,-1.703 -176.12,-2.543 -1281.5,-17.301 -2621.26,-19.418 -3432.49,-7.629 v 271.51 c 230.65,-51.14 488.93,-41.64 723.63,-40.96 507.59,1.28 1022.72,-27.3 1530.3,-0.34 428.21,22.82 866.35,46.72 1302.96,89.29 59.35,5.69 118.62,11.79 177.9,18.32 393.95,43.24 785.45,103.36 1165.84,193.24" /><path
         id="path62"
         style="fill:#c40505;fill-opacity:1;fill-rule:nonzero;stroke:none"
         d="m 11302.3,1460.79 c -18.7,-163.54 -55.6,-314.12 -127,-363.82 -102.5,-71.4 -435.3,-76.14 -951.6,-42.76 v 171.13 c 0,95.89 -14.7,188.52 -41.9,275.74 209.8,-73.92 452.9,-101.83 672.5,-99.55 147.5,1.63 299.8,21.22 448,59.26" /><path
         id="path64"
         style="fill:#0c0f26;fill-opacity:1;fill-rule:nonzero;stroke:none"
         d="m 1603.14,2260.6 -41.94,-227.19 c -8,-43.18 -52.31,-88.29 -90.83,-94.84 -150.31,-25.45 -308.22,-17.78 -308.22,-17.78 -19.76,-2.36 -62.69,18.53 -79.01,30.51 l -15.42,12.41 v 0.09 l -28.47,23.02 c -0.74,5.13 -0.58,10.44 0.32,15.66 l 2.04,11.75 31.58,180.76 5.96,33.69 62.51,33.71 22.69,12.25 134.49,72.54 c 48.46,26.2 100.94,39.49 153.33,39.49 30.53,0 61.12,-4.56 90.83,-13.69 43.33,-13.4 69.45,-62.12 60.14,-112.38" /><path
         id="path66"
         style="fill:#f1f2f8;fill-opacity:1;fill-rule:nonzero;stroke:none"
         d="m 1547.32,2230.24 -15.58,-79.49 -6.11,-31.08 -16.09,-82.27 c -7.26,-36.64 -38.77,-63.97 -77.35,-67.16 l -162.66,-13.38 -60.14,-5.06 -78.58,-6.45 c -19.59,-1.54 -39.34,3.27 -55.82,13.79 l -7.27,4.57 v 0.09 l -27.5,17.55 c -0.48,1.78 -0.81,3.58 -0.97,5.47 -0.74,5.13 -0.58,10.44 0.32,15.66 l 2.04,11.75 31.58,180.76 5.96,33.69 1.47,8.58 63.74,28.47 19.99,8.91 77.77,34.75 c 7.85,3.52 15.84,6.64 23.88,9.55 h -0.05 c 0.93,0.34 1.86,0.62 2.8,0.96 6.22,2.19 12.49,4.21 18.82,6.06 2.22,0.64 4.47,1.3 6.73,1.9 2.77,0.75 5.53,1.49 8.33,2.15 5.26,1.29 10.54,2.49 15.87,3.53 2.53,0.5 5.05,0.99 7.67,1.39 3.43,0.58 6.86,1.15 10.29,1.65 4.23,0.65 8.48,1.21 12.81,1.62 8.08,0.9 16.24,1.47 24.4,1.79 2.2,0.18 4.41,0.18 6.68,0.25 35.18,0.75 70.52,-3.58 104.95,-13.22 43.5,-12.16 70.42,-54.18 62.02,-96.78" /><path
         id="path68"
         style="fill:#bfc4d8;fill-opacity:1;fill-rule:nonzero;stroke:none"
         d="m 1197.48,1950.9 -66.67,-5.55 c -19.59,-1.54 -39.34,3.27 -55.82,13.79 l -7.27,4.57 v 0.09 l -27.5,17.55 c -0.48,1.78 -0.81,3.58 -0.97,5.47 -0.74,5.13 -0.58,10.44 0.32,15.66 l 2.04,11.75 31.58,180.76 5.96,33.69 1.47,8.58 63.74,28.47 c -0.9,-1.13 -1.8,-2.27 -2.7,-3.34 -5.15,-6.29 -9.78,-12.08 -12.25,-16.8 -7.5,-14.6 -13.3,-29.97 -17.05,-45.87 -1.72,-6.85 -3.09,-13.87 -3.99,-20.89 -7.68,-58.35 9.86,-118.9 44.47,-167.71 14.45,-20.4 31.57,-39.08 44.64,-60.22" /><path
         id="path70"
         style="fill:#bfc4d8;fill-opacity:1;fill-rule:nonzero;stroke:none"
         d="m 1270.38,2318.69 c -1.59,0.03 -3.01,0.16 -4.47,0.25 69.9,25.32 146.84,28.33 219.41,8.06 43.45,-12.12 70.37,-54.14 62.01,-96.74 l -21.7,-110.61 c -0.4,1.25 -0.85,2.49 -1.24,3.7 -9.48,30.18 -15.12,61.69 -29.46,90.09 -20.64,40.88 -58.73,72.7 -102.41,89.96 -41,16.21 -79.22,14.61 -122.14,15.29" /><path
         id="path72"
         style="fill:#e8ab69;fill-opacity:1;fill-rule:nonzero;stroke:none"
         d="m 1531.73,2150.75 -22.22,-113.31 c -7.19,-36.64 -38.71,-64.06 -77.34,-67.21 l -162.65,-13.4 c -12.78,7.53 -24.5,16.66 -34.94,27.05 -32.16,32.05 -52.08,76.42 -52.08,125.41 0,22.25 4.14,43.55 11.62,63.18 25.43,66.59 89.92,113.88 165.44,113.88 83.51,0 153.52,-57.83 172.17,-135.6" /><path
         id="path74"
         style="fill:#ffffff;fill-opacity:1;fill-rule:nonzero;stroke:none"
         d="m 1253.87,2055.76 c 0,-26.19 -7.02,-50.75 -19.26,-71.89 -6.86,-11.83 -15.33,-22.69 -25.22,-32.07 l -78.58,-6.45 c -19.59,-1.54 -39.34,3.27 -55.82,13.79 l -7.27,4.57 v 0.09 l -27.5,17.55 c -0.48,1.78 -0.81,3.58 -0.97,5.47 -0.74,5.13 -0.58,10.44 0.32,15.66 l 2.04,11.75 31.58,180.76 c 11.76,3.1 24.08,4.73 36.72,4.73 h 2.45 c 30.53,-0.57 58.76,-10.53 81.77,-27.25 36.15,-26.12 59.74,-68.71 59.74,-116.71" /><path
         id="path76"
         style="fill:#110f0f;fill-opacity:1;fill-rule:nonzero;stroke:none"
         d="m 4962.77,3101.23 c 0,0 11.17,162.69 62.39,202.22 62.38,48.14 408.27,0 487.66,-81.86 79.39,-81.84 -22.68,-211.83 -85.06,-235.92 -62.36,-24.09 -283.54,-33.71 -283.54,-33.71 l -181.45,149.27" /><path
         id="path78"
         style="fill:#110f0f;fill-opacity:1;fill-rule:nonzero;stroke:none"
         d="m 4815.33,3072.35 c 17.02,0 147.44,28.88 147.44,28.88 l 181.45,-149.27 -300.54,-57.75 -28.35,178.14" /><path
         id="path80"
         style="fill:#ff3e3e;fill-opacity:1;fill-rule:nonzero;stroke:none"
         d="m 5025.16,3303.45 c 62.38,48.14 408.27,0 487.66,-81.86 3.09,-3.16 5.81,-6.44 8.35,-9.79 -16.65,-29.14 -46.94,-56.1 -86.29,-76.5 -55.78,-28.94 -120.48,-42.38 -184.02,-55.43 -56.44,-11.59 -112.88,-23.17 -169.3,-34.76 -13.57,-2.78 -27.8,-5.33 -42.06,-6.99 l -76.73,63.11 c 0,0 11.17,162.69 62.39,202.22" /><path
         id="path82"
         style="fill:#363636;fill-opacity:1;fill-rule:nonzero;stroke:none"
         d="M 3192.37,924.32 C 3025.49,524.5 2566.12,335.699 2166.33,502.602 1766.46,669.52 1577.71,1128.87 1744.6,1528.68 c 166.92,399.85 626.23,588.61 1026.09,421.7 399.8,-166.89 588.6,-626.22 421.68,-1026.06" /><path
         id="path84"
         style="fill:#2e2e2e;fill-opacity:1;fill-rule:nonzero;stroke:none"
         d="M 3031.19,991.57 C 2901.48,680.832 2544.38,534.09 2233.61,663.809 c -310.8,129.742 -457.52,486.811 -327.8,797.571 129.75,310.81 486.78,457.54 797.6,327.8 310.75,-129.73 457.53,-486.77 327.78,-797.61" /><path
         id="path86"
         style="fill:#ffffff;fill-opacity:1;fill-rule:nonzero;stroke:none"
         d="M 2975.41,1014.87 C 2858.56,734.941 2536.88,602.691 2256.89,719.559 c -280.01,116.91 -412.16,438.571 -295.3,718.531 116.91,280.01 438.5,412.22 718.53,295.32 279.97,-116.87 412.18,-438.52 295.29,-718.54" /><path
         id="path88"
         style="fill:#8c8c8c;fill-opacity:1;fill-rule:nonzero;stroke:none"
         d="M 2912.57,1041.11 C 2810.18,795.84 2528.4,680.031 2283.13,782.422 c -245.28,102.387 -361.09,384.168 -258.72,629.448 102.41,245.3 384.18,361.09 629.48,258.69 245.25,-102.39 361.07,-384.13 258.68,-629.45" /><path
         id="path90"
         style="fill:#292929;fill-opacity:1;fill-rule:nonzero;stroke:none"
         d="m 2867.12,1060.09 c -91.91,-220.16 -344.86,-324.11 -565.01,-232.219 -220.2,91.93 -324.12,344.859 -232.23,564.979 91.93,220.23 344.84,324.19 565.03,232.26 220.14,-91.9 324.11,-344.83 232.21,-565.02" /><path
         id="path92"
         style="fill:#c2c2c2;fill-opacity:1;fill-rule:nonzero;stroke:none"
         d="m 2559.71,1188.41 c -21.04,-50.39 -78.91,-74.19 -129.29,-53.15 -50.41,21.04 -74.2,78.93 -53.16,129.31 21.02,50.42 78.92,74.21 129.33,53.16 50.39,-21.03 74.16,-78.92 53.12,-129.32" /><path
         id="path94"
         style="fill:#ffffff;fill-opacity:1;fill-rule:nonzero;stroke:none"
         d="m 2949.73,1239.33 -49.7,8.35 -311.03,52.08 96.43,300.37 15.3,47.82 12.99,40.4 -89.24,37.22 -19.52,-37.5 -23.29,-44.71 -145.61,-279.61 -255.88,184.5 -40.85,29.46 -34.32,24.74 -62.97,-73.35 29.68,-30.18 35.25,-35.91 220.93,-224.91 -254.44,-186.24 -40.64,-29.75 -34.24,-25.04 16.98,-27.851 2.61,-4.278 30.76,-50.5 37.8,18.868 45.13,22.492 10.37,5.148 7.98,3.992 263.79,131.469 46.52,-141.48 1.44,-4.289 50.57,-153.86 15.75,-47.902 13.2,-40.199 94.18,22.359 -6.25,41.852 -7.47,49.839 -18.35,123.348 -0.65,4.281 -27.5,184.141 315.38,1.09 50.42,0.21 42.3,0.15 7.84,96.4 -41.65,6.98" /><path
         id="path96"
         style="fill:#363636;fill-opacity:1;fill-rule:nonzero;stroke:none"
         d="m 2567.29,1226.49 c 0,-54.55 -44.22,-98.79 -98.79,-98.79 -54.56,0 -98.8,44.24 -98.8,98.79 0,54.55 44.24,98.8 98.8,98.8 54.57,0 98.79,-44.25 98.79,-98.8" /><path
         id="path98"
         style="fill:#363636;fill-opacity:1;fill-rule:nonzero;stroke:none"
         d="M 9949,936.551 C 9782.12,536.742 9322.75,347.949 8922.96,514.832 8523.1,681.762 8334.34,1141.09 8501.22,1540.92 c 166.92,399.83 626.23,588.6 1026.09,421.7 399.81,-166.91 588.59,-626.2 421.69,-1026.069" /><path
         id="path100"
         style="fill:#2e2e2e;fill-opacity:1;fill-rule:nonzero;stroke:none"
         d="m 9787.81,1003.81 c -129.7,-310.747 -486.79,-457.47 -797.58,-327.771 -310.8,129.762 -457.52,486.811 -327.79,797.561 129.74,310.82 486.77,457.54 797.59,327.82 310.75,-129.74 457.54,-486.78 327.78,-797.61" /><path
         id="path102"
         style="fill:#ffffff;fill-opacity:1;fill-rule:nonzero;stroke:none"
         d="M 9732.04,1027.11 C 9615.19,747.18 9293.5,614.93 9013.52,731.813 c -280.02,116.898 -412.17,438.557 -295.3,718.507 116.89,280.02 438.5,412.24 718.53,295.32 279.96,-116.86 412.18,-438.51 295.29,-718.53" /><path
         id="path104"
         style="fill:#8c8c8c;fill-opacity:1;fill-rule:nonzero;stroke:none"
         d="M 9669.19,1053.34 C 9566.81,808.07 9285.02,692.289 9039.76,794.672 c -245.29,102.379 -361.1,384.158 -258.72,629.418 102.41,245.31 384.18,361.11 629.47,258.7 245.25,-102.37 361.08,-384.14 258.68,-629.45" /><path
         id="path106"
         style="fill:#292929;fill-opacity:1;fill-rule:nonzero;stroke:none"
         d="m 9623.75,1072.32 c -91.92,-220.14 -344.86,-324.097 -565.02,-232.211 -220.19,91.93 -324.12,344.861 -232.22,565.001 91.93,220.2 344.84,324.17 565.02,232.24 220.15,-91.9 324.11,-344.83 232.22,-565.03" /><path
         id="path108"
         style="fill:#c2c2c2;fill-opacity:1;fill-rule:nonzero;stroke:none"
         d="m 9316.34,1200.64 c -21.05,-50.4 -78.91,-74.18 -129.3,-53.14 -50.41,21.03 -74.2,78.93 -53.16,129.31 21.02,50.41 78.92,74.22 129.34,53.16 50.39,-21.02 74.15,-78.93 53.12,-129.33" /><path
         id="path110"
         style="fill:#ffffff;fill-opacity:1;fill-rule:nonzero;stroke:none"
         d="m 9706.35,1251.57 -49.69,8.33 -311.03,52.1 96.42,300.36 15.3,47.83 13,40.41 -89.25,37.21 -19.51,-37.51 -23.29,-44.69 -145.6,-279.62 -255.9,184.51 -40.84,29.45 -34.32,24.74 -62.98,-73.35 29.69,-30.19 35.25,-35.91 220.92,-224.89 -254.44,-186.25 -40.63,-29.74 -34.24,-25.05 16.98,-27.849 2.6,-4.281 30.77,-50.5 37.8,18.871 45.13,22.488 10.36,5.141 7.99,4 263.79,131.46 46.51,-141.48 1.45,-4.269 50.57,-153.891 15.74,-47.879 13.22,-40.199 94.17,22.34 -6.25,41.879 -7.48,49.839 -18.35,123.329 -0.65,4.293 -27.5,184.128 315.38,1.08 50.43,0.23 42.3,0.14 7.83,96.42 -41.65,6.97" /><path
         id="path112"
         style="fill:#363636;fill-opacity:1;fill-rule:nonzero;stroke:none"
         d="m 9323.92,1238.74 c 0,-54.56 -44.22,-98.81 -98.8,-98.81 -54.55,0 -98.8,44.25 -98.8,98.81 0,54.55 44.25,98.78 98.8,98.78 54.58,0 98.8,-44.23 98.8,-98.78" /><path
         id="path114"
         style="fill:#c40505;fill-opacity:1;fill-rule:nonzero;stroke:none"
         d="m 7238.51,2663.15 c 0,-45.06 -137.01,-81.6 -306.02,-81.6 -169.01,0 -306.03,36.54 -306.03,81.6 0,45.08 137.02,81.62 306.03,81.62 169.01,0 306.02,-36.54 306.02,-81.62" /><path
         id="path116"
         style="fill:#110f0f;fill-opacity:1;fill-rule:nonzero;stroke:none"
         d="m 7124.27,2663.15 c 0,-33.79 -85.87,-61.19 -191.78,-61.19 -105.92,0 -191.78,27.4 -191.78,61.19 0,33.81 85.86,61.22 191.78,61.22 105.91,0 191.78,-27.41 191.78,-61.22" /><path
         id="path118"
         style="fill:#110f0f;fill-opacity:1;fill-rule:nonzero;stroke:none"
         d="m 11134.2,2362.53 c -0.2,-13.72 -0.7,-27.84 -1.5,-42.29 -0.9,-16.23 -2.1,-33.03 -3.6,-50.26 -0.4,-3.26 -0.7,-6.52 -1,-9.86 l -489.6,16.64 c -25.4,0.81 -46.9,19.26 -51.6,44.3 -0.6,3.27 -0.9,6.63 -0.9,9.88 0,16.57 7.5,32.48 20.8,42.93 l 188.8,148.43 c 88.7,69.79 192.8,116.46 302.9,136.69 4.9,-16.64 10,-36.23 14.8,-58.68 1.8,-8.72 3.6,-17.87 5.3,-27.48 7.9,-44.16 14.1,-97.37 15.5,-158.97 0.4,-16.49 0.5,-33.63 0.1,-51.33" /><path
         id="path120"
         style="fill:#ffffff;fill-opacity:1;fill-rule:nonzero;stroke:none"
         d="m 11134.2,2362.53 c -0.2,-13.72 -0.7,-27.84 -1.5,-42.29 l -475.9,16.17 176.1,138.48 c 82.5,64.96 178.3,107.64 280.4,125.42 1.8,-8.72 3.6,-17.87 5.3,-27.48 7.9,-44.16 14.1,-97.37 15.5,-158.97 0.4,-16.49 0.5,-33.63 0.1,-51.33" /><path
         id="path122"
         style="fill:#f45914;fill-opacity:1;fill-rule:nonzero;stroke:none"
         d="m 11134.2,2362.53 c -57.4,15.5 -93,73.68 -79.8,132.27 8.1,36.08 32.7,64.23 64.2,78.03 7.9,-44.16 14.1,-97.37 15.5,-158.97 0.4,-16.49 0.5,-33.63 0.1,-51.33" /><path
         id="path124"
         style="fill:#dbc858;fill-opacity:1;fill-rule:nonzero;stroke:none"
         d="m 10863,2452.61 c -9.4,-42.15 17,-83.94 59.2,-93.37 42.1,-9.43 83.9,17.07 93.4,59.21 9.4,42.14 -17.1,83.94 -59.3,93.38 -42.1,9.42 -83.9,-17.09 -93.3,-59.22" /><path
         id="path126"
         style="fill:#f9c44e;fill-opacity:1;fill-rule:nonzero;stroke:none"
         d="m 7459.47,2607.87 -6.02,-54 c -0.26,-2.49 -0.51,-4.88 -0.85,-7.38 -48.42,-431.09 -149.41,-867.86 -297.88,-1293.38 -38.84,-111.28 -80.9,-221.78 -126.18,-331.251 -58.51,-0.847 -117.27,-1.707 -176.12,-2.57 44.44,104.161 85.99,209.331 124.4,315.301 155.5,428.01 261.59,868.81 312.72,1303.86 1.27,11.22 2.54,22.45 3.81,33.6 l 6.03,54.17 c 45.44,404.79 119.48,1064.78 -95.14,1422.16 62.4,-2.58 124.22,-5.4 185.44,-8.4 184.09,-413.36 114.14,-1037.34 69.79,-1432.11" /><path
         id="path128"
         style="fill:#c87e53;fill-opacity:1;fill-rule:nonzero;stroke:none"
         d="m 9796.73,780.941 c 0.44,-5.671 -0.87,-11.089 -1.32,-16.582 -0.24,-2.957 -0.59,-5.91 -0.67,-8.757 -0.75,-7.641 -1.39,-15.012 -1.95,-22.18 -3.47,-37.57 -109.03,-120.223 -133.46,-147.07 -45.06,-49.422 -89.52,-101.11 -136.26,-148.141 109.88,438.91 32.36,1014.689 -89.23,1557.559 -151.3,676.33 -427.39,1257.77 -333.84,1290.97 l 411.48,326.21 79.72,12.17 6.87,1.07 c -0.01,-4.3 0,-8.6 -0.14,-12.94 -1.73,-245.67 -0.98,-520.87 37.03,-738.8 14.19,-81.74 188.49,-322.34 201.24,-461.72 45.75,-498.7 -91.6,-987.49 -39.47,-1631.789" /><path
         id="path130"
         style="fill:#db1d1d;fill-opacity:1;fill-rule:nonzero;stroke:none"
         d="m 9629.75,598.141 c 0.25,78.179 8.39,140.511 -53.71,117.91 -55.52,-20.192 -308.19,-189.121 -307.18,-300.172 l 296.32,24.101 c 24.51,55.309 64.35,91.981 64.57,158.161" /><path
         id="path132"
         style="fill:#f99767;fill-opacity:1;fill-rule:nonzero;stroke:none"
         d="m 9580.68,911.691 c 18.45,-275.199 -201.23,-367.902 -163.39,-436.832 82.99,-151.187 305.98,167.993 338.22,221.813 5.55,9.238 10.73,18.91 15.66,28.539 l -190.49,186.48" /><path
         id="path134"
         style="fill:#db1d1d;fill-opacity:1;fill-rule:nonzero;stroke:none"
         d="m 9570.41,362.219 c 107.48,41.75 128.8,236.57 149.11,235.453 31.45,-1.66 -6.54,-189.383 25.01,-244.762 l 28.37,-1.551 c 68.93,148.102 155.12,457.493 14.18,561.922 0,0 -106.8,-300.75 -294.7,-394.23 -73.14,-36.43 -75.66,-31.399 -160.11,-34.738 -62.24,-2.5 -70.08,-52.141 -67.89,-128.602 0,0 171.13,-45.852 306.03,6.508" /><path
         id="path136"
         style="fill:#e8a273;fill-opacity:1;fill-rule:nonzero;stroke:none"
         d="m 9999.45,3604.78 c -19.82,-248.2 -40,-528.58 -17.44,-752.26 8.29,-82.5 164.79,-334.08 167.49,-473.96 9.6,-500.38 -162.74,-978.78 -157.17,-1624.861 0.04,-5.617 -1.69,-10.918 -2.54,-16.398 -0.43,-2.949 -1.01,-5.86 -1.38,-8.731 -1.17,-7.59 -2.34,-14.871 -3.49,-21.949 -6.14,-37.262 -117.49,-112.68 -143.77,-137.781 -48.51,-46.36 -96.57,-94.938 -146.73,-138.75 317.48,966.67 -258.4,2684.88 -245.26,3127.93 l 550.29,46.76" /><path
         id="path138"
         style="fill:#f43b3b;fill-opacity:1;fill-rule:nonzero;stroke:none"
         d="m 9817.53,622.352 c -9.05,77.597 -8.44,140.539 -67.36,110.378 -52.69,-27 -283.21,-226.328 -268.95,-336.41 l 291.13,60.961 c 17.72,57.949 52.87,99.328 45.18,165.071" /><path
         id="path140"
         style="fill:#e8a273;fill-opacity:1;fill-rule:nonzero;stroke:none"
         d="M 9786.15,898.52 C 9784.7,622.813 9558.81,544.969 9591.6,473.68 c 71.92,-156.321 317.42,147.222 353.51,198.722 6.18,8.86 12.07,18.18 17.63,27.43 L 9786.15,898.52" /><path
         id="path142"
         style="fill:#f43b3b;fill-opacity:1;fill-rule:nonzero;stroke:none"
         d="m 9783.87,350.809 c 106.74,44.222 124.62,239.504 144.95,238.89 31.45,-0.969 -3.21,-189.539 29.3,-244.179 l 28.43,-0.86 c 66.25,149.711 146.95,461 4.27,562.141 0,0 -101.47,-303.16 -287.7,-401.039 -72.52,-38.121 -75.09,-33.082 -159.47,-38.442 -62.2,-3.941 -69.17,-53.769 -65.6,-130.121 0,0 171.88,-41.898 305.82,13.61" /><path
         id="path144"
         style="fill:#5b102e;fill-opacity:1;fill-rule:nonzero;stroke:none"
         d="m 9091.51,6008.11 c -52.62,-72.21 -105.86,-147.66 -158.38,-221.78 -42.43,-59.87 -76.31,-123.1 -127.19,-174.25 -35.76,-35.96 -103.97,-61.8 -131.22,-100.62 -54.79,-77.99 -60.54,-307.54 -5.68,-382.52 74.15,-101.34 282.59,-109.09 393.68,-79.21 l 182.27,1132.62 c -66.57,-32.29 -109.75,-114.26 -153.48,-174.24" /><path
         id="path146"
         style="fill:#8c1040;fill-opacity:1;fill-rule:nonzero;stroke:none"
         d="m 9051.75,5244.14 c 35.93,-136.29 79.53,-1449.53 79.53,-1449.53 0,0 567.24,-1247.28 1185.52,-1029.62 -9.9,155.95 -347.98,1908.55 -330.99,2071.46 4.49,43.48 39.09,142.53 86.59,266.52 131,341.31 360,871.96 330,954.56 -51.8,142.34 -313.2,181.66 -443.2,219.74 l -644.3,-54.43 c -57.28,-30.39 -51.8,-14.83 -97.75,-54.4 -47.58,-40.87 -270.76,-540.8 -279.24,-588.45 -4.61,-26.1 -2.99,-51.68 2.54,-76.93 19.72,-88.46 88.65,-172.68 111.3,-258.92" /><path
         id="path148"
         style="fill:#5b102e;fill-opacity:1;fill-rule:nonzero;stroke:none"
         d="m 8974.69,2437.48 c 0,0 707.49,-228.09 1325.81,-10.44 240.1,1284.05 -331.68,2246.5 -314.69,2409.41 4.49,43.48 39.09,142.53 86.59,266.52 25.3,59.31 119.7,251.37 128.2,313.2 28.2,204.24 -33.1,267.57 3.1,467.12 -134.2,-222.27 -320.97,-421.66 -581.78,-470.54 -214.64,-40.22 -482.23,-24.77 -681.47,90.31 19.72,-88.46 37.98,-311.79 53.98,-399.51 126.41,-693 -19.74,-2666.07 -19.74,-2666.07" /><path
         id="path150"
         style="fill:#8c1040;fill-opacity:1;fill-rule:nonzero;stroke:none"
         d="m 10395.4,6068.96 c 64.1,-181.07 -42.7,-384.78 -74,-687.52 -17.9,-172.73 9.4,-570.2 -262.1,-556.28 -174.26,8.92 -182.01,185.43 -185.12,319.66 -3.1,134.19 32.74,278.58 68.87,413.2 30.89,115.08 103.55,255.76 113.35,365.84 l 339,145.1" /><path
         id="path152"
         style="fill:#c87e53;fill-opacity:1;fill-rule:nonzero;stroke:none"
         d="m 9194.95,6451.71 c -140.43,-282.13 -465.99,-826.18 -521.4,-926.93 -43.78,-79.59 -59.64,-127.91 -46.93,-232.91 10.87,-89.76 55.52,-143.98 140.87,-145.85 97.51,-2.12 173.76,12.73 223.9,87.39 69.04,102.83 297.85,885.76 321.01,1129.47 -29.86,26.47 -85.42,65.5 -117.45,88.83" /><path
         id="path154"
         style="fill:#c87e53;fill-opacity:1;fill-rule:nonzero;stroke:none"
         d="m 9171.36,6327.91 c -7.67,31.77 -89.7,129.49 -97.76,164.17 -7.69,33.51 -4.26,69.31 -15.27,102.63 -9.18,27.59 -33.71,50.22 -34.51,80.85 -0.12,4.21 0.17,8.67 1.12,13.38 l 0.1,0.4 c 35.07,7.29 53.62,-24.9 71.03,-58.75 7.89,-15.33 15.58,-30.98 24.4,-43.49 13.12,-18.46 28.84,-29.91 51.8,-23.18 l -0.31,-87.91 -0.62,-145.67 0.02,-2.43" /><path
         id="path156"
         style="fill:#e8a273;fill-opacity:1;fill-rule:nonzero;stroke:none"
         d="m 9171.38,6327.9 -0.03,-7.4 c 0.84,1.73 0.78,4.27 0.03,7.4" /><path
         id="path158"
         style="fill:#c87e53;fill-opacity:1;fill-rule:nonzero;stroke:none"
         d="m 9299.76,6286.1 -4.13,-4.12 c -29.21,28.51 -69.25,55.61 -106.71,0.82 l -17.58,47.54 -38.48,104.33 c -16.3,56.14 -29.99,113.88 -35.04,168.97 -0.79,9.1 -1.4,18.1 -1.75,26.95 -1.46,37.7 1.81,73.79 11.73,106.95 1.42,4.75 2.92,9.41 4.65,14.09 5.2,14.04 9.7,26.16 14.06,37.43 10.22,26.38 19.66,48.29 34.52,79.46 16.53,34.71 53.6,88.4 86.12,108.2 27.95,-31.45 -48.14,-153.17 -73.41,-201.36 -2.59,-4.87 -4.6,-9.04 -5.98,-12.23 2.23,3.69 4.52,7.65 6.93,11.93 42.16,74.14 113.68,227.85 147.21,214.35 33,-36.32 -68.55,-187.77 -92.8,-237.75 -1.02,-2.22 -1.95,-4.18 -2.7,-5.94 0.86,1.32 2.03,3.24 3.47,5.59 21.65,36.47 102.8,186.82 122.56,180.81 31.13,-9.47 -32.51,-142.72 -50.97,-200.36 11.76,24.33 61.74,117.62 76.36,116.06 23.04,-18.79 -7.16,-88.19 -20.93,-131.93 -1.46,-4.73 -2.79,-9.14 -3.82,-13.18 -1.05,-4.27 -2.36,-8.64 -3.72,-12.95 -3.18,-10.2 -6.84,-20.52 -9.25,-31.08 -0.81,-3.7 -1.5,-7.44 -1.93,-11.24 -0.57,-5.17 -0.78,-10.3 -0.43,-15.46 1.82,-24.94 18.48,-54.71 24.61,-79.6 25.58,-104.43 14.05,-187.88 -62.59,-266.28" /><path
         id="path160"
         style="fill:#c87e53;fill-opacity:1;fill-rule:nonzero;stroke:none"
         d="m 9278.38,6395.6 c -11.19,74.49 -59.47,141.27 -119.97,177.74 -9.7,5.83 -25.2,9.16 -37.94,13.76 -6.74,2.42 -12.76,5.19 -16.69,8.83 -2.25,2.07 -4.16,4.73 -5.96,7.71 -5.49,9.48 -9.09,22.33 -13.91,31.17 -14.81,27 -39.26,37.7 -58.97,54.13 l 0.1,0.4 c 35.07,7.29 53.62,-24.9 71.03,-58.75 -1.46,37.7 1.81,73.79 11.73,106.95 1.42,4.75 2.92,9.41 4.65,14.09 5.2,14.04 9.7,26.16 14.06,37.43 11.73,-2.27 23.16,-4.75 32.28,-8.12 5,-1.82 10.01,-3.64 14.95,-5.58 l 0.95,-0.3 c 18.44,-7.11 36.62,-14.79 54.41,-23.4 l 0.77,-0.35 c 7.33,-3.57 14.61,-7.4 21.77,-11.31 29.62,-16.29 65.56,-31.38 97.71,-50.24 -3.18,-10.2 -6.84,-20.52 -9.25,-31.08 -74.16,29.77 -166.39,56.11 -166.86,-19.74 -0.27,-54.34 50.78,-67.65 79.38,-103.72 22.4,-28.38 42.87,-103.04 25.76,-139.62" /><path
         id="path162"
         style="fill:#351414;fill-opacity:1;fill-rule:nonzero;stroke:none"
         d="m 10244.4,6817.47 c -71.4,66.03 -146.8,115.69 -134,221.15 12.1,100.23 58.7,213.9 0,313.05 l -292.32,-459.38 c -6.57,-102.86 -125.94,-156.44 -165.46,-243.62 -34.61,-76.33 -28.48,-165.77 10.63,-236.61 68.21,-123.56 265.28,-167.59 391.85,-123.73 213.4,73.96 381,351.8 189.3,529.14" /><path
         id="path164"
         style="fill:#e8a273;fill-opacity:1;fill-rule:nonzero;stroke:none"
         d="m 9731.17,6845.78 c 2.07,1.92 4.25,3.62 6.61,4.97 l -6.61,-4.97" /><path
         id="path166"
         style="fill:#e8a273;fill-opacity:1;fill-rule:nonzero;stroke:none"
         d="m 9750.41,6977.23 5.36,5.89 c -1.9,-1.76 -3.69,-3.75 -5.36,-5.89" /><path
         id="path168"
         style="fill:#e8a273;fill-opacity:1;fill-rule:nonzero;stroke:none"
         d="m 9504.34,6339.28 c -3.06,-40.27 -91.28,-83.95 -151.21,-111.58 -126.66,-247.16 186.56,-400.28 639,48.2 -44.61,24.88 -138.32,55.59 -170.08,131.34 -26.63,63.36 -46.17,141.97 -54.34,231.42 -0.21,1.75 -0.33,3.54 -0.48,5.3 -5.67,66.08 -62.82,273.12 -16.82,333.27 l -268.91,-297.27 -60.61,-67.02 c 34.44,-91.56 90.41,-182.2 83.45,-273.66" /><path
         id="path170"
         style="fill:#c87e53;fill-opacity:1;fill-rule:nonzero;stroke:none"
         d="m 9504.34,6339.28 c 22.07,-8.38 46.83,-13.5 74.58,-14.76 81.88,-3.66 174.59,27.49 243.13,82.72 -26.63,63.36 -46.17,141.97 -54.34,231.42 l -286.21,41.3 -60.61,-67.02 c 34.44,-91.56 90.41,-182.2 83.45,-273.66" /><path
         id="path172"
         style="fill:#e8a273;fill-opacity:1;fill-rule:nonzero;stroke:none"
         d="m 10000.4,7068.08 c -42.27,360.62 -420.59,421.22 -586,346.22 -103.44,-46.9 -118.83,-98.96 -135.63,-235.78 -8.56,-69.72 -6.24,-122.26 -34.03,-193.17 -25.53,-65.05 -56.44,-156.02 -56.14,-231.25 0.55,-126.16 53.3,-271.89 149.26,-348.74 180.05,-144.19 716.14,205.94 662.54,662.72" /><path
         id="path174"
         style="fill:#c87e53;fill-opacity:1;fill-rule:nonzero;stroke:none"
         d="m 9414.24,6918.46 c -14.95,-0.72 -19.5,25.28 -34.92,27.24 -34.27,4.23 -68.69,14.5 -98.7,27.72 -6.36,2.79 -23.4,-19.49 -29.37,-16.42 0,0 20.07,41.69 35.62,58.83 20.6,22.67 52.36,46.53 88.71,35.24 8.43,-2.62 15.65,-5.95 21.72,-9.76 38.5,-24.39 22.02,-95.28 16.94,-122.85" /><path
         id="path176"
         style="fill:#ffffff;fill-opacity:1;fill-rule:nonzero;stroke:none"
         d="m 9414.24,6918.46 c -14.95,-0.72 -30.32,0.02 -45.75,1.99 -34.26,4.26 -68.69,14.49 -98.67,27.72 -6.4,2.82 -12.6,5.76 -18.57,8.83 0,0 9.24,16.45 24.81,33.6 20.61,22.64 52.35,46.52 88.68,35.24 8.46,-2.64 15.67,-5.97 21.72,-9.77 38.5,-24.39 32.86,-70.04 27.78,-97.61" /><path
         id="path178"
         style="fill:#304354;fill-opacity:1;fill-rule:nonzero;stroke:none"
         d="m 9384.99,6967.3 c -3.27,-17.28 -9.06,-33.24 -16.5,-46.85 -34.26,4.26 -68.69,14.49 -98.67,27.72 0.07,8.95 1,18.4 2.85,28.08 0.92,4.89 2.06,9.7 3.39,14.35 20.61,22.64 52.35,46.52 88.68,35.24 8.46,-2.64 15.67,-5.97 21.72,-9.77 2.19,-14.54 1.86,-31.2 -1.47,-48.77" /><path
         id="path180"
         style="fill:#ffffff;fill-opacity:1;fill-rule:nonzero;stroke:none"
         d="m 9303.37,6963.6 c -2.89,-8.43 -9.57,-13.95 -14.9,-12.35 -5.34,1.61 -7.3,9.74 -4.41,18.16 2.89,8.43 9.58,13.97 14.91,12.35 5.33,-1.58 7.3,-9.74 4.4,-18.16" /><path
         id="path182"
         style="fill:#c87e53;fill-opacity:1;fill-rule:nonzero;stroke:none"
         d="m 9785.16,6789.98 c -16.3,0.03 -22.56,26.89 -39.53,29.69 -37.66,6.07 -75.82,18.29 -109.27,33.35 -7.13,3.21 -24.62,-18.84 -31.31,-15.36 0,0 19.86,41.78 36.03,58.59 21.39,22.24 54.92,45.16 95.22,31.78 9.37,-3.13 17.42,-6.89 24.24,-11.12 43.32,-26.95 28.83,-98.88 24.62,-126.93" /><path
         id="path184"
         style="fill:#ffffff;fill-opacity:1;fill-rule:nonzero;stroke:none"
         d="m 9785.16,6789.98 c -16.3,0.03 -33.15,1.53 -50.1,4.32 -37.69,6.07 -75.83,18.3 -109.29,33.37 -7.13,3.2 -14.03,6.51 -20.72,9.99 0,0 9.28,16.41 25.45,33.22 21.4,22.24 54.94,45.16 95.22,31.78 9.39,-3.14 17.41,-6.89 24.25,-11.12 43.29,-26.94 39.4,-73.51 35.19,-101.56" /><path
         id="path186"
         style="fill:#304354;fill-opacity:1;fill-rule:nonzero;stroke:none"
         d="m 9750.77,6841.55 c -2.73,-17.56 -8.25,-33.66 -15.71,-47.25 -37.69,6.07 -75.83,18.3 -109.29,33.37 -0.33,9.17 0.21,18.81 1.75,28.67 0.77,4.97 1.73,9.84 2.98,14.54 21.4,22.24 54.94,45.16 95.22,31.78 9.39,-3.14 17.41,-6.89 24.25,-11.12 3.09,-15.02 3.58,-32.1 0.8,-49.99" /><path
         id="path188"
         style="fill:#ffffff;fill-opacity:1;fill-rule:nonzero;stroke:none"
         d="m 9668.66,6840.09 c -2.76,-8.51 -9.77,-13.86 -15.68,-11.95 -5.92,1.92 -8.47,10.39 -5.71,18.87 2.74,8.51 9.75,13.87 15.69,11.95 5.89,-1.92 8.45,-10.37 5.7,-18.87" /><path
         id="path190"
         style="fill:#c87e53;fill-opacity:1;fill-rule:nonzero;stroke:none"
         d="m 9396.06,6782.71 1.04,-2.7 c 0.99,-14.8 14,-45.46 27.08,-54.03 18.66,-12.23 45.58,3.27 61.74,13.85 -42.34,-1.18 -61.21,14.71 -89.86,42.88" /><path
         id="path192"
         style="fill:#4c1d1b;fill-opacity:1;fill-rule:nonzero;stroke:none"
         d="m 9322.22,7195.91 c 0,0 2.32,1.5 6.42,4.09 1.07,0.62 2.09,1.45 3.48,2.08 1.42,0.61 2.97,1.28 4.59,2 1.68,0.71 3.47,1.49 5.34,2.29 1.92,0.53 3.98,1.14 6.1,1.75 4.27,1.4 9.08,2.07 14.23,2.84 2.59,0.5 5.27,0.5 8,0.61 2.76,0.04 5.6,0.36 8.46,0.16 5.73,-0.32 11.78,-0.54 17.77,-1.86 6.1,-0.81 12.05,-2.76 18.16,-4.36 5.88,-2.22 11.96,-4.15 17.53,-7.07 5.83,-2.47 11,-5.95 16.13,-9.17 2.53,-1.69 4.77,-3.66 7.05,-5.51 2.24,-1.87 4.49,-3.63 6.36,-5.75 1.93,-2.03 3.79,-4.01 5.6,-5.91 1.84,-1.91 3.17,-4.11 4.67,-6.06 1.44,-1.97 2.79,-3.87 4.05,-5.71 1.06,-1.97 2.08,-3.83 2.96,-5.58 0.9,-1.76 1.72,-3.41 2.51,-4.96 0.73,-1.53 1.08,-3.07 1.57,-4.38 1.83,-5.4 2.62,-8.44 2.62,-8.44 l -23.17,-5.85 c 0,0 -1.29,2.1 -3.16,5.78 -0.83,1.87 -2.25,3.95 -3.88,6.37 -0.82,1.2 -1.62,2.52 -2.46,3.89 -1.06,1.27 -2.19,2.59 -3.28,4.02 -2.07,2.93 -4.91,5.72 -7.79,8.81 -1.38,1.57 -3.11,2.97 -4.77,4.45 -1.71,1.43 -3.27,3.16 -5.16,4.57 -3.69,2.91 -7.47,6.09 -11.77,8.82 -4.09,3.08 -8.78,5.3 -13.36,7.97 -4.79,2.03 -9.54,4.53 -14.53,6 -4.93,1.85 -9.91,3.03 -14.8,4.29 -2.45,0.66 -4.88,0.85 -7.26,1.29 -2.41,0.35 -4.78,0.85 -7.06,0.88 -4.58,0.31 -9.01,0.7 -13.02,0.3 -2.05,-0.08 -4,-0.19 -5.85,-0.27 -1.79,-0.28 -3.47,-0.56 -5.07,-0.8 -1.62,-0.26 -3.14,-0.51 -4.54,-0.74 -1.44,-0.2 -2.73,-0.75 -3.93,-1.05 -4.72,-1.43 -7.42,-2.23 -7.42,-2.23 l -1.32,2.44" /><path
         id="path194"
         style="fill:#4c1d1b;fill-opacity:1;fill-rule:nonzero;stroke:none"
         d="m 9889.34,7022.07 c 0,0 -1.1,3.21 -3.04,8.82 -0.54,1.4 -0.86,2.96 -1.75,4.64 -0.89,1.67 -1.85,3.49 -2.87,5.44 -1.06,1.95 -2.21,4.05 -3.4,6.26 -1.44,2.03 -2.94,4.12 -4.51,6.34 -3.03,4.62 -7.16,8.92 -11.51,13.62 -2.11,2.48 -4.69,4.53 -7.25,6.75 -2.61,2.13 -5.13,4.6 -8.01,6.63 -5.78,4.08 -11.77,8.52 -18.53,11.86 -6.54,3.89 -13.74,6.61 -20.87,9.77 -7.38,2.4 -14.73,5.24 -22.34,6.76 -7.53,2.1 -15.15,2.77 -22.59,3.66 -3.73,0.32 -7.42,0.16 -11,0.14 -3.63,-0.04 -7.16,0 -10.58,-0.57 -3.39,-0.47 -6.72,-0.91 -9.95,-1.32 -3.2,-0.41 -6.19,-1.5 -9.12,-2.17 -2.92,-0.77 -5.69,-1.56 -8.32,-2.34 -2.52,-1.06 -4.93,-2.04 -7.15,-3.03 -2.2,-1 -4.28,-1.92 -6.2,-2.77 -1.88,-0.9 -3.45,-2.08 -4.92,-2.98 -5.85,-3.7 -9,-6.01 -9,-6.01 l 17.83,-23.34 c 0,0 2.87,1.01 7.48,3.07 2.2,1.15 5.22,2.05 8.67,3.07 1.69,0.52 3.45,1.18 5.32,1.82 2.01,0.4 4.09,0.82 6.26,1.31 4.24,1.21 9.14,1.68 14.28,2.37 2.53,0.46 5.25,0.47 8.01,0.61 2.76,0.03 5.58,0.48 8.49,0.38 5.8,-0.08 11.89,0.06 18.14,-0.66 6.29,-0.23 12.54,-1.69 18.96,-2.68 6.19,-1.73 12.71,-3.01 18.64,-5.45 6.16,-2.02 11.87,-4.7 17.56,-7.26 2.85,-1.24 5.34,-2.94 7.97,-4.35 2.59,-1.5 5.24,-2.83 7.46,-4.56 4.68,-3.24 9.25,-6.26 12.79,-9.72 1.88,-1.67 3.7,-3.24 5.44,-4.75 1.5,-1.64 2.93,-3.2 4.23,-4.64 1.35,-1.5 2.66,-2.89 3.84,-4.2 1.2,-1.28 2.04,-2.82 2.95,-4.01 3.5,-4.97 5.44,-7.81 5.44,-7.81 l 3.15,1.3" /><path
         id="path196"
         style="fill:#c87e53;fill-opacity:1;fill-rule:nonzero;stroke:none"
         d="m 9602.54,6637.21 c -10.1,-12.65 -21.68,-26.91 -34.58,-40.9 -22.27,-24.12 -48.46,-47.56 -77.28,-60.61 -26.38,-12.12 -55.02,-15.46 -84.96,-2.82 -19.48,8.22 -33.41,19.84 -43.52,33.68 -25.34,34.43 -27.66,82.69 -37.23,126.98 7.9,-7.35 17.1,-14.17 27.24,-20.32 72.91,-44.78 194.5,-59.63 250.33,-36.01" /><path
         id="path198"
         style="fill:#c14d33;fill-opacity:1;fill-rule:nonzero;stroke:none"
         d="m 9602.69,6637.46 -0.18,-0.21 0.23,0.05 c 1.14,0.37 1.11,0.43 -0.05,0.16" /><path
         id="path200"
         style="fill:#ffffff;fill-opacity:1;fill-rule:nonzero;stroke:none"
         d="m 9602.54,6637.21 c -10.1,-12.65 -21.68,-26.91 -34.58,-40.9 -33.23,-7.7 -65.64,-5.12 -99.88,1.13 -31.36,5.79 -66.69,13.94 -91.15,35.17 -13.58,11.82 -19.22,26.41 -24.72,40.61 72.91,-44.78 194.5,-59.63 250.33,-36.01" /><path
         id="path202"
         style="fill:#ff8585;fill-opacity:1;fill-rule:nonzero;stroke:none"
         d="m 9490.68,6535.7 c -26.38,-12.12 -55.02,-15.46 -84.96,-2.82 -19.48,8.22 -33.41,19.84 -43.52,33.68 25.01,9.24 62.17,11.73 77.9,6.73 21.49,-6.76 40.22,-19.87 50.58,-37.59" /><path
         id="path204"
         style="fill:#e8a273;fill-opacity:1;fill-rule:nonzero;stroke:none"
         d="m 9987.23,6604.52 c -30.51,-57.3 -85.09,-87.88 -121.91,-68.29 -36.84,19.6 -41.99,81.97 -11.49,139.28 30.5,57.32 85.09,87.9 121.94,68.29 36.83,-19.59 41.93,-81.95 11.46,-139.28" /><path
         id="path206"
         style="fill:#c87e53;fill-opacity:1;fill-rule:nonzero;stroke:none"
         d="m 9869.68,6644.99 c -5.43,-17.87 13.19,-22.99 25.63,-17.14 17.11,8.02 19.07,28.91 28.93,43.48 22.79,33.73 48.35,20.35 54.59,-9.6 -2.02,144.36 -109.15,-16.74 -109.15,-16.74" /><path
         id="path208"
         style="fill:#4c1d1b;fill-opacity:1;fill-rule:nonzero;stroke:none"
         d="m 10203.5,7261.04 c -3.4,-185.9 -185.5,-487.07 -333.84,-616.02 48.72,250.56 80.66,483.93 -218.62,525.68 -100.85,14.06 -141.91,33.41 -153.12,139.2 -8.42,79.13 3.49,108.59 24.23,149.5 9.04,18.1 19.89,38.42 31.45,66.26 l 20.88,69.61 c 174.01,160.07 584.62,-27.85 626.42,-292.33 2.1,-13.15 2.9,-27.15 2.6,-41.9" /><path
         id="path210"
         style="fill:#4c1d1b;fill-opacity:1;fill-rule:nonzero;stroke:none"
         d="m 9693.64,7448.75 c -19.63,-192.23 -460.41,-109.76 -410.79,-303.53 1.33,-5 2.93,-10.22 4.88,-15.58 -3.06,4.52 -6.2,9.12 -9.33,13.91 -55.06,83.88 -114.35,208.32 -90.54,308.34 6.33,26.73 18.64,51.78 38.61,73.77 114.71,126.55 334.09,125.29 431.53,55.69 l 34.8,-97.45 c 1.74,-12.59 1.96,-24.29 0.84,-35.15" /><path
         id="path212"
         style="fill:#351414;fill-opacity:1;fill-rule:nonzero;stroke:none"
         d="m 9693.64,7448.75 c -19.63,-192.23 -460.41,-109.76 -410.79,-303.53 -1.1,-0.41 -2.22,-0.75 -3.27,-1.18 l -1.18,-0.49 c -55.06,83.88 -114.35,208.32 -90.54,308.34 4.16,4.17 8.55,8.29 13.08,12.39 69.04,62.08 163.28,78.58 254.03,75.3 55.75,-2.01 142.69,-21.91 186.82,-13.92 l 51.85,-76.91" /><path
         id="path214"
         style="fill:#351414;fill-opacity:1;fill-rule:nonzero;stroke:none"
         d="m 10203.5,7261.04 c -3.4,-185.9 -185.5,-487.07 -333.84,-616.02 48.72,250.56 80.66,483.93 -218.62,525.68 -100.85,14.06 -141.91,33.41 -153.12,139.2 -8.42,79.13 3.49,108.59 24.23,149.5 0,0 -11.4,68.97 17.54,70.89 139.19,9.29 408.05,-134.66 468.61,-283.02 23.4,-57.29 10.4,-169.49 28.9,-222.38 41,73.16 116.9,130.5 155.7,211.94 3.7,7.93 7.3,16.06 10.6,24.21" /><path
         id="path216"
         style="fill:#5b102e;fill-opacity:1;fill-rule:nonzero;stroke:none"
         d="m 10102.2,5464.93 -271.46,-438.46 c -4.6,-86.49 56.58,-250.01 148.75,-258.38 143.51,-13.04 225.31,43.15 279.31,122.66 151.1,222.9 -6.7,405.92 -156.6,574.18" /><path
         id="path218"
         style="fill:#e8a273;fill-opacity:1;fill-rule:nonzero;stroke:none"
         d="m 9894.05,6527.88 -36.58,-81.04 -61.63,-136.53 c 20.81,25.82 141.84,79.17 164.25,107.5 21.57,27.39 33.2,61.88 58.01,87.61 20.4,21.34 53.9,31.22 67.5,59.03 2,3.98 3.6,8.37 4.6,13.26 -66,47.38 -134.21,-102.05 -196.15,-49.83" /><path
         id="path220"
         style="fill:#e8a273;fill-opacity:1;fill-rule:nonzero;stroke:none"
         d="m 9795.86,6310.29 -3.09,-6.84 c -0.09,1.96 1.03,4.27 3.09,6.84" /><path
         id="path222"
         style="fill:#c87e53;fill-opacity:1;fill-rule:nonzero;stroke:none"
         d="m 9894.05,6527.88 -36.58,-81.04 c 28.24,20.54 55.53,27.92 88.02,45.03 30.74,16.25 57.61,48.98 90.11,63.96 18.3,8.47 34.1,8.91 50,8.62 2,3.98 3.6,8.37 4.6,13.26 -66,47.38 -134.21,-102.05 -196.15,-49.83" /><path
         id="path224"
         style="fill:#e8a273;fill-opacity:1;fill-rule:nonzero;stroke:none"
         d="m 9655.51,6323.36 -2.3,5.67 c -41.77,106.25 -17.95,188.18 50.79,272.89 16.41,20.2 45.17,40.16 57.4,62.26 2.54,4.59 4.49,9.43 6.09,14.4 5.77,18.65 5.54,39.14 8.67,57.5 0.72,4.17 1.28,8.84 1.84,13.89 4.94,46.32 4.66,123.68 35.03,130.68 14.84,-5.08 24.42,-113.16 25.65,-140.8 6.17,61.23 0.15,212.2 34.45,207.02 23.21,-3.42 39.76,-201.29 44.53,-227.59 0.44,47.11 -40.22,247.16 9.24,266.74 40.61,-2.61 44.05,-196.21 55.21,-276.87 0.29,38.59 -32.22,213.78 12.35,231.9 23.34,-32.71 36.94,-98.59 38.44,-137.92 2.1,-50.44 1.1,-78.59 -1.7,-129.21 -0.3,-5.03 -0.8,-10.03 -1.4,-15 -11.3,-93.45 -78.24,-184.96 -151.58,-267.52 l -118.43,-114.79 c -13.49,67.06 -63.83,59.99 -104.28,46.75" /><path
         id="path226"
         style="fill:#c87e53;fill-opacity:1;fill-rule:nonzero;stroke:none"
         d="m 9767.49,6678.58 c 5.77,18.65 5.54,39.14 8.67,57.5 7.2,42.46 3.21,136.79 36.87,144.57 14.84,-5.08 24.42,-113.16 25.65,-140.8 6.17,61.23 0.15,212.2 34.45,207.02 23.21,-3.42 39.76,-201.29 44.53,-227.59 0.44,47.11 -40.22,247.16 9.24,266.74 40.61,-2.61 44.05,-196.21 55.21,-276.87 0.29,38.59 -32.22,213.78 12.35,231.9 23.34,-32.71 36.94,-98.59 38.44,-137.92 2.1,-50.44 1.1,-78.59 -1.7,-129.21 -0.3,-5.03 -0.8,-10.03 -1.4,-15 -13.3,-0.06 -25.1,8.54 -32.21,32.15 -18.94,-40.8 -61.24,-18.4 -74.09,11.52 -30.15,-25.19 -58.37,-12.69 -73.74,20.09 -14.86,-33.8 -46.49,-51.6 -82.27,-44.1" /><path
         id="path228"
         style="fill:#c87e53;fill-opacity:1;fill-rule:nonzero;stroke:none"
         d="m 9653.21,6329.03 c -41.77,106.25 -17.95,188.18 50.79,272.89 16.41,20.2 45.17,40.16 57.4,62.26 2.54,4.59 4.49,9.43 6.09,14.4 5.77,18.65 5.54,39.14 8.67,57.5 0.72,4.17 1.28,8.84 1.84,13.89 l 27.88,-26.05 c -6.84,-45.01 -21.57,-82.58 -48.95,-117.96 -26.53,-34.31 -71.33,-56.66 -89.69,-95.39 -29.83,-63.09 -28.26,-120.65 -14.03,-181.54" /><path
         id="path230"
         style="fill:#e8a273;fill-opacity:1;fill-rule:nonzero;stroke:none"
         d="m 9808.85,6424.23 c 95.66,-352.3 344.55,-1046.26 384.95,-1173.48 31.9,-100.5 38.6,-158.66 -2.3,-272.48 -34.9,-97.28 -100.8,-145.93 -201.78,-125.28 -115.33,23.59 -177.72,57.01 -218.3,153.69 -55.9,133.16 -155.66,1071.48 -122.75,1349.68 41.68,21.58 116.73,50.38 160.18,67.87" /><path
         id="path232"
         style="fill:#c87e53;fill-opacity:1;fill-rule:nonzero;stroke:none"
         d="m 9899.23,5013.07 c 2.22,-2.59 4.6,-4.91 6.97,-7.23 l -0.01,0.27 -6.96,6.96" /><path
         id="path234"
         style="fill:#c87e53;fill-opacity:1;fill-rule:nonzero;stroke:none"
         d="m 9906.2,5005.84 c 0.72,-97.89 190,-104.04 186.5,-0.45 -53.2,-38.66 -137.07,-47.86 -186.5,0.45" /><path
         id="path236"
         style="fill:#e8a273;fill-opacity:1;fill-rule:nonzero;stroke:none"
         d="m 7367.04,6322.23 c -16.83,-13.47 -38.52,-30.09 -63.7,-48.93 -169.31,-126.55 -498.44,-353.54 -601.57,-402.88 -92.25,-44.16 -232.73,-85.84 -339.44,-67.66 -31.28,5.36 -67.23,20.34 -97.81,41.23 -51.63,35.35 -87.75,87.38 -59.98,137.53 10.27,18.33 25.21,37.82 43.12,57.25 45.08,49.09 109.11,98.57 163.7,132.14 14.5,8.88 28.36,16.76 40.94,23.12 93.02,46.86 311.87,90.8 411.98,120.51 63.37,18.74 177.02,45.85 285.39,76.7 13.61,3.89 27.21,7.84 40.56,11.81 48.31,14.42 93.98,29.35 131.96,44.69 l 44.85,-125.51" /><path
         id="path238"
         style="fill:#c87e53;fill-opacity:1;fill-rule:nonzero;stroke:none"
         d="m 7303.34,6273.3 c -169.31,-126.55 -498.44,-353.54 -601.57,-402.88 -92.25,-44.16 -232.73,-85.84 -339.44,-67.66 -31.28,5.36 -67.23,20.34 -97.81,41.23 l 8.47,40.1 c 60.38,47.75 239.12,47.22 324.47,64.65 100.13,20.55 198.03,57.31 291.01,99.19 145.9,65.69 263.94,172.95 414.87,225.37" /><path
         id="path240"
         style="fill:#323232;fill-opacity:1;fill-rule:nonzero;stroke:none"
         d="m 7614.96,6208.79 -20.6,-1.08 -18.87,-1 c -2.58,-0.15 -4.91,0.87 -6.55,2.59 -1.28,1.33 -2.08,3.05 -2.18,4.99 -0.12,2.2 0.69,4.25 2.16,5.79 1.41,1.55 3.44,2.53 5.73,2.65 l 39.47,2.08 c 4.57,0.25 8.5,-3.16 8.73,-7.58 0.12,-2.32 -0.8,-4.45 -2.39,-6.03 -1.38,-1.41 -3.33,-2.29 -5.5,-2.41 z m 33.09,234.93 c -17.51,15.2 -41.06,23.92 -66.44,22.58 -50.82,-2.68 -89.95,-44.61 -87.36,-93.63 l 5,-95.01 c 1.29,-24.5 12.77,-46.15 30.26,-61.36 7.36,-6.36 15.7,-11.59 24.83,-15.41 l 0.04,0.01 c 3.53,-1.52 7.19,-2.78 10.95,-3.81 l 0.09,-0.05 c 9.64,-2.7 19.95,-3.89 30.55,-3.33 10.84,0.57 21.13,2.93 30.6,6.77 3.15,1.24 6.18,2.69 9.11,4.21 29.95,16.04 49.5,47.55 47.65,82.66 l -5,95 c -1.3,24.51 -12.77,46.17 -30.28,61.37" /><path
         id="path242"
         style="fill:#ffffff;fill-opacity:1;fill-rule:nonzero;stroke:none"
         d="m 7672.42,6147.13 0.01,-0.21 -0.03,-0.91 c 0.1,-20.81 -8.95,-41.2 -24.05,-55.27 -5,-4.71 -10.66,-8.71 -16.91,-11.8 -8.77,-4.37 -18.69,-6.98 -29.39,-7.2 -9.61,-0.17 -19.15,1.38 -28.06,4.4 -6.82,2.34 -13.34,5.56 -19.25,9.56 -16.37,11.04 -28.15,27.98 -30.21,48.26 -0.17,1.76 -0.31,3.56 -0.32,5.38 -0.43,23.91 11.17,47.32 30.17,61.56 3.16,2.37 6.56,4.52 10.16,6.36 1.43,0.72 2.89,1.39 4.4,2.04 l 2,0.83 c 3.31,1.25 6.75,2.32 10.29,3.07 4.07,0.85 8.34,1.4 12.75,1.52 l 0.54,0.02 c 9.12,0.2 17.85,-1.07 25.94,-3.54 -1.38,-1.41 -3.33,-2.29 -5.5,-2.41 l -20.6,-1.08 0.07,-1.45 -2.03,-0.22 c -1.28,-0.15 -2.53,-0.35 -3.76,-0.57 -2.07,-0.38 -4.13,-0.86 -6.18,-1.37 -1.03,-0.25 -2.01,-0.55 -3.04,-0.92 -1.96,-0.64 -3.96,-1.33 -5.88,-2.12 l -0.37,-0.14 c -1.79,-0.79 -3.58,-1.6 -5.28,-2.5 l -2.47,-1.38 c -19.02,-10.76 -32.56,-29.84 -32.68,-52.11 -0.01,-1.57 0.08,-3.15 0.21,-4.71 l 0.03,-0.43 c 1.81,-20.49 13.57,-39.44 30.81,-50.37 7.8,-4.87 16.77,-8.14 26.44,-9.12 3.52,-0.35 7.14,-0.44 10.84,-0.11 l 0.54,0.02 c 3.24,0.3 6.43,0.75 9.51,1.42 10.1,2.2 19.2,6.37 26.87,12.11 16.2,12.11 26.02,31.17 25.67,52.94 -2.05,22.92 -16.44,43.9 -37.09,53.8 3.15,1.24 6.18,2.69 9.11,4.21 20.23,-11.45 34.13,-31.67 36.61,-56.43 l 0.13,-1.13" /><path
         id="path244"
         style="fill:#818181;fill-opacity:1;fill-rule:nonzero;stroke:none"
         d="m 7637.65,5742.96 -5.21,-10.68 c -2.14,-4.4 -6.59,-7.3 -11.6,-7.56 -5.01,-0.27 -9.76,2.16 -12.34,6.29 l -6.3,10.07 c -3.22,5.15 -5.07,11.01 -5.39,17.03 l -9.81,186.13 44.41,2.34 9.81,-186.13 c 0.32,-6.02 -0.91,-12.04 -3.57,-17.49" /><path
         id="path246"
         style="fill:#989898;fill-opacity:1;fill-rule:nonzero;stroke:none"
         d="m 7631.41,5946.58 3.21,-60.71 -4.99,-0.25 0.72,-13.6 -4.75,-5.07 0.46,-8.66 4.73,-4.09 1.3,-24.54 c 0,0 -4.56,-5.38 -1.74,-8.46 0,0 -6.73,-8.07 3.15,-13 3.28,-1.66 5.46,-4.76 5.65,-8.33 v -0.04 c 0.12,-2.36 -0.64,-4.7 -2.16,-6.59 -2,-2.51 -4.2,-6.85 -1.84,-12.34 0,0 -8.28,-7.49 -1.76,-17.44 l 0.32,-6.13 c 0.29,-5.42 -0.17,-10.88 -1.49,-16.15 l -0.27,-1.03 c -0.99,-3.71 -2.49,-7.81 -4.71,-11.6 -0.85,-1.44 -2.07,-2.48 -3.47,-3.12 -0.93,-0.42 -1.92,-0.66 -2.94,-0.71 h -0.15 c -0.96,-0.05 -1.91,0.08 -2.83,0.4 -1.44,0.47 -2.78,1.37 -3.78,2.73 -2.61,3.54 -4.53,7.47 -5.92,11.06 l -0.37,1.01 c -1.86,5.11 -2.9,10.46 -3.18,15.87 l -0.32,6.13 c 5.45,10.58 -3.57,17.17 -3.57,17.17 1.78,5.7 -0.87,9.8 -3.13,12.08 -1.7,1.71 -2.72,3.95 -2.84,6.31 v 0.07 c -0.19,3.55 1.66,6.87 4.74,8.88 9.3,5.91 1.76,13.23 1.76,13.23 2.49,3.35 -2.6,8.23 -2.6,8.23 l -1.29,24.54 4.25,4.57 -0.45,8.67 -5.24,4.54 -0.71,13.59 -5,-0.27 -3.2,60.71 44.41,2.34" /><path
         id="path248"
         style="fill:#818181;fill-opacity:1;fill-rule:nonzero;stroke:none"
         d="m 7615.07,5890.53 8.7,-165.1 c -0.93,-0.42 -1.92,-0.65 -2.94,-0.71 h -0.15 c -0.95,-0.05 -1.92,0.08 -2.83,0.4 l -8.69,165.09 c -0.03,0.59 0.11,4.06 0.48,7.4 0.33,3.12 0.86,6.12 1.59,6.52 l 0.16,0.05 c 1.63,0.08 3.62,-12.49 3.68,-13.65" /><path
         id="path250"
         style="fill:#95bbc1;fill-opacity:1;fill-rule:nonzero;stroke:none"
         d="m 7633.14,5913.82 -1.73,32.76 1.74,-32.76" /><path
         id="path252"
         style="fill:#797979;fill-opacity:1;fill-rule:nonzero;stroke:none"
         d="m 7588.73,5911.48 -1.73,32.76 44.41,2.34 1.73,-32.76 -44.41,-2.34" /><path
         id="path254"
         style="fill:#4d4d4d;fill-opacity:1;fill-rule:nonzero;stroke:none"
         d="m 7602.04,6081.54 c 9.39,0.54 19.59,-0.16 30.38,-2.83 l 0.26,-4.88 c 0.24,-4.67 -3.49,-8.66 -8.33,-8.93 l -42.75,-2.25 c -4.84,-0.25 -8.97,3.34 -9.22,8.01 l -0.26,4.89 c 10.46,3.78 20.54,5.54 29.92,5.99 z m 79.31,-14.73 c -2.1,6.79 -7,12.44 -13.5,15.75 -24.25,12.29 -46.91,15.72 -66.63,14.58 -19.73,-0.94 -41.9,-6.72 -64.73,-21.51 -6.12,-3.96 -10.39,-10.09 -11.77,-17.08 -4.38,-21.95 -4.96,-74.37 61.51,-139.78 l 48.62,2.56 c 59.25,72.03 53.16,124.09 46.5,145.48" /><path
         id="path256"
         style="fill:#323232;fill-opacity:1;fill-rule:nonzero;stroke:none"
         d="m 7671.03,6024.18 c -0.13,-1.37 -0.28,-2.76 -0.47,-4.19 -2.66,-20.17 -12.01,-46.38 -36.03,-77.33 -2.93,-3.76 -7.43,-6.1 -12.28,-6.35 l -25.05,-1.32 c -4.87,-0.24 -9.57,1.58 -12.88,5.02 -27.14,28.24 -39.18,53.32 -43.95,73.09 -0.35,1.41 -0.64,2.8 -0.91,4.15 -2.82,14.19 -1.87,25.33 -0.45,32.52 1.15,5.75 4.67,10.79 9.72,14.07 7.93,5.13 15.77,8.94 23.39,11.71 l 0.26,-4.89 c 0.25,-4.67 4.38,-8.26 9.22,-8.01 l 42.75,2.25 c 4.84,0.27 8.57,4.26 8.33,8.93 l -0.26,4.88 c 7.88,-1.93 16.08,-4.9 24.5,-9.18 5.36,-2.72 9.4,-7.36 11.14,-12.98 2.16,-6.99 4.28,-17.96 2.97,-32.37" /><path
         id="path258"
         style="fill:#ffffff;fill-opacity:1;fill-rule:nonzero;stroke:none"
         d="m 7593.98,6214.72 0.45,-8.46 -2.03,-0.22 c -1.28,-0.15 -2.53,-0.35 -3.76,-0.57 -2.11,-0.35 -4.17,-0.82 -6.18,-1.37 -1.03,-0.25 -2.01,-0.55 -3.04,-0.92 -2.01,-0.59 -3.96,-1.3 -5.88,-2.12 l -0.37,-0.14 c -1.79,-0.73 -3.58,-1.56 -5.28,-2.5 l -2.56,-1.33 c -19.1,-10.82 -32.67,-29.9 -32.59,-52.16 -0.01,-1.57 0.08,-3.15 0.21,-4.71 l 0.17,-1.42 c 0.17,-1.57 0.42,-3.14 0.7,-4.69 0.32,-1.69 0.69,-3.36 1.13,-5.01 l 0.16,-0.54 c 4.52,-16.03 15.15,-30.2 29.46,-38.8 8.78,-5.37 18.99,-8.57 30.01,-8.83 2.13,-0.13 4.29,-0.05 6.45,0.09 l 0.43,-8.41 c -8.99,-0.12 -17.85,1.27 -26.24,3.96 -7.08,2.25 -13.75,5.42 -19.83,9.46 -16.61,10.84 -28.58,27.67 -30.86,47.93 -0.17,1.76 -0.31,3.56 -0.32,5.38 l -0.03,0.43 c -0.38,23.77 11.19,47.01 30.16,61.12 3.2,2.41 6.59,4.56 10.2,6.37 1.43,0.75 2.89,1.42 4.4,2.04 l 2,0.83 c 3.3,1.3 6.75,2.32 10.29,3.07 4.07,0.85 8.34,1.4 12.75,1.52" /><path
         id="path260"
         style="fill:#4d4d4d;fill-opacity:1;fill-rule:nonzero;stroke:none"
         d="m 7575.6,6280.28 c 1.24,-23.57 -11.11,-43.4 -27.58,-44.25 -16.46,-0.87 -30.81,17.54 -32.06,41.11 l -2.41,45.68 c -1.24,23.58 11.11,43.38 27.56,44.26 16.48,0.86 30.83,-17.55 32.07,-41.12 l 2.42,-45.68" /><path
         id="path262"
         style="fill:#4d4d4d;fill-opacity:1;fill-rule:nonzero;stroke:none"
         d="m 7666.78,6285.09 c 1.24,-23.58 -10.19,-43.35 -25.5,-44.15 -15.31,-0.81 -28.75,17.65 -29.99,41.21 l -2.4,45.69 c -1.24,23.58 10.17,43.34 25.49,44.14 15.32,0.81 28.75,-17.65 30,-41.21 l 2.4,-45.68" /><path
         id="path264"
         style="fill:#e8a273;fill-opacity:1;fill-rule:nonzero;stroke:none"
         d="m 7708.71,6482.34 c -18.02,22.27 -15.68,92.45 -40.55,103.62 -64.8,29.14 -172.82,4.41 -228.66,-36.41 -33.55,-24.53 -152.58,-144.69 -186.18,-164.53 l 9.82,-87.47 c 84.06,-20.71 105.64,-24.29 182.65,-2.07 34.75,10.02 80.8,17.53 115.57,20.87 30.36,2.92 57.49,12.52 59.94,55.27 -35.62,27.66 -94.96,7.12 -131.25,22.04 34.22,13.81 172.54,82.85 176.25,25.24 1.16,-18.26 15.83,-74.59 25.4,-56.9 21.45,39.59 46.25,84.2 17.01,120.34" /><path
         id="path266"
         style="fill:#ffffff;fill-opacity:1;fill-rule:nonzero;stroke:none"
         d="m 5683.11,6204.15 c 70.63,-92.74 209.27,-170.28 307.26,-245.02 102.6,-78.17 208.69,-158.08 346.36,-184.82 10.47,-2.03 20.31,-3.68 29.59,-4.89 127.84,-17.07 150.42,40.46 189.11,156.98 35.59,107.22 54.89,210.51 53.33,319.34 -71.59,-1.42 -128.86,-4.19 -182.54,7.95 -49.42,11.17 -95.82,34.97 -147.46,84.11 -90.81,86.28 -154.69,184.21 -240.13,274.42 -73.86,77.88 -240.73,291.46 -324.61,364.68 -80.2,69.98 -189.4,71.46 -237.76,50.67 l 206.85,-823.42" /><path
         id="path268"
         style="fill:#eaeaea;fill-opacity:1;fill-rule:nonzero;stroke:none"
         d="m 6366.32,5769.42 c 127.84,-17.07 150.42,40.46 189.11,156.98 35.59,107.22 54.89,210.51 53.33,319.34 -71.59,-1.42 -128.86,-4.19 -182.54,7.95 11.07,-72.97 12.36,-145.82 1.32,-224.97 -9.5,-68.23 -19.58,-184.48 -61.22,-259.3" /><path
         id="path270"
         style="fill:#e8a273;fill-opacity:1;fill-rule:nonzero;stroke:none"
         d="m 5277.46,925.211 c -4.73,-52.129 -36.96,-141.289 -53.51,-204.16 -11.41,-43.332 -14.01,-196.879 -44.87,-224.129 -114.19,-100.793 -108.26,333.797 -105.54,381.058 l 203.92,47.231" /><path
         id="path272"
         style="fill:#171f26;fill-opacity:1;fill-rule:nonzero;stroke:none"
         d="m 5087.93,585.723 101.12,9.136 c 48.86,54.7 69.6,-10.457 89.47,-37.699 23.58,-32.39 70.34,-56.847 105.12,-75.988 61.3,-33.75 214.02,-61.141 191.52,-153.801 -124.02,-9.172 -381.24,-7.109 -509.35,10.84 -55.13,7.711 -10.56,49.078 3.75,122.711 9.85,50.648 6.19,75.598 18.37,124.801" /><path
         id="path274"
         style="fill:#e8a273;fill-opacity:1;fill-rule:nonzero;stroke:none"
         d="m 4280.14,938.48 c -1.71,-52.332 -28.76,-143.082 -41.65,-206.718 -8.88,-43.891 -2.62,-197.352 -31.85,-226.211 -108.2,-106.77 -127.37,327.469 -127.37,374.789 l 200.87,58.14" /><path
         id="path276"
         style="fill:#171f26;fill-opacity:1;fill-rule:nonzero;stroke:none"
         d="m 4156.23,623.59 c 71.2,6.879 84.45,-50.328 97.08,-77.5 15.01,-32.301 39.41,-42.18 62.69,-61.25 41.03,-33.559 145.54,-60.61 126.23,-153.168 -86.15,-9.391 -301.9,-16.41 -389.79,1.25 -37.8,7.617 -13.39,32.297 20.1,113.047 19.75,47.64 16.73,171.172 83.69,177.621" /><path
         id="path278"
         style="fill:#4f2830;fill-opacity:1;fill-rule:nonzero;stroke:none"
         d="m 4933.44,4371.92 c -4.13,-121.45 -8.66,-254.12 -13.36,-393.56 -20.67,-615.78 -44.3,-1361.67 -50.06,-1841.05 -5.94,-492.8 103.6,-1064.07 184.83,-1389.939 h 233.91 c 7.63,154.578 23.12,378.049 43.74,643.419 66.82,861.05 159.59,2483.47 237.57,3302.01 l -636.63,-320.88" /><path
         id="path280"
         style="fill:#16090c;fill-opacity:1;fill-rule:nonzero;stroke:none"
         d="m 5288.76,747.371 c 17.11,346.569 22.3,367.669 43.74,643.419 -48.92,32.33 -96.49,67.1 -143.55,102.14 -68.6,51.01 -151.21,84.49 -177.49,171.68 -19.16,63.51 -4.61,147.74 -7.9,215.1 -6.73,138.59 -17.13,283.47 -16.74,421.3 0.86,315.43 8.37,633.18 8.37,950.67 0,166.41 9.16,329.73 16.64,491.37 4.64,97.11 7.88,110.25 83.11,171.55 63.69,51.91 122.42,106.41 181.12,163.71 -115.02,-25.62 -202.41,-108.83 -322.18,-102.9 -11.27,0.51 -22.51,1.53 -33.8,2.95 -20.67,-615.78 -44.3,-1361.67 -50.06,-1841.05 -5.94,-492.8 103.6,-1064.07 184.83,-1389.939 h 233.91" /><path
         id="path282"
         style="fill:#4f2830;fill-opacity:1;fill-rule:nonzero;stroke:none"
         d="m 4029.4,747.402 h 237.99 c 127.52,689.788 557.55,2735.248 795.83,3753.728 l -770.43,171.81 c -6.29,-170.06 -28.13,-426.12 -61.11,-721.53 -3.26,-29.55 -6.67,-59.47 -10.24,-89.75 C 4168,3401.39 4089.83,2860.8 4002.19,2403.53 3904.08,1891.61 3975.34,1138.18 4029.4,747.402" /><path
         id="path284"
         style="fill:#112d56;fill-opacity:1;fill-rule:nonzero;stroke:none"
         d="m 5810.53,6331 c -21.36,-258.29 -102.85,-501.48 -155.45,-755.5 -0.52,-2.76 -1.12,-5.64 -1.72,-8.38 -8.91,-43.44 -16.86,-87.24 -23.59,-131.53 -38.29,-253.96 -56.72,-841.94 -99.34,-1096.4 -0.15,-0.94 -0.82,-1.88 -2.02,-2.81 -0.83,-0.58 -1.8,-1.17 -3.07,-1.74 -5.25,-2.46 -14.46,-4.55 -27.04,-6.43 -8.03,-1.23 -17.46,-2.32 -28.17,-3.26 -2.25,-0.21 -4.57,-0.44 -6.98,-0.64 -255.44,-20.89 -1151.08,15.17 -1167.42,94.95 -16.25,79.57 -5.61,78.13 -11.68,188.77 -9.29,169.32 -9.36,366.99 -7.94,568.03 0,2.6 0.07,5.13 0.07,7.6 1.36,186.88 3.83,376.52 1.13,548.73 -0.3,17.64 -0.6,35.05 -0.97,52.33 -0.08,2.1 -0.08,4.11 -0.16,6.21 -0.45,16.91 -0.9,33.61 -1.42,50.01 -0.6,19.72 -1.35,39.1 -2.17,58.1 -0.53,12.37 -1.13,24.57 -1.8,36.64 -0.97,19.95 -2.18,39.46 -3.51,58.47 -5.1,74.66 -12.52,142.16 -23,199.76 -6.45,35.7 -12.07,74.58 -17.76,115.26 -1.35,9.33 -2.7,18.72 -4.05,28.18 -0.29,2.32 -0.67,4.71 -0.98,7.02 -1.27,9.03 -2.61,18.07 -3.96,27.16 -1.88,12.51 -3.75,25.09 -5.76,37.74 -3.46,22.18 -7.28,44.59 -11.55,66.91 -2.16,11.64 -4.49,23.35 -7.03,34.98 -7.42,34.91 -16.11,69.46 -26.82,102.84 -1.72,5.64 -3.53,11.14 -5.47,16.62 -1.8,5.49 -3.75,10.98 -5.77,16.4 -1.95,5.43 -3.97,10.84 -6.15,16.19 -4.19,10.71 -8.61,21.18 -13.4,31.52 -1.8,4.12 -3.74,8.16 -5.78,12.21 -0.82,1.65 -1.64,3.32 -2.47,4.98 -1.71,3.56 -3.51,7.08 -5.46,10.56 l -1.27,2.53 c -0.76,1.51 -1.58,3.11 -2.47,4.63 l -0.16,0.14 c -3,5.64 -6.13,11.2 -9.43,16.69 -1.43,2.31 -2.86,4.56 -4.27,6.87 10.49,32.22 21.35,64.39 32.8,96.55 15.59,43.79 30.94,87.59 44.95,131.89 36.86,22.61 75.51,43.65 112.3,61.78 35.43,17.49 69.22,32.32 98.2,43.44 42.78,16.49 86.68,31.66 129.98,47.91 4.56,1.67 8.98,3.33 13.48,5.15 27.12,10.32 53.93,21.24 80.07,33.3 21.51,9.83 75.9,33.46 106.84,53.33 17.82,11.43 27.78,21.69 19.54,27.39 l 529.55,-117.86 58.21,-12.93 v -0.08 l 19.25,-4.25 c 27.04,-8.75 57.53,-17.79 89.52,-27.61 114.17,-35.5 246.99,-82.82 308.78,-176.07 7.88,-11.99 14.69,-24.7 20.16,-38.29 57.45,-144.31 63.37,-295.72 42.63,-545.99" /><path
         id="path286"
         style="fill:#e8a273;fill-opacity:1;fill-rule:nonzero;stroke:none"
         d="m 5361.37,6881.93 c 1.34,-386.42 -88.03,-1071.31 -97.46,-1039.17 -151.25,510.67 -302.13,801.41 -429.78,980.21 -134.99,189.19 -243.98,252.86 -299.79,318.85 l 119.33,55.05 c 74.69,61.73 101.73,85.14 119.93,139.78 22.55,67.65 23.37,139.78 16.33,211.32 -14.6,150.68 -63.59,298.6 -16.33,396.67 80.24,-24.71 225.34,-167.07 311.78,-182.9 47.66,-8.75 95.29,-15.47 141.51,-19.38 -2.47,-50.36 -0.96,-105.51 5.33,-160.93 10.55,-93.23 26.29,-181.62 43.97,-264.44 4.72,-22.19 19.78,-81.31 31.46,-126.76 8.46,-32.66 15.13,-58.32 15.28,-58.46 27.34,-23.93 38.06,-120.05 38.44,-249.84" /><path
         id="path288"
         style="fill:#eaeaea;fill-opacity:1;fill-rule:nonzero;stroke:none"
         d="m 5361.39,6881.91 c 1.34,-386.41 -88.03,-1071.32 -97.53,-1039.15 -151.21,510.65 -302.08,801.43 -429.7,980.19 23.4,23.33 44.97,44.84 61.05,58.92 79.75,69.65 99.82,64.11 198.91,59.25 137.94,-6.75 206.52,3.69 267.27,-59.21" /><path
         id="path290"
         style="fill:#ffffff;fill-opacity:1;fill-rule:nonzero;stroke:none"
         d="m 4688.03,7239.04 -178.97,-112.59 c 64.47,-50.06 297.82,-321.71 315.81,-395.02 87.77,67.03 212.5,190.6 327.27,199.42 -78.8,39.29 -392.66,301.86 -464.11,308.19" /><path
         id="path292"
         style="fill:#ffffff;fill-opacity:1;fill-rule:nonzero;stroke:none"
         d="m 5322.9,7181.85 129.7,-60.06 c -39.51,-50.07 0,-180.18 -36.32,-335.33 -53.79,67.05 -229.92,130.56 -300.26,139.38 48.3,39.29 163.08,249.67 206.88,256.01" /><path
         id="path294"
         style="fill:#0b213a;fill-opacity:1;fill-rule:nonzero;stroke:none"
         d="m 5655.08,5575.5 c -0.52,-2.76 -1.12,-5.64 -1.72,-8.38 -8.91,-43.44 -16.86,-87.24 -23.59,-131.53 -38.29,-253.96 -56.72,-841.94 -99.34,-1096.4 -0.15,-0.94 -0.82,-1.88 -2.02,-2.81 -0.83,-0.51 -1.8,-1.17 -3.07,-1.74 -5.25,-2.38 -14.46,-4.55 -27.04,-6.43 -8.03,-1.23 -17.46,-2.32 -28.17,-3.26 -2.25,-0.28 -4.57,-0.5 -6.98,-0.64 -259.94,-22.34 -1184.94,10.26 -1201.27,90.27 -16.11,78.61 12.13,553.56 14.23,761.48 0,2.6 0.07,5.13 0.07,7.6 1.36,186.88 3.83,376.52 1.13,548.73 -0.3,17.64 -0.6,35.13 -0.97,52.33 -0.08,2.1 -0.08,4.11 -0.16,6.21 -0.37,16.91 -0.9,33.53 -1.42,50.01 -0.6,19.72 -1.35,39.1 -2.17,58.1 -0.53,12.37 -1.13,24.57 -1.8,36.64 -0.97,19.95 -2.18,39.46 -3.51,58.47 -5.1,74.66 -12.52,142.16 -23,199.76 -6.45,35.7 -12.07,74.58 -17.76,115.26 -1.35,9.33 -2.7,18.72 -4.05,28.18 -0.29,2.32 -0.67,4.71 -0.98,7.02 -1.27,8.96 -2.61,18.07 -3.96,27.16 -1.88,12.51 -3.75,25.09 -5.76,37.74 -3.53,22.18 -7.36,44.59 -11.55,66.91 -2.24,11.72 -4.57,23.42 -7.03,34.98 -7.5,34.91 -16.19,69.46 -26.82,102.84 -1.8,5.64 -3.6,11.14 -5.47,16.62 -1.88,5.49 -3.82,10.98 -5.77,16.4 -2.02,5.43 -4.05,10.84 -6.15,16.19 -4.26,10.63 -8.69,21.18 -13.4,31.52 -1.88,4.05 -3.82,8.16 -5.78,12.21 -0.82,1.65 -1.64,3.32 -2.47,4.98 -1.79,3.56 -3.59,7.08 -5.46,10.56 l -1.27,2.53 c 0.3,1.02 -0.61,2.6 -2.47,4.63 l -0.16,0.14 c -3,5.64 -6.13,11.2 -9.43,16.69 -1.43,2.31 -2.86,4.56 -4.27,6.87 10.49,32.22 21.35,64.39 32.8,96.55 15.59,43.79 30.94,87.59 44.95,131.89 36.86,22.61 75.51,43.65 112.3,61.78 425.87,-151.11 270.65,-888.18 452.31,-1201.03 216.8,-373.41 530.07,-395.31 902.91,-268.85 1.88,0.59 3.74,1.17 5.54,1.82" /><path
         id="path296"
         style="fill:#eaeaea;fill-opacity:1;fill-rule:nonzero;stroke:none"
         d="m 4276.18,5790.93 c -21.8,51.1 -39.85,190.37 -44.27,253.44 -5.09,74.66 -11.99,151.99 -22.48,209.59 -28.31,156.1 -4.48,312.86 -88.83,471.05 4.11,15.39 8.24,30.79 12.28,46.18 9.37,35.27 29.96,88.97 49.07,139.77 h 0.07 c 22.47,-16.13 46.37,-32.09 64.43,-52.69 1.26,-1.51 2.62,-3.03 3.74,-4.55 12.28,-14.67 23.07,-31.3 32.74,-48.64 l 0.52,-0.86 c 18.13,-32.67 32.43,-68.22 44.87,-99.81 14.76,-37.14 146.39,101.9 160.54,63.6 34.61,-92.8 40.46,-228.88 43.01,-324.63 12.27,-462.31 -186.32,-863.55 -255.69,-652.45" /><path
         id="path298"
         style="fill:#c87e53;fill-opacity:1;fill-rule:nonzero;stroke:none"
         d="m 5307.65,7190.23 c -113.41,-12.94 -251.78,48.21 -325.72,118.74 -73.71,70.17 -147.13,148.08 -192,239 -14.6,150.68 -63.59,298.6 -16.33,396.67 80.24,-24.71 225.34,-167.07 311.78,-182.9 47.66,-8.75 95.29,-15.47 141.51,-19.38 -2.47,-50.36 -0.96,-105.51 5.33,-160.93 10.55,-93.23 26.29,-181.62 43.97,-264.44 4.72,-22.19 19.78,-81.31 31.46,-126.76" /><path
         id="path300"
         style="fill:#e8a273;fill-opacity:1;fill-rule:nonzero;stroke:none"
         d="m 5486.84,7838.11 c 1.42,69.39 -61.46,136.98 -63.85,192.83 -20.92,490.67 -238.26,431.47 -238.26,431.47 -100.74,10.77 -220.32,-1.94 -296.16,-74.09 -53.63,-51.02 -83.78,-151.41 -106.8,-221.43 -61.93,-188.45 -127.56,-355.75 -22.8,-531.1 68,-113.81 121.55,-240.58 249.74,-288.19 103.28,-38.35 281.73,-92.58 349.84,1.91 71.28,98.88 125.88,372.01 128.29,488.6" /><path
         id="path302"
         style="fill:#382f2e;fill-opacity:1;fill-rule:nonzero;stroke:none"
         d="m 5402.97,8396.21 c -8.47,-14.33 -18.61,-24.39 -30.72,-28.01 -102.36,-30.61 -556.06,-41.04 -541.13,-109.07 45.06,-205.36 -73.03,-169.11 -50.34,-245.33 35.38,-118.91 68.12,-256.89 33.82,-330.93 -29.35,-63.41 -70.2,106.29 -90.05,39.82 l -106.01,76.69 c -44.82,109.2 -116.69,255.39 -139.96,382.26 -10.45,-7.9 -20.13,-17.07 -28.79,-27.9 -21.72,41.49 -1.98,150.88 29.38,185.94 -34.47,-4.21 -63.1,-21.35 -94.25,-31.99 -0.92,-0.37 -1.88,-0.66 -2.8,-0.98 18.95,25.63 37.22,53.93 59.39,75.74 23.03,22.63 55.99,34.85 80.1,54.28 -15.6,18.72 -42.31,31.06 -64.38,37.83 39.4,3.96 87.55,-12.02 127.23,-14.85 61.32,43.04 147.85,70.66 217,93.84 203.91,68.34 421.03,98.65 638.11,102.28 5.4,-43.97 1.47,-195.15 -36.6,-259.62" /><path
         id="path304"
         style="fill:#c87e53;fill-opacity:1;fill-rule:nonzero;stroke:none"
         d="m 5090.16,7893.96 c -3.82,-1.7 -7.9,-3.34 -12.24,-4.98 -33.76,-12.58 -82.17,-22.76 -119.65,-29.48 -32.08,-5.73 -55.17,-29.23 -55.17,-29.23 -7.88,44.26 9.99,96.73 39.96,118.17 35.4,25.35 86.47,35.64 127.49,33.17 3.53,-0.23 17.58,-4.19 20.91,-4.6 3.06,-27.47 -10.42,-58.43 -1.3,-83.05" /><path
         id="path306"
         style="fill:#ffffff;fill-opacity:1;fill-rule:nonzero;stroke:none"
         d="m 5094.34,7850.73 c -3.81,-1.71 -7.91,-3.35 -12.24,-4.98 -33.76,-12.58 -82.18,-22.76 -119.66,-29.49 -32.06,-5.72 -56.1,-8.94 -56.1,-8.94 -7.87,44.27 10.94,76.46 40.88,97.89 35.42,25.36 86.49,35.65 127.52,33.17 3.53,-0.24 6.96,-0.54 10.3,-0.94 3.07,-27.47 0.17,-62.08 9.3,-86.71" /><path
         id="path308"
         style="fill:#382f2e;fill-opacity:1;fill-rule:nonzero;stroke:none"
         d="m 5083.6,7889.7 c 1.04,-15.38 0.45,-30.2 -1.5,-43.95 -33.76,-12.58 -82.18,-22.76 -119.66,-29.49 -7.97,18.57 -13.32,40.86 -14.92,64.99 -0.54,8.2 -0.62,16.17 -0.3,23.96 35.42,25.36 86.49,35.65 127.52,33.17 4.6,-14.81 7.7,-31.24 8.86,-48.68" /><path
         id="path310"
         style="fill:#ffffff;fill-opacity:1;fill-rule:nonzero;stroke:none"
         d="m 4997.5,7874.72 c 0.71,-10.63 -2.91,-19.5 -8.07,-19.8 -5.17,-0.33 -9.94,8.02 -10.64,18.63 -0.72,10.61 2.91,19.47 8.08,19.79 5.16,0.32 9.92,-8.02 10.63,-18.62" /><path
         id="path312"
         style="fill:#c87e53;fill-opacity:1;fill-rule:nonzero;stroke:none"
         d="m 5443.4,7967.42 c -2.69,-1.64 -5.56,-3.19 -8.6,-4.74 -23.73,-11.97 -57.88,-21.25 -84.33,-27.31 -22.67,-5.14 -38.59,-28.19 -38.59,-28.19 -6.45,44.35 5.2,96.45 26.06,117.28 24.64,24.7 60.68,34.08 89.84,30.87 2.5,-0.32 12.54,-4.5 14.92,-4.98 2.69,-27.5 -6.26,-58.16 0.7,-82.93" /><path
         id="path314"
         style="fill:#ffffff;fill-opacity:1;fill-rule:nonzero;stroke:none"
         d="m 5447.19,7924.18 c -2.68,-1.64 -5.56,-3.2 -8.6,-4.74 -23.72,-11.97 -57.89,-21.29 -84.33,-27.31 -22.65,-5.15 -39.66,-7.94 -39.66,-7.94 -6.42,44.36 6.29,76.17 27.14,97.04 24.64,24.69 60.69,34.04 89.83,30.83 2.52,-0.3 4.95,-0.64 7.35,-1.1 2.68,-27.52 1.31,-62.02 8.27,-86.78" /><path
         id="path316"
         style="fill:#382f2e;fill-opacity:1;fill-rule:nonzero;stroke:none"
         d="m 5438.82,7963.29 c 1.03,-15.38 0.9,-30.17 -0.23,-43.85 -23.72,-11.97 -57.89,-21.29 -84.33,-27.31 -6.02,18.68 -10.24,41.03 -11.85,65.16 -0.53,8.2 -0.76,16.18 -0.67,23.94 24.64,24.69 60.69,34.04 89.83,30.83 3.56,-14.86 6.09,-31.33 7.25,-48.77" /><path
         id="path318"
         style="fill:#ffffff;fill-opacity:1;fill-rule:nonzero;stroke:none"
         d="m 5378,7949.86 c 0.71,-10.61 -1.68,-19.4 -5.34,-19.63 -3.68,-0.22 -7.21,8.2 -7.9,18.81 -0.72,10.62 1.68,19.4 5.33,19.62 3.67,0.23 7.2,-8.18 7.91,-18.8" /><path
         id="path320"
         style="fill:#211b1b;fill-opacity:1;fill-rule:nonzero;stroke:none"
         d="m 5108.67,8114.65 c -14.75,11.11 -215.67,-29.93 -252.14,-56.5 l 1.37,-68.43 c 27.85,2.29 129.65,30.82 129.65,30.82 0,0 17.22,-1.43 29.98,43.5 5.68,-12.22 -3.75,-31.74 0,-47.08 30.42,-1.82 71.63,9.7 101.67,8.68 1.93,14.85 1.18,80.17 -10.53,89.01" /><path
         id="path322"
         style="fill:#211b1b;fill-opacity:1;fill-rule:nonzero;stroke:none"
         d="m 5469.49,8157.16 c -9.74,12.31 -163.63,-11.6 -193.64,-34.94 l -6.47,-68.17 c 20.98,-0.07 99.78,19.75 99.78,19.75 0,0 12.64,-2.87 27.03,40.73 2.92,-12.64 -6.24,-31.25 -5.15,-46.8 22.46,-4.38 54.35,3.59 76.57,0.06 3.05,14.61 9.63,79.61 1.88,89.37" /><path
         id="path324"
         style="fill:#211b1b;fill-opacity:1;fill-rule:nonzero;stroke:none"
         d="m 5402.97,8396.21 c -8.47,-14.33 -18.61,-24.39 -30.72,-28.01 -102.36,-30.61 -556.06,-41.04 -541.13,-109.07 45.06,-205.36 -73.03,-169.11 -50.34,-245.33 35.38,-118.91 68.12,-256.89 33.82,-330.93 -29.35,-63.41 -70.2,106.29 -90.05,39.82 l -106.01,76.69 c -44.82,109.2 -116.69,255.39 -139.96,382.26 -10.45,-7.9 -20.13,-17.07 -28.79,-27.9 -21.72,41.49 -1.98,150.88 29.38,185.94 -34.47,-4.21 -63.1,-21.35 -94.25,-31.99 23.14,15.99 44.28,35.43 73.01,46.21 34.11,12.8 74.7,28.98 111.01,28.51 -36.95,-38.92 -50.84,-152.37 -5.91,-191.37 28.29,49.89 62.52,83.76 107.35,119.55 -8.44,-32.74 16.91,-138.58 63.99,-136.47 8.39,51.08 21.29,100.47 55.53,144.33 26.64,34.09 67.97,42.11 110.73,44.65 114.56,6.82 226.01,1.7 339.5,8.44 54.66,3.24 109.52,11.34 162.84,24.67" /><path
         id="path326"
         style="fill:#c87e53;fill-opacity:1;fill-rule:nonzero;stroke:none"
         d="m 5356.57,7689.1 c 0.48,4.45 0.57,8.61 0.67,12.8 0.12,4.19 0.05,8.33 -0.08,12.46 -0.08,4.14 -0.25,8.25 -0.56,12.34 -0.31,4.11 -0.53,8.22 -1,12.3 -0.84,8.18 -1.9,16.32 -3.29,24.44 -0.61,4.07 -1.44,8.12 -2.25,12.17 -0.81,4.04 -1.66,8.08 -2.7,12.1 -1,4.03 -1.96,8.06 -3.17,12.06 -1.21,3.98 -2.31,7.99 -3.72,11.96 -1.39,3.97 -2.7,7.95 -4.33,11.86 -1.59,3.95 -3.21,7.88 -5.08,11.75 -3.62,7.78 -7.9,15.43 -13.29,22.71 -2.7,3.63 -5.79,7.15 -9.47,10.3 -1.81,1.6 -3.83,3.08 -6.17,4.25 -2.25,1.12 -5.01,2.04 -7.55,1.9 4.38,-2.14 5.99,-5.86 7.66,-9.38 1.51,-3.62 2.45,-7.46 3.4,-11.28 1.8,-7.66 2.91,-15.53 4.09,-23.37 l 1.57,-11.83 1.48,-11.85 2.92,-23.74 3.02,-23.8 3.24,-23.78 c 0.48,-3.97 1.17,-7.92 1.7,-11.89 l 1.77,-11.84 c 0,0 3.98,-14.8 -1.04,-16.17 l -15.11,-4.11 c -10.1,-2.78 -20.26,-5.58 -30.39,-8.57 -5.05,-1.46 -10.11,-3.04 -15.16,-4.58 -5.03,-1.61 -10.07,-3.2 -15.08,-4.93 -5,-1.74 -9.99,-3.53 -14.94,-5.38 -2.45,-0.99 -4.9,-1.94 -7.31,-3.05 -2.44,-1 -4.82,-2.19 -7.07,-3.42 5.29,0.97 10.53,1.6 15.83,2.17 5.26,0.65 10.52,1.21 15.82,1.74 10.56,1.08 21.1,2.23 31.66,3.44 10.52,1.21 21.07,2.52 31.62,3.9 l 15.88,2.28 c 5.29,0.79 10.62,1.74 16.17,2.78 l 9.27,1.75 0.99,9.51" /><path
         id="path328"
         style="fill:#e8a273;fill-opacity:1;fill-rule:nonzero;stroke:none"
         d="m 4775.9,7763.91 c 40.97,-69.65 34.54,-147.8 -14.36,-174.55 -48.89,-26.79 -121.73,7.97 -162.68,77.61 -40.97,69.63 -34.54,147.79 14.35,174.54 48.89,26.78 121.73,-7.97 162.69,-77.6" /><path
         id="path330"
         style="fill:#c87e53;fill-opacity:1;fill-rule:nonzero;stroke:none"
         d="m 4617.97,7755.2 c 6.35,77.45 92.98,57.44 113.97,-2.64 -30,14.15 -60.76,-8.14 -56.71,-41.74 2.93,-24.43 59.65,-65.34 71.59,-31.09 l 3.57,-3.47 c -14.5,-94.86 -178.83,32.9 -68.28,92.38 -24.67,8.67 -59.23,12.1 -64.14,-13.44" /><path
         id="path332"
         style="fill:#c87e53;fill-opacity:1;fill-rule:nonzero;stroke:none"
         d="m 5400.32,7622.34 c -32.36,-31.8 -34.61,-68.51 -53.03,-106.6 -21.28,-43.79 -46.53,-42.58 -99.79,-28.98 -58.51,14.89 -135.21,52.75 -174.16,105.08 -9.3,12.43 -16.42,25.74 -20.61,39.67 0,0 196.27,-26.8 297.33,-19.72 22.62,1.59 40.45,4.91 50.26,10.55" /><path
         id="path334"
         style="fill:#ffffff;fill-opacity:1;fill-rule:nonzero;stroke:none"
         d="m 5350.06,7611.79 c -1.35,-2.75 -2.63,-5.43 -3.9,-8.02 -27.12,-56.37 -49.74,-51.17 -113.87,-43.44 -49.58,5.93 -106.29,14.46 -158.95,31.51 -9.3,12.43 -16.42,25.74 -20.61,39.67 0,0 196.27,-26.8 297.33,-19.72" /><path
         id="path336"
         style="fill:#e8a273;fill-opacity:1;fill-rule:nonzero;stroke:none"
         d="m 4220.14,4751.15 c -4.51,-52.49 -13.8,-129.25 -23.74,-214.44 -6.45,-55.74 -13.05,-115.23 -18.73,-173.96 -8.23,-86.07 -14.32,-170.52 -14.29,-239.42 l -161.01,0.98 c -57.92,208.32 -196.74,856.09 -207,1028.6 -7.86,134.23 8.58,327.16 77.07,451.31 53.98,97.88 201.76,205.95 271.37,115.02 7.51,-9.81 14.85,-21.08 21.86,-33.45 45.96,-80.17 81.58,-208.02 97.3,-308.24 3.51,-22.03 6.07,-42.72 7.56,-61.28 10.74,-136.42 -38.6,-427.57 -50.39,-565.12" /><path
         id="path338"
         style="fill:#c87e53;fill-opacity:1;fill-rule:nonzero;stroke:none"
         d="m 4220.14,4751.15 c -4.51,-52.49 -13.8,-129.25 -23.74,-214.44 -25.79,130.7 -43.44,264.11 -48.38,404.53 -5.54,158.74 -2.23,320.29 5.28,478.82 2.2,46.07 6.19,166.08 12.37,265.73 45.96,-80.17 81.58,-208.02 97.3,-308.24 3.51,-22.03 6.07,-42.72 7.56,-61.28 10.74,-136.42 -38.6,-427.57 -50.39,-565.12" /><path
         id="path340"
         style="fill:#ffffff;fill-opacity:1;fill-rule:nonzero;stroke:none"
         d="m 3780.79,5566.56 c 1.52,16.03 2.97,31.98 4.42,47.86 22.65,248.08 38.78,483.6 103.17,728.77 47.1,179.35 66.05,376.75 155.18,542.61 95.6,177.91 322.45,227.66 413.09,33.03 109.82,-235.78 85.31,-381.36 17.78,-598.09 -6.25,-20.12 -12.53,-40.23 -18.63,-60.28 -4.43,-14.33 -8.77,-28.53 -13.04,-42.7 -62.56,-207.84 -113.38,-412.83 -108.17,-631.87 0.11,-4.06 0.37,-8.42 0.62,-12.92 3.3,-48.01 16.37,-117.23 -12.86,-149.27 -30.54,-33.51 -135.63,-52.23 -180.97,-60.5 -118.36,-21.38 -256.81,-19.09 -363.07,21.5 -5.75,61.72 -3.15,122.18 2.48,181.86" /><path
         id="path342"
         style="fill:#eaeaea;fill-opacity:1;fill-rule:nonzero;stroke:none"
         d="m 3778.31,5384.7 c 106.26,-40.59 244.71,-42.88 363.07,-21.5 45.34,8.27 150.43,26.99 180.97,60.5 29.23,32.04 16.16,101.26 12.86,149.27 -35.93,-3.25 -84.54,-15.13 -117.37,-19 -60.14,-7.07 -107.08,-5.28 -166.68,1.9 -96.29,11.56 -178.49,27.81 -265.95,58.55 -1.45,-15.88 -2.9,-31.83 -4.42,-47.86 -5.63,-59.68 -8.23,-120.14 -2.48,-181.86" /><path
         id="path344"
         style="fill:#e8a273;fill-opacity:1;fill-rule:nonzero;stroke:none"
         d="m 4008.93,4191.74 138.41,76.01 c 58.39,-65.69 137.09,-110.83 172.78,-211.76 10.4,-29.41 72.65,-111.76 39.43,-134.66 -34.36,-23.68 -89.61,71.03 -110.96,78.19 2.86,-57.76 -46.28,-162.45 -31.18,-213.25 13.53,-45.56 81.01,-69.14 71.25,-121.8 -21.19,-25.45 -105.37,1.08 -136.17,7.18 -31.23,6.14 -46.33,31.96 -74.82,45.33 -21.22,9.94 -47.77,-6.55 -72.08,20.83 -73.67,83 -17.35,330.08 3.34,453.93" /></g></g></svg>