<svg xmlns="http://www.w3.org/2000/svg" xmlns:xlink="http://www.w3.org/1999/xlink" width="525" height="308" xmlns:v="https://vecta.io/nano"><path fill="#f2f3f4" d="M.011 259.522c.542 6.504 22.184 4.891 78.231 20.301 43.018 11.824 24.325 19.186 50.681 25.457 47.054 11.197 96.001-22.114 194.514-33.602 64.472-7.52 94.927 11.647 153.586-5.263 20.871-6.016 49.069-14.146 47.944-21.312-1.225-7.807-36.218-33.489-192.592-37.412C35.869 219.179-.752 250.316.011 259.522z"/><path fill="#d7dce0" d="M345.066 228.214c-14.188.484-26.608 5.15-26.372 6.537.188 1.1 8.298-.248 32.459-.902 15.883-.43 20.872-.078 20.963-.9.148-1.341-12.727-5.225-27.05-4.735h0zm123.724 11.752c-8.17.66-22.159 2.34-22.107 3.803.052 1.352 12.013 2.414 23.06 1.902 13.625-.633 27.479-3.736 27.336-5.229-.154-1.606-16.485-1.429-28.289-.476zm-257.792-2.08c.163 2.196-15.362 3.68-15.669 8.953-.37 6.326 21.655 9.581 21.827 16.79.038 1.667-1.022 6.431-22.946 13.431-23.239 7.424-44.087 14.086-69.674 8.113-16.481-3.847-13.831-8.203-45.61-20.705-27.008-10.625-41.673-12.494-41.413-16.229.291-4.163 19.45-6.177 48.968-8.396 71.488-5.375 124.221-5.996 124.517-1.957h0z"/><g transform="translate(1 11)"><g opacity=".7"><use xlink:href="#AO" fill="#fff"/><linearGradient id="A" gradientUnits="userSpaceOnUse" x1="-7.95" y1="55.871" x2="221.222" y2="55.566"><stop offset="0" stop-color="#fc9b7a"/><stop offset="1" stop-color="#ff6f00"/></linearGradient><use xlink:href="#AO" fill="url(#A)"/></g><g opacity=".5"><use xlink:href="#AP" fill="#fff"/><linearGradient id="B" gradientUnits="userSpaceOnUse" x1="36.604" y1="93.232" x2="212.681" y2="92.423"><stop offset="0" stop-color="#5ddafd"/><stop offset="1" stop-color="#026bd4"/></linearGradient><use xlink:href="#AP" fill="url(#B)"/></g><g transform="translate(66.909)"><linearGradient id="C" gradientUnits="userSpaceOnUse" x1="-38.858" y1=".439" x2="78.865" y2=".789"><stop offset="0" stop-color="#fc9b7a"/><stop offset="1" stop-color="#ff6f00"/></linearGradient><path fill="url(#C)" d="M63.398-7.415l-63.57-3.123c-4.925-.242-9.093 4.091-9.278 9.68h0C-9.638 4.73-5.767 9.4-.841 9.57l63.602 2.198c4.452.154 8.183-3.991 8.358-9.254h0c.175-5.264-3.269-9.709-7.719-9.927l-.002-.002z"/><linearGradient id="D" gradientUnits="userSpaceOnUse" x1="73.101" y1=".604" x2="88.847" y2="4.429"><stop offset="0" stop-color="#fc9b7a"/><stop offset="1" stop-color="#ff6f00"/></linearGradient><path fill="url(#D)" d="M90.476 3.275c-.173 5.161-3.776 9.223-8.073 9.075-4.329-.15-7.717-4.506-7.544-9.729s3.843-9.284 8.167-9.07c4.298.211 7.622 4.564 7.45 9.724z"/></g><linearGradient id="E" gradientUnits="userSpaceOnUse" x1="110.346" y1="23.861" x2="179.014" y2="23.861"><stop offset="0" stop-color="#5ddafd"/><stop offset="1" stop-color="#026bd4"/></linearGradient><path fill="url(#E)" d="M154.586 17.168l-47.87-1.485c-3.666-.114-6.767 3.264-6.91 7.544h0c-.141 4.28 2.729 7.809 6.397 7.881l47.888.934c3.392.067 6.238-3.195 6.375-7.282h0c.138-4.088-2.488-7.487-5.88-7.592h0z"/><linearGradient id="F" gradientUnits="userSpaceOnUse" x1="156.889" y1="24.946" x2="178.955" y2="24.946"><stop offset="0" stop-color="#5ddafd"/><stop offset="1" stop-color="#026bd4"/></linearGradient><path fill="url(#F)" d="M175.291 25.127c-.152 4.02-2.937 7.212-6.233 7.132-3.314-.081-5.887-3.435-5.732-7.493s2.978-7.251 6.29-7.132c3.292.118 5.829 3.473 5.675 7.493z"/></g><g transform="translate(179 12)"><g transform="translate(284)"><linearGradient id="G" gradientUnits="userSpaceOnUse" x1="-561.675" y1="88.171" x2="-561.83" y2="89.082" gradientTransform="matrix(8.825 0 0 4.0386 4922.2422 -276.8091)"><stop offset="0" stop-color="#311944"/><stop offset="1" stop-color="#a03976"/></linearGradient><path fill="url(#G)" d="M-37.438 80.028s5.5 2.525 5.591 2.931-3.537-.135-5.02-.077-2.698-.386-2.564-1.019.652-2.229.652-2.229l1.341.394h0z"/><linearGradient id="H" gradientUnits="userSpaceOnUse" x1="-38.28" y1="81.042" x2="-38.16" y2="62.837"><stop offset="0" stop-color="#ffc444"/><stop offset="1" stop-color="#f36f56"/></linearGradient><path fill="url(#H)" d="M-37.238 77.976l-.336 2.503s-.871.314-1.456-.058l-.25-2.745 2.039.299.003.001h0z"/><linearGradient id="I" gradientUnits="userSpaceOnUse" x1="-63.721" y1="39.339" x2="-62.829" y2="56.914"><stop offset="0" stop-color="#311944"/><stop offset="1" stop-color="#a03976"/></linearGradient><path fill="url(#I)" d="M-63.146 78.038l-.64 1.038c-.18.29-.232.64-.146.972l.864 2.984c.266.598 3.824.952 3.824.952s.317-.452-.423-.996-1.214-.631-1.474-1.437-.438-3.082-.438-3.082l-1.572-.432.005.001h0z"/><linearGradient id="J" gradientUnits="userSpaceOnUse" x1="-61.89" y1="80.72" x2="-61.77" y2="62.505"><stop offset="0" stop-color="#ffc444"/><stop offset="1" stop-color="#f36f56"/></linearGradient><path fill="url(#J)" d="M-60.481 75.399c-.233.188-1.378 3.695-1.378 3.695s-.37.478-1.072-.229l-.317-.316.131-3.449 2.636.299h0 0z"/><linearGradient id="K" gradientUnits="userSpaceOnUse" x1="-34.017" y1="51.556" x2="-47.338" y2="51.556"><stop offset="0" stop-color="#444b8c"/><stop offset="1" stop-color="#3e4177"/></linearGradient><path fill="url(#K)" d="M-34.211 27.688c.291 7.467.302 15.58-.123 24.247-.479 9.76-1.441 18.778-2.652 26.956-.473.017-.946.018-1.42.002-.324-.009-.647-.026-.971-.049-.628-1.696-1.373-3.925-2.039-6.588-.7-2.8-1.121-5.313-1.423-7.715-1.063-8.456.181-9.195-.679-15.462-.763-5.552-1.844-5.767-3.114-13.649-1.38-8.551-.353-9.833.146-10.298 2.125-1.973 7.119-.631 12.273 2.554l.002.002h0z"/><linearGradient id="L" gradientUnits="userSpaceOnUse" x1="-681.725" y1="51.558" x2="-668.404" y2="51.558"><stop offset="0" stop-color="#444b8c"/><stop offset="1" stop-color="#3e4177"/></linearGradient><path opacity=".3" fill="url(#L)" d="M-46.484 25.133c2.028-1.882 6.663-.742 11.563 2.129-5.637 6.152-6.248 10.142-5.574 12.732.763 2.927 3.085 3.77 3.076 6.969-.011 3.932-3.522 4.974-3.448 9.134.05 2.751 1.593 2.723 1.956 6.121.432 4.02-1.584 5.406-.931 8.381.279 1.28 1.082 2.953 3.365 4.676l-.51 3.617c-.473.016-.946.017-1.42.002-.324-.009-.647-.026-.971-.049-.628-1.696-1.373-3.925-2.039-6.588-.7-2.8-1.121-5.313-1.423-7.715-1.063-8.456.181-9.195-.679-15.462-.763-5.552-1.844-5.769-3.114-13.649-1.38-8.551-.353-9.833.146-10.298h0 .003z"/><linearGradient id="M" gradientUnits="userSpaceOnUse" x1="-678.04" y1="50.226" x2="-651.226" y2="50.226"><stop offset="0" stop-color="#444b8c"/><stop offset="1" stop-color="#3e4177"/></linearGradient><path fill="url(#M)" d="M-37.7 27.561c-4.85 7.173-10.084 16.1-14.763 26.784-3.185 7.273-5.852 14.762-7.981 22.411a2.93 2.93 0 0 1-1.623.254c-1.048-.139-1.676-.814-1.84-1.005-.767-4.843-.682-8.945-.423-11.905.166-1.895.462-5.051 1.655-8.95 1.339-4.365 2.261-4.611 4.007-9.228 1.813-4.793 1.373-5.991 3.11-11.987 1.044-3.592 2.34-7.107 3.877-10.518l13.978 4.144h.003z"/><linearGradient id="N" gradientUnits="userSpaceOnUse" x1="-33.117" y1="42.036" x2="-40.532" y2="-11.462"><stop offset="0" stop-color="#82c03e"/><stop offset="1" stop-color="#679436"/></linearGradient><path fill="url(#N)" d="M-13.748 31.181c.251 1.793-3.639 4.762-7.213 4.445-4.876-.434-8.943-6.96-9.377-12.145-.093-1.111-.024-2.227-.248-2.26-.567-.084-2.026 6.723-3.172 12.494-.92.341-2.315.702-3.91.438-2.608-.432-2.92-2.07-5.84-3.139-1.701-.624-3.371-.624-6.709-.629-3.769-.004-3.871.467-4.6.126 0 0-.179-.1-.333-.212-2.683-1.946 4.993-16.742 2.782-30.392-.245-1.517-.622-3.075.217-4.594 2.168-3.923 10.732-4.476 16.038-1.893 1.454.708 3.891 2.256 6.065 3.889a44.69 44.69 0 0 1 2.716 2.216c2.923 2.579 4.856 4.945 5.191 5.375 5.006 6.395-2.495 18.338 2.763 23.261 2.29 2.143 5.413 1.47 5.63 3.02h0z"/><linearGradient id="O" gradientUnits="userSpaceOnUse" x1="-33.137" y1="-5.686" x2="-33.137" y2=".999"><stop offset="0" stop-color="#ffc444"/><stop offset="1" stop-color="#f39e56"/></linearGradient><path fill="url(#O)" d="M-29.53-7.999s-1.378 1.581-2.857 2.4c-1.339.739-4.288-.507-4.971-.653s.136 1.711 1.425 2.99 5.54 4.206 6.688 4.257-.185-.968-.89-2.15.289-3.628 1.179-4.381-.576-2.461-.576-2.461l.002-.002z"/><linearGradient id="P" gradientUnits="userSpaceOnUse" x1="-563.491" y1="50.984" x2="-562.295" y2="50.203" gradientTransform="matrix(7.9951 0 0 6.1485 4470.1138 -318.4542)"><stop offset="0" stop-color="#444b8c"/><stop offset="1" stop-color="#3e4177"/></linearGradient><path fill="url(#P)" d="M-26.365-6.761c1.564-.12 3.143-2.065 2.824-2.916-.093-.244-.294-.281-3.354-.79-1.521-.253-2.277-.356-2.804.066-.32.259-.572.721-.649 1.158-.042.224-.042.533-.007 1.149l.039.684c.033.387.139 1.069.514 2.014.189-.212.397-.407.622-.582.101-.078.497-.381.947-.564.775-.317 1.36-.182 1.868-.222v.003z"/><linearGradient id="Q" gradientUnits="userSpaceOnUse" x1="-25.641" y1="-3.615" x2="-31.694" y2="-9.962"><stop offset="0" stop-color="#ffc444"/><stop offset="1" stop-color="#f39e56"/></linearGradient><path fill="url(#Q)" d="M-30.376-6.447s.07 1.512 1.479 2.174c1.263.593 2.938-2.068 2.476-3.086-.153-.339-.628-.708-1.117-.822-.289-.066-.429-.009-.897-.128-.433-.11-.518-.213-.684-.177-.209.042-.476.284-.675 1.222-.104-.367-.333-.613-.583-.626-.088 0-.175.024-.249.071-.343.221-.274.781.247 1.375l.003-.003z"/></g><g transform="translate(0 43)"><path fill="#a3abb1" d="M274.294-9.33L.832-16.67c-14.133-.38-25.77 10.967-25.77 25.349v54.515c0 14.383 11.636 25.62 25.77 25.106l273.462-9.939c9.713-.354 17.486-10.107 17.486-21.787V12.295c0-11.682-7.773-21.361-17.486-21.622v-.003z"/><path fill="#fff" d="M.832 84.88c-12.216.419-22.289-9.34-22.289-21.758V8.719c0-12.42 10.072-22.274 22.289-21.971l273.462 6.778c8.41.208 15.179 8.614 15.179 18.74v44.353c0 10.126-6.769 18.595-15.179 18.883L.832 84.88z"/><linearGradient id="R" gradientUnits="userSpaceOnUse" x1="117.328" y1="54.057" x2="54.562" y2="16.957"><stop offset="0" stop-color="#ffc444"/><stop offset="1" stop-color="#f39e56"/></linearGradient><path fill="url(#R)" d="M95.385 8.998l6.893 15.046c.254.555.744.939 1.313 1.029l15.168 2.402c1.4.222 1.959 2.092.946 3.167l-10.934 11.619a1.99 1.99 0 0 0-.498 1.662l2.597 16.33c.243 1.521-1.239 2.717-2.508 2.023l-13.736-7.499a1.66 1.66 0 0 0-1.643.029l-14.01 8.12c-1.318.766-2.865-.391-2.61-1.956l2.705-16.747c.099-.619-.094-1.249-.517-1.682L67.023 30.739c-1.082-1.11-.484-3.047 1.01-3.275l15.865-2.424c.583-.088 1.083-.476 1.345-1.036L92.225 8.96c.647-1.396 2.517-1.372 3.162.038h-.002z"/><linearGradient id="S" gradientUnits="userSpaceOnUse" x1="170.154" y1="53.472" x2="115.799" y2="17.669"><stop offset="0" stop-color="#ffc444"/><stop offset="1" stop-color="#f39e56"/></linearGradient><path fill="url(#S)" d="M151.297 9.672l6.41 14.508c.236.536.693.907 1.223.992l14.113 2.316c1.304.213 1.822 2.02.881 3.058L163.75 41.752c-.381.417-.555 1.016-.464 1.603l2.416 15.752c.225 1.466-1.154 2.621-2.334 1.951l-12.777-7.241c-.477-.271-1.048-.262-1.526.026l-13.022 7.819c-1.229.735-2.663-.378-2.427-1.886l2.513-16.141c.092-.597-.086-1.203-.481-1.622l-10.707-11.38c-1.007-1.069-.449-2.937.939-3.157l14.737-2.335c.541-.085 1.009-.458 1.249-.999l6.488-14.506c.602-1.347 2.34-1.323 2.943.036h0 0z"/><path fill="#e9ecf0" d="M203.357 10.302l5.977 14.008c.221.516.646.875 1.139.959l13.167 2.237c1.215.206 1.701 1.952.822 2.953l-9.492 10.822c-.354.404-.516.981-.432 1.548l2.254 15.215c.21 1.417-1.076 2.531-2.177 1.883l-11.915-7c-.445-.261-.978-.252-1.423.024l-12.136 7.541c-1.143.709-2.479-.367-2.261-1.822l2.34-15.579c.087-.575-.081-1.162-.447-1.565l-9.971-10.984c-.938-1.032-.419-2.834.874-3.047l13.729-2.254c.504-.083.939-.443 1.165-.964l6.049-14.005c.563-1.301 2.183-1.279 2.742.033h-.005v-.003zm48.59.586l5.586 13.542c.205.5.604.847 1.063.926l12.313 2.163c1.139.2 1.591 1.886.77 2.856l-8.876 10.464c-.331.391-.482.951-.404 1.496l2.107 14.714c.196 1.37-1.006 2.445-2.037 1.82l-11.135-6.776c-.417-.252-.913-.244-1.33.022l-11.336 7.279c-1.068.685-2.316-.356-2.111-1.763l2.187-15.052c.082-.558-.074-1.122-.419-1.513l-9.311-10.616c-.875-.997-.392-2.738.816-2.944l12.818-2.18c.471-.079.879-.428 1.088-.933l5.65-13.538c.525-1.258 2.039-1.238 2.563.031l-.002.002h0z"/><linearGradient id="T" gradientUnits="userSpaceOnUse" x1="60.221" y1="54.432" x2="-11.31" y2="16.694"><stop offset="0" stop-color="#ffc444"/><stop offset="1" stop-color="#f39e56"/></linearGradient><path fill="url(#T)" d="M35.173 8.269l7.43 15.625c.273.575.803.977 1.416 1.069l16.344 2.494c1.51.23 2.109 2.171 1.021 3.288L49.605 42.807a2.01 2.01 0 0 0-.537 1.724l2.797 16.949c.261 1.578-1.334 2.823-2.702 2.103l-14.808-7.775c-.554-.29-1.215-.279-1.771.031l-15.115 8.447c-1.425.797-3.093-.401-2.819-2.028l2.919-17.401c.108-.644-.102-1.297-.558-1.747L4.567 30.847c-1.171-1.153-.525-3.168 1.092-3.405l17.122-2.518c.632-.095 1.176-.499 1.45-1.076l7.531-15.621c.7-1.451 2.716-1.424 3.413.042h-.002z"/><path opacity=".1" fill="#d7dce0" d="M234.021 38.817c-35.299-9.563-59.016 38.329-100.06 27.813-35.588-9.121-36.58-48.612-78.879-76.721a123.17 123.17 0 0 0-8.851-5.358L.833-16.668c-14.134-.38-25.77 10.967-25.77 25.35v54.514c0 14.383 11.636 25.62 25.77 25.106l271.604-9.872c-13.055-26.889-26.868-36.484-38.414-39.61l-.002-.003z"/></g><g transform="translate(285 18)"><path fill="#d7dce0" d="M-35.408-12.188l7.129 14.387c.266.534.775.902 1.363.988l15.939 2.308c1.487.215 2.081 2.035 1.006 3.08l-11.535 11.2a1.8 1.8 0 0 0-.521 1.598l2.725 15.814c.253 1.475-1.301 2.601-2.631 1.903l-14.26-7.467c-.528-.276-1.159-.276-1.688 0l-14.259 7.466c-1.331.696-2.887-.428-2.633-1.903l2.725-15.814c.103-.586-.096-1.184-.522-1.598l-11.534-11.2c-1.074-1.045-.481-2.865 1.006-3.08l15.939-2.308c.591-.084 1.102-.454 1.366-.988l7.129-14.386a1.82 1.82 0 0 1 3.253 0h.003z"/><linearGradient id="U" gradientUnits="userSpaceOnUse" x1="-31.687" y1="19.947" x2="-113.343" y2="-24.63"><stop offset="0" stop-color="#ffc444"/><stop offset="1" stop-color="#f39e56"/></linearGradient><path fill="url(#U)" d="M-34.702-12.188l7.13 14.387c.266.534.776.902 1.366.988l15.94 2.308c1.486.215 2.079 2.035 1.004 3.08l-11.534 11.199c-.427.415-.621 1.012-.522 1.598l2.726 15.814c.254 1.475-1.302 2.601-2.632 1.903l-14.26-7.466c-.527-.276-1.159-.276-1.688 0l-14.259 7.466c-1.331.696-2.886-.428-2.633-1.903l2.726-15.814a1.8 1.8 0 0 0-.522-1.598l-11.534-11.2c-1.075-1.045-.481-2.865 1.006-3.08l15.938-2.308a1.8 1.8 0 0 0 1.364-.988l7.129-14.386c.666-1.343 2.588-1.343 3.255 0h0z"/><path opacity=".2" fill="#ffc444" d="M-25.098 28.144c-5.472-5.182-11.634-4.893-14.121-10.881-2.788-6.711 3.148-11.409 2.131-19.641-.247-1.993-.91-4.271-2.383-6.748l-5.611 11.328c-.264.533-.775.902-1.365.988l-15.939 2.307c-1.487.215-2.08 2.035-1.006 3.08l11.534 11.2a1.8 1.8 0 0 1 .522 1.598l-2.725 15.814c-.254 1.476 1.301 2.601 2.633 1.903l14.259-7.466c.528-.276 1.159-.276 1.688 0l14.26 7.466c.771.406 1.622.193 2.147-.345-1.415-5.161-3.722-8.427-6.021-10.605l-.003.002h0z"/></g><linearGradient id="V" gradientUnits="userSpaceOnUse" x1="275.764" y1="52.047" x2="266.99" y2="11.898"><stop offset="0" stop-color="#ffc444"/><stop offset="1" stop-color="#f39e56"/></linearGradient><path fill="url(#V)" d="M269.403 32.343s1.227-1.401 1.726-2.515 1.453-1.077 1.68-.648-.669 2.166-1.182 2.679-2.224.486-2.224.486v-.002z"/><linearGradient id="W" gradientUnits="userSpaceOnUse" x1="223.633" y1="7.178" x2="221.909" y2="25.45"><stop offset="0" stop-color="#ffc444"/><stop offset="1" stop-color="#f39e56"/></linearGradient><path fill="url(#W)" d="M220.347 22.694l.905-.677s.566.392 1.26.337c.378-.03.881.198.993.316s.639.408-.113.333-.875.134-.771.51.734 1.428 1.054 1.654-.597.376-.975.239-.979-.389-1.419-1.204c-.161-.297-.936-1.511-.936-1.511l.002.003h0z"/><linearGradient id="X" gradientUnits="userSpaceOnUse" x1="228.521" y1="28.318" x2="228.521" y2="-7.146"><stop offset="0" stop-color="#82c03e"/><stop offset="1" stop-color="#679436"/></linearGradient><path fill="url(#X)" d="M220.242 23.739c-2.116-1.035-6.69-3.683-8.096-8.565-2.341-8.125 5.982-15.874 10.277-18.773 4.927-3.324 9.876-3.862 12.884-4.188 3.732-.405 6.01-.652 7.723.744 4.425 3.61 1.766 15.528-2.614 16.756-1.435.403-1.978-.643-4.982-1.365-.979-.234-8.281-1.989-12.08 1.862-2.658 2.693-2.997 7.525-1.118 12.04l-1.994 1.489h0 0z"/></g><g transform="translate(373 139)"><g transform="translate(10)"><path fill="#d7dce0" d="M-20.522-27.263l8.007 16.04a2.04 2.04 0 0 0 1.534 1.102L6.92-7.55c1.671.239 2.337 2.27 1.131 3.434L-4.903 8.369c-.479.463-.698 1.128-.586 1.783L-2.43 27.78c.284 1.645-1.464 2.898-2.956 2.122l-16.015-8.323a2.05 2.05 0 0 0-1.896 0l-16.014 8.324c-1.493.777-3.239-.479-2.954-2.122l3.056-17.629a2.01 2.01 0 0 0-.585-1.783L-52.748-4.116c-1.21-1.164-.543-3.195 1.127-3.434l17.902-2.571c.661-.094 1.234-.505 1.534-1.102l8.007-16.04c.748-1.497 2.904-1.497 3.649 0h.007z"/><linearGradient id="Y" gradientUnits="userSpaceOnUse" x1="-6.866" y1="11.443" x2="-67.058" y2="-15.39"><stop offset="0" stop-color="#ffc444"/><stop offset="1" stop-color="#f39e56"/></linearGradient><path fill="url(#Y)" d="M-19.727-27.263l8.006 16.04a2.04 2.04 0 0 0 1.534 1.102L7.717-7.55c1.67.239 2.336 2.27 1.127 3.434L-4.111 8.369a2.01 2.01 0 0 0-.585 1.783l3.059 17.628c.283 1.645-1.462 2.898-2.955 2.122l-16.015-8.323a2.05 2.05 0 0 0-1.896 0l-16.015 8.324c-1.492.777-3.239-.479-2.955-2.122l3.057-17.629c.113-.652-.106-1.32-.586-1.783L-51.956-4.116c-1.208-1.164-.542-3.195 1.128-3.434l17.903-2.571a2.04 2.04 0 0 0 1.534-1.102l8.006-16.04a2.05 2.05 0 0 1 2.758-.893c.384.196.696.509.893.893h.007z"/><path opacity=".2" fill="#ffc444" d="M-8.942 17.697c-6.144-5.778-13.065-5.456-15.861-12.131-3.132-7.481 3.536-12.718 2.396-21.896-.274-2.223-1.021-4.761-2.675-7.522l-6.303 12.626c-.301.596-.874 1.008-1.535 1.102l-17.902 2.571c-1.671.239-2.337 2.27-1.128 3.434l12.955 12.485a2 2 0 0 1 .585 1.783l-3.058 17.629c-.284 1.644 1.462 2.899 2.955 2.122l16.014-8.323a2.05 2.05 0 0 1 1.896 0L-4.588 29.9c.87.451 1.824.215 2.414-.383-1.589-5.754-4.185-9.396-6.762-11.82h-.006 0z"/></g><g transform="translate(0 31)"><path fill="#26264f" d="M-44.885 60.502c-.907.921-1.274 1.909-.945 2.488.229.399.732.504 1.283.608.871.17 1.779.125 3.646-.406 1.744-.495 2.769-.786 2.771-1.207 0-.395-.896-.7-1.683-.967a9.78 9.78 0 0 0-2.76-.518l-2.312.002h0 0zm27.108-14.93c-.408.178-.932.489-1.072 1.008-.22.817.646 1.66 2.035 2.976 1.041.986 2.447 2.318 2.938 1.981.3-.205.123-.946-.042-1.635-.199-.829-.639-2.112-1.726-3.521l-2.133-.809h0z"/><linearGradient id="Z" gradientUnits="userSpaceOnUse" x1="-382.107" y1="101.185" x2="-382.78" y2="101.945" gradientTransform="matrix(4.7979 0 0 3.4694 1792.5347 -292.9001)"><stop offset="0" stop-color="#622e04"/><stop offset="1" stop-color="#b3611f"/></linearGradient><path fill="url(#Z)" d="M-42.895 58.474l-1.951 2.177c-.202.224-.103.583.188.663.429.121 1.023.219 1.572.062.12-.037.229-.104.314-.194l1.948-1.914-2.071-.795v.001z"/><linearGradient id="a" gradientUnits="userSpaceOnUse" x1="-14.94" y1="43.232" x2="-17.104" y2="46.521"><stop offset="0" stop-color="#622e04"/><stop offset="1" stop-color="#b3611f"/></linearGradient><path fill="url(#a)" d="M-16.696 44.259l-1.052 1.523c-.15.216-.078.513.151.639.167.095.341.176.521.241.305.112.648.026.864-.216l1.142-1.293-1.625-.896-.001.002z"/><linearGradient id="b" gradientUnits="userSpaceOnUse" x1="-377.899" y1="-21.359" x2="-378.078" y2="-21.841" gradientTransform="matrix(27.5237 0 0 59.5553 10371.4512 1331.6073)"><stop offset="0" stop-color="#5ddafd"/><stop offset="1" stop-color="#026bd4"/></linearGradient><path fill="url(#b)" d="M-35.602 12.31a37.02 37.02 0 0 1 2.938 8.931c.307 1.597 1.749 9.635-1.349 19.321-2.879 9.016-8.188 14.755-11.011 17.416.4.341.953.738 1.671 1.074.9.418 1.874.654 2.865.694 8.621-6.188 12.802-13.196 14.7-17.015 6.404-12.871 4.797-25.508 1.998-30.854-.919-1.757-1.958-2.706-3.134-3.128-3.772-1.355-8.149 3.016-8.684 3.561h.006z"/><path opacity=".3" fill="#026bd4" d="M-23.785 11.879c-.918-1.757-1.957-2.706-3.133-3.128-3.772-1.355-8.151 3.016-8.685 3.561.987 2.074 2.174 5.055 2.907 8.775 2.635.624 6.321 2.102 8.114 5.596 2.904 5.653-1.272 12.429-2.139 13.836-1.908 3.095-3.063 2.805-5.878 7.254-2.127 3.359-2.288 4.822-4.141 6.449-2.177 1.908-4.895 2.469-7.09 2.59-.43.439-.833.832-1.19 1.172.507.431 1.068.792 1.671 1.074a7.51 7.51 0 0 0 2.865.694c8.62-6.188 12.802-13.198 14.7-17.015 6.404-12.871 4.796-25.51 1.997-30.854v-.004z"/><linearGradient id="c" gradientUnits="userSpaceOnUse" x1="-377.621" y1="-19.161" x2="-377.981" y2="-19.78" gradientTransform="matrix(32.9335 0 0 46.2227 12430.2627 929.1708)"><stop offset="0" stop-color="#5ddafd"/><stop offset="1" stop-color="#026bd4"/></linearGradient><path fill="url(#c)" d="M-30.727 11.839a15.04 15.04 0 0 0 2.604 3.76c3.383 3.549 6.547 3.213 10.132 6.137.441.359 3.616 3.007 4.79 6.871 2.256 7.434-4.302 14.768-5.03 15.558a8.03 8.03 0 0 0 1.93 1.324c.655.319 1.352.544 2.069.67C-4.826 37.517-.229 27.05-3.359 20.242c-1.706-3.711-5.748-6.411-8.731-8.401-4.882-3.259-9.54-4.74-12.571-5.464l-6.066 5.462h0z"/><linearGradient id="d" gradientUnits="userSpaceOnUse" x1="-31.557" y1="24.643" x2="-40.941" y2="-20.717"><stop offset="0" stop-color="#fc9b7a"/><stop offset="1" stop-color="#ff6f00"/></linearGradient><path fill="url(#d)" d="M-25.115-7.882c.143 4.182-.822 6.35.528 9.764.97 2.45 2.577 4.137 3.798 5.185-.694 1.339-2.311 4.014-5.469 6.104-3.815 2.524-7.608 2.693-9.099 2.681-3.153-1.633-7.94-4.711-11.783-10.191-2.604-3.714-5.465-7.792-4.707-12.99.961-6.605 7.047-10.134 8.773-11.135 1.135-.657 8.979-5.206 13.772-1.864 3.855 2.688 4.08 9.318 4.186 12.446h0z"/><linearGradient id="e" gradientUnits="userSpaceOnUse" x1="3.864" y1="-8.373" x2="4.314" y2="-2.285"><stop offset="0" stop-color="#622e04"/><stop offset="1" stop-color="#b3611f"/></linearGradient><path fill="url(#e)" d="M1.101-3.136c.126-.676.607-1.166.88-1.445.318-.324.385-.273.593-.535.523-.668.395-1.354.597-1.379.175-.02.481.477.462.988-.021.572-.438.743-.36 1.061.108.445 1.097.77 1.97.603 1.012-.193 1.507-1.013 1.903-.806.288.15.27.691.268.74-.046 1.012-1.393 2.077-2.706 2.215-.757.08-1.039-.197-1.938.033-.596.153-.805.358-1.103.233-.489-.202-.688-1.067-.568-1.713l.002.005z"/><linearGradient id="f" gradientUnits="userSpaceOnUse" x1="-377.48" y1="-13.587" x2="-377.852" y2="-14.049" gradientTransform="matrix(45.0525 0 0 29.9645 16998.6191 409.1059)"><stop offset="0" stop-color="#fc9b7a"/><stop offset="1" stop-color="#ff6f00"/></linearGradient><path fill="url(#f)" d="M1.245-3.497c-8.1.563-12.936-1.553-15.851-3.582-6.614-4.599-7.913-11.912-15.585-13.88-1.398-.358-3.836-.983-5.166.269-2.764 2.602.495 12.138 6.234 17.998 1.268 1.293 5.833 5.821 13.367 6.844C-6.098 5.464.832-.018 2.025-.996c.379-.431.495-1.029.299-1.556-.278-.742-1.02-.931-1.079-.947v.002z"/><path opacity=".3" fill="#ff6f00" d="M-38.83 9.31c-2.279-2.174-1.2-3.521-4.008-7.879-2.859-4.444-4.918-4.525-6.234-7.522-.681-1.549-1.102-3.776-.352-6.974-1.155 1.565-2.097 3.463-2.425 5.732-.758 5.198 2.103 9.275 4.705 12.99 3.844 5.48 8.629 8.557 11.785 10.191 1.488.014 5.282-.155 9.099-2.681a16.12 16.12 0 0 0 3.37-2.987 14.93 14.93 0 0 1-4.099 1.549c-.761.164-7.665 1.563-11.846-2.418l.005-.001z"/><linearGradient id="g" gradientUnits="userSpaceOnUse" x1="-379.585" y1="37.581" x2="-379.963" y2="38.747" gradientTransform="matrix(9.1711 0 0 6.8854 3443.8914 -285.6474)"><stop offset="0" stop-color="#622e04"/><stop offset="1" stop-color="#b3611f"/></linearGradient><path fill="url(#g)" d="M-40.922-22.989l-.661 2.239c-.21.716-.638 1.349-1.225 1.81l-1.75 1.379s5.34-.901 7.893-3.404l-1.559-.495c-.163-.052-.275-.205-.275-.378v-1.648l-2.423.494v.003z"/><g transform="translate(10.078)"><linearGradient id="h" gradientUnits="userSpaceOnUse" x1="-58.512" y1="-23.395" x2="-47.051" y2="-25.365"><stop offset="0" stop-color="#622e04"/><stop offset="1" stop-color="#b3611f"/></linearGradient><path fill="url(#h)" d="M-49.08-21.858c.254-.056 2.098.248 2.621-.644.712-1.209.005-3.142-.067-3.44-.3-1.25-.409-1.438-.641-1.704l-.327-.347-.042-.029c-.227-.158-1.074-.412-1.256-.421-.584-.029-1.773 2.076-2.454 5.323l-.163.352c-.141.307 2.312 1.031 2.329.91h0z"/><path fill="#26264f" d="M-46.106-28.594c-.267.991-1.013 1.925-1.295 2.031-.036.014-.244.104-.461.297-.029.027-.059.059-.088.101-.381.567.412 1.567.146 1.797-.191.168-.793-.285-.918-.13-.117.144.35.636.21.812-.103.133-.41-.098-.688.074-.139.086-.129.185-.335.5-.117.18-.265.371-.367.471-.495.49-1.517.445-1.642.162-.033-.079.023-.123.028-.354 0 0 .005-.216-.073-.485-.112-.388-.53-.754-.924-1.238-.728-.895-.822-1.515-.849-1.722l-.014-.169c-.04-.792.245-1.867.746-2.441.84-.959 1.938-.103 3.237-.927 1.5-.952 1.266-2.866 1.948-2.887.752-.022 1.824 2.279 1.332 4.109l.007-.001z"/><linearGradient id="i" gradientUnits="userSpaceOnUse" x1="-422.784" y1="246.552" x2="-421.524" y2="246.295" gradientTransform="matrix(1.1137 0 0 1.6998 421.2476 -442.865)"><stop offset="0" stop-color="#622e04"/><stop offset="1" stop-color="#b3611f"/></linearGradient><path fill="url(#i)" d="M-48.096-24.696c-.151-.397-.659-.197-.776.232s.18.993.606 1.016.38-.711.173-1.248h-.003z"/></g></g></g><g transform="translate(57.494 165.504)"><g transform="translate(77.506 10.496)"><ellipse fill="#a3abb1" cx="40.218" cy="64.92" rx="17.109" ry="6.992"/><path fill="#f2f3f4" d="M57.331 64.099c0 3.646-7.661 6.603-17.108 6.603s-17.109-2.955-17.109-6.603 7.662-9.61 17.109-9.61 17.108 5.962 17.108 9.61z"/><g fill="#d7dce0"><path opacity=".4" d="M57.331 64.099c0-3.645-7.661-9.61-17.108-9.61-4.362 0-8.342 1.272-11.365 3.002-.212.442-.31.886-.271 1.305.196 2.052 3.537 3.312 5.454 3.728 4.829 1.05 7.187-1.844 11.169-1.731 2.462.067 5.872 1.306 9.919 6.552 1.401-.955 2.202-2.063 2.202-3.238v-.008z"/><path d="M41.156 57.8c-.684.17-1.32.164-1.92.012-.545-.141-.919-.645-.919-1.205v-19.32h3.805V56.58c0 .579-.405 1.076-.966 1.218v.002z"/><path d="M20.115 29.156l5.811-3.679c.243-1.375 2.981-15.75 14.103-20.268 4.524-1.836 9.392-1.617 12.063-1.498 5.333.237 9.137.408 10.966 2.957 2.35 3.27-1.591 6.238-.776 15.592.333 3.814 1.178 5.51.125 8.037-1.261 3.027-4.189 4.707-6.466 5.651-2.721 1.582-7.458 3.838-13.715 4.386-10.538.927-18.41-3.603-21.115-5.334a3.49 3.49 0 0 1-2.364-2.618 3.08 3.08 0 0 1 1.367-3.224l.001-.002h0z"/></g><g fill="#a3abb1"><path d="M53.267 4.481c3.944.117 6.394.07 7.75 1.834 1.423 1.85-.014 3.429-.282 10.019-.243 6.009.814 8.386-1.125 11.714 0 0-.985 1.689-2.54 2.961-5.496 4.492-19.676 4.437-25.646-4.938-4.761-7.479-2.777-18.508 2.819-22.155 2.741-1.789 3.371.101 19.024.565h0z"/><path d="M19.694 25.853l5.813-3.678s15.568-5.125 29.972 2.103c1.613.81 2.618 2.479 2.618 4.286a3.44 3.44 0 0 1-2.11 3.173c-2.512 1.719-7.418 4.556-14.181 5.296-10.75 1.179-18.75-3.751-21.113-5.336a3.49 3.49 0 0 1-2.364-2.617c-.26-1.256.284-2.539 1.367-3.223l-.002-.004h0z"/></g><linearGradient id="j" gradientUnits="userSpaceOnUse" x1="99.114" y1="-15.091" x2="100.512" y2="-14.72" gradientTransform="matrix(44.0104 0 0 32.2047 -4361.8311 484.0885)"><stop offset="0" stop-color="#5ddafd"/><stop offset="1" stop-color="#026bd4"/></linearGradient><path fill="url(#j)" d="M-18.808 5.193s24.77 7.786 24.15-20.785l13.72 4.063s1.332 33.166-32.861 20.951l-5.009-4.229h0z"/><path fill="#26264f" d="M17.793 71.854h2.238c.556.895 1.169 2.168.675 2.982-.34.568-.915.422-2.534.936-2.26.718-2.808 1.537-4.742 1.674-.708.051-1.228.087-1.368-.167-.399-.728 2.674-3.195 5.725-5.425h.006z"/><linearGradient id="k" gradientUnits="userSpaceOnUse" x1="19.063" y1="72.89" x2="19.063" y2="69.486"><stop offset="0" stop-color="#ffc444"/><stop offset="1" stop-color="#f39e56"/></linearGradient><path fill="url(#k)" d="M18.14 72.603l.561.227c.62.225 1.267-.254 1.27-.914v-.063a7.74 7.74 0 0 1 .366-2.256l-2.473-.115c.19 1.097.123 1.878-.05 2.445-.085.274.061.567.326.676h0 0z"/><path fill="#26264f" d="M.509 65.834h2.238c.555.896 1.169 2.169.675 2.984-.34.567-.916.42-2.534.934-2.26.72-2.808 1.538-4.742 1.675-.709.051-1.228.088-1.368-.168-.399-.728 2.675-3.195 5.725-5.427l.006.002z"/><linearGradient id="l" gradientUnits="userSpaceOnUse" x1="1.779" y1="66.866" x2="1.779" y2="63.463"><stop offset="0" stop-color="#ffc444"/><stop offset="1" stop-color="#f39e56"/></linearGradient><path fill="url(#l)" d="M.855 66.583l.561.227c.62.225 1.268-.254 1.27-.914v-.063c.009-.766.132-1.526.366-2.256L.58 63.463c.19 1.095.123 1.878-.05 2.444-.086.274.06.567.325.676h0z"/><linearGradient id="m" gradientUnits="userSpaceOnUse" x1="32.22" y1="86.985" x2="24.474" y2="20.934"><stop offset="0" stop-color="#fc9b7a"/><stop offset="1" stop-color="#ff6f00"/></linearGradient><path fill="url(#m)" d="M.534 64.681C-1.152 56.11-.962 49.031-.505 44.306.377 35.177.846 30.338 4.508 25.862c3.441-4.209 6.642-4.354 14.3-11.479 1.97-1.835 3.846-3.768 5.621-5.791 11.485-3.373 22.08-2.008 26.752 4.161.541.712 1.892 2.257 2.154 4.538.592 5.143-4.458 11.336-10.12 12.627-7.198 1.643-11.373-5.758-17.748-3.296-1.783.688-3.296 2.396-6.322 5.808-3.846 4.344-6.009 8.35-6.829 9.953-2.437 4.772-4.284 8.297-4.555 12.864-.062 1.063-.101 3.214-1.345 5.53-.955 1.779-2.25 2.965-3.213 3.699l-2.673.201.004.004h0z"/><linearGradient id="n" gradientUnits="userSpaceOnUse" x1="36.196" y1="95.985" x2="33.68" y2="23.859"><stop offset="0" stop-color="#fc9b7a"/><stop offset="1" stop-color="#ff6f00"/></linearGradient><path fill="url(#n)" d="M16.211 69.168c.695 1.296 2.057 2.063 5.021 1.56 4.187-4.762 5.571-8.986 6.059-11.963 1.058-6.43-1.602-9.734.865-14.91 1.605-3.37 4.31-5.282 6.573-6.885 5.454-3.858 7.745-2.355 12.406-5.908 1.75-1.332 5.938-4.526 6.5-9.786.489-4.572-2.051-7.992-2.458-8.523-3.282-4.282-9.439-6.021-15.576-4.44-.862 2.177-2.431 5.586-5.194 9.188-3.497 4.559-5.774 5.342-9.35 9.883-1.672 2.121-4.524 5.746-6.028 10.869-.874 2.979-.988 5.422-.031 17.393l1.211 13.522h.002z"/><linearGradient id="o" gradientUnits="userSpaceOnUse" x1="26.221" y1="-13.192" x2="77.844" y2="62.96"><stop offset="0" stop-color="#5ddafd"/><stop offset="1" stop-color="#026bd4"/></linearGradient><path fill="url(#o)" d="M5.343-15.592c.553-7.159 20.111-16.511 35.615-9.985C59.322-17.847 59.509 6.901 59.5 8.685c-.059 7.644-2.554 16.328-5.359 16.521-2.054.14-2.174-4.421-6.411-6.913-4.538-2.667-8.001.449-18.657.137-4.851-.143-10.341-.305-11.602-3.121-1.272-2.844 3.185-5.205 3.662-9.795.978-9.432-16.322-14.171-15.79-21.106h0z"/><path opacity=".2" fill="#026bd4" d="M56.096 13.653c-1.345-2.459-4.239-5.342-8.013-6.241-4.912-1.171-7.095 2.028-10.684.534-4.41-1.834-2.696-7.317-7.122-9.986-3.776-2.277-7.446.249-12.311.057 2.068 2.194 3.463 4.629 3.165 7.496-.477 4.592-4.934 6.949-3.662 9.793 1.261 2.815 6.751 2.979 11.602 3.121 10.656.313 14.119-2.807 18.657-.138 4.24 2.49 4.357 7.056 6.411 6.914 1.183-.081 2.308-1.674 3.221-4.058.33-2.733-.084-5.335-1.264-7.492h0z"/><linearGradient id="p" gradientUnits="userSpaceOnUse" x1="99.411" y1="56.868" x2="98.911" y2="56.742" gradientTransform="matrix(10.0373 0 0 5.4218 -975.5322 -331.9508)"><stop offset="0" stop-color="#ffc444"/><stop offset="1" stop-color="#f39e56"/></linearGradient><path fill="url(#p)" d="M16.713-26.388l.684.335c1.329.647 2.831.852 4.284.582l1.945-.363a.5.5 0 0 1 .517.754c-1.097 1.729-3.924 4.994-8.56 2.381l1.127-3.687.003-.002h0z"/><path fill="#622e04" d="M11.891-26.346c-2.389-.867-3.201-6.526-2.021-7.146.678-.357 1.295 1.333 3.813 1.979 1.959.506 3.207-.1 4.041.88.394.461.628 1.194.623 1.842-.003.332-.086.777-.31 1.651l-.243.97c-.156.548-.497 1.496-1.297 2.747-.179-.29-.419-.646-.74-1.008a6.36 6.36 0 0 0-1.217-1.077c-1.097-.709-1.959-.589-2.646-.838h-.003z"/><linearGradient id="q" gradientUnits="userSpaceOnUse" x1="12.518" y1="-24.026" x2="19.338" y2="-28.051"><stop offset="0" stop-color="#ffc444"/><stop offset="1" stop-color="#f39e56"/></linearGradient><path fill="url(#q)" d="M17.611-24.772s-.519 2.148-2.741 2.709c-1.99.498-3.681-3.787-2.732-5.118.316-.445 1.108-.841 1.845-.867.435-.017.625.106 1.337.067.656-.037.807-.159 1.038-.064.291.12.608.537.639 1.939.251-.498.65-.785 1.016-.738.127.023.245.083.34.17.433.414.181 1.199-.739 1.902h-.003z"/></g><g transform="translate(.506 21.496)"><g fill="#a3abb1"><path d="M54.613 61.093c-.145 0-.273-.103-.298-.246L42.433-3.032c-.03-.166.079-.324.246-.354s.324.079.354.245l11.28 60.629V-7.313c0-.166.137-.303.304-.303s.304.137.304.303V60.79c0 .156-.12.291-.276.305h-.028-.003v-.002zm-62.051 1.91c-.159-.014-.279-.145-.279-.304V.15c0-.167.137-.306.304-.306s.304.139.304.306v58.852L3.565-1.588c.028-.166.182-.278.352-.25s.279.185.251.351l-11.28 64.234c-.025.148-.153.254-.301.254-.001.002-.017.002-.025.002zM145.033 83.46l-13.736-72.826a.31.31 0 0 1 .234-.363c.167-.036.326.07.362.233l13.134 69.974V14.457c0-.168.137-.305.304-.305s.304.137.304.305v68.938c0 .156-.117.287-.273.304h-.031c-.141.003-.267-.098-.298-.239zM72.987 95.744h-.031c-.156-.017-.273-.147-.273-.304V26.229c0-.166.137-.303.304-.303s.304.137.304.303v66.18l12.027-67.986c.034-.164.196-.271.36-.236s.271.195.237.359L73.287 95.499a.31.31 0 0 1-.3.245h0z"/><path d="M145.979 14.806L72.82 26.736-8.077.412V-.776l80.76 26.326 73.292-11.934.004 1.19z"/></g><path opacity=".8" fill="#f4f7fa" d="M145.979 13.617L72.82 25.552-8.074-.772l67.182-6.153 86.871 20.542z"/><path fill="#a3abb1" d="M78.373-.075l15.153 2.334V3.29L87.22 6.326 74.017 2.994l4.356-3.069z"/><path fill="#f2f3f4" d="M78.016-2.321l15.51 4.58-6.306 3.035-13.203-3.332 3.999-4.283z"/><g transform="translate(49.877)"><path fill="#e9ecf0" d="M32.318 9.694l-2.42-31.943c-.039-.505-.471-.976-1.046-1.137L-12.59-35.032c-.371-.104-1.082 0-1.363.172s-.603.137-.589.463l1.732 29.521c.028.491.432.957.984 1.136l43.251 14.047.89-.61.003-.003h0z"/><linearGradient id="r" gradientUnits="userSpaceOnUse" x1="35.082" y1="3.229" x2="-11.391" y2="-24.462"><stop offset="0" stop-color="#b0aeae"/><stop offset="1" stop-color="#8e8d8d"/></linearGradient><path fill="url(#r)" d="M31.426 10.306l-2.51-32.211c-.039-.506-.472-.977-1.046-1.136L-13.57-34.69c-.371-.104-.75-.063-1.032.113a.87.87 0 0 0-.423.791l1.245 29.229c.022.501.438.98 1.007 1.156l44.199 13.707h0z"/><path opacity=".2" fill="#a3abb1" d="M31.426 10.306l-44.2-13.707c-.569-.176-.984-.655-1.007-1.156l-.376-8.814c13.12 8.37 29.64 11.604 45.017 16.436l.563 7.24h.003v.001z"/><path fill="#e9ecf0" d="M9.433 11.287l1.567.974 7.889-3.5c.07-.031.376-.412 0-.567-1.994-.832-9.606-2.798-9.606-2.798l-3.96 1.883 4.11 4.008h0z"/><linearGradient id="s" gradientUnits="userSpaceOnUse" x1="17.167" y1="7.932" x2="7.172" y2="8.395"><stop offset="0" stop-color="#b0aeae"/><stop offset="1" stop-color="#8e8d8d"/></linearGradient><path fill="url(#s)" d="M9.433 10.718l1.567.974 7.889-3.498c.446-.199-9.606-3.365-9.606-3.365L5.323 6.71l4.11 4.008h0z"/><path fill="#e9ecf0" d="M1.694-13.946l-4.16 21.254c-.365 1.037 10.293 4.396 12.841 5.033.212.053.527-.039.627-.084.725.067-2.657-24.307-2.657-24.307l-.249-.051-6.402-1.85v.005h0z"/><linearGradient id="t" gradientUnits="userSpaceOnUse" x1="153.949" y1="-14.162" x2="153.744" y2="-14.386" gradientTransform="matrix(15.7927 0 0 30.5267 -2425.2661 437.4146)"><stop offset="0" stop-color="#b0aeae"/><stop offset="1" stop-color="#8e8d8d"/></linearGradient><path fill="url(#t)" d="M-3.125 7.375c-.396 1.12 12.345 4.754 13.469 4.951.725.066-2.244-24.424-2.244-24.424l-6.403-1.849c-.003.001-4.426 20.198-4.822 21.322z"/></g></g><linearGradient id="u" gradientUnits="userSpaceOnUse" x1="105.196" y1="-15.565" x2="124.933" y2="95.555"><stop offset="0" stop-color="#5ddafd"/><stop offset="1" stop-color="#026bd4"/></linearGradient><path fill="url(#u)" d="M91.403 23.892s15.274 6.707 28.216 0 7.772-31.623 7.772-31.623-4.145-7.68-13.633-6.604-4.225 13.252-2.553 21.31-1.341 15.578-19.427 13.521l-.375 3.396h0z"/><linearGradient id="v" gradientUnits="userSpaceOnUse" x1="87.96" y1="19.127" x2="87.96" y2="23.43"><stop offset="0" stop-color="#ffc444"/><stop offset="1" stop-color="#f39e56"/></linearGradient><path fill="url(#v)" d="M91.079 19.671l-2.626-.507a2.04 2.04 0 0 0-1.505.298l-2.886 1.637c-.653.369-.48 1.412.259 1.504.516.066 1.142.085 1.878.008 2.537-.264 3.309.711 4.474.816s2.692-2.271.409-3.756h-.003 0z"/><g transform="translate(51.506 .496)"><linearGradient id="w" gradientUnits="userSpaceOnUse" x1="-12.777" y1="-29.817" x2="-8.079" y2="-22.973"><stop offset="0" stop-color="#ffc444"/><stop offset="1" stop-color="#f39e56"/></linearGradient><path fill="url(#w)" d="M-10.909-31.889l1.106 2.579 2.439.959c.266.104.379.477.192.629l-1.737 1.419.464 2.737c.049.299-.225.448-.467.254l-2.208-1.792-2.168.7c-.233.076-.508-.209-.464-.48l.401-2.502-1.737-2.241c-.187-.24-.083-.556.172-.533l2.388.201 1.051-2.06c.112-.223.447-.144.565.132l.003-.002z"/><linearGradient id="x" gradientUnits="userSpaceOnUse" x1="-3.423" y1="-27.601" x2="1.274" y2="-20.757"><stop offset="0" stop-color="#ffc444"/><stop offset="1" stop-color="#f39e56"/></linearGradient><path fill="url(#x)" d="M-1.564-29.679L-.459-27.1l2.439.959c.267.104.378.477.192.629L.435-24.093l.464 2.736c.049.3-.225.449-.466.254l-2.209-1.792-2.165.7c-.233.076-.508-.209-.464-.48l.4-2.502-1.737-2.24c-.187-.24-.082-.556.173-.533l2.387.2 1.051-2.06c.113-.223.447-.144.565.132v-.002h.002z"/><linearGradient id="y" gradientUnits="userSpaceOnUse" x1="6.592" y1="-25.414" x2="11.295" y2="-18.577"><stop offset="0" stop-color="#ffc444"/><stop offset="1" stop-color="#f39e56"/></linearGradient><path fill="url(#y)" d="M8.479-27.47l1.105 2.579 2.44.959c.266.104.378.477.192.629l-1.737 1.419.463 2.736c.05.3-.225.449-.466.254l-2.209-1.793-2.167.702c-.234.076-.508-.209-.464-.479l.4-2.503-1.737-2.24c-.187-.24-.083-.555.173-.533l2.387.201 1.051-2.06c.112-.223.447-.145.565.132l.004-.003z"/><linearGradient id="z" gradientUnits="userSpaceOnUse" x1="16.125" y1="-23.075" x2="20.817" y2="-16.238"><stop offset="0" stop-color="#ffc444"/><stop offset="1" stop-color="#f39e56"/></linearGradient><path fill="url(#z)" d="M17.995-25.142l1.106 2.579 2.439.958c.267.104.378.478.192.63l-1.737 1.419.464 2.736c.049.299-.225.449-.467.254l-2.208-1.791-2.166.699c-.233.076-.507-.209-.463-.479l.4-2.502-1.737-2.241c-.187-.239-.082-.555.173-.533l2.387.201 1.051-2.06c.112-.223.447-.144.565.132l.001-.002h0z"/><path fill="#d8dee8" d="M18.962-11.543l-32.667-8.409c-.818-.207-1.476-1.104-1.476-1.996h0c0-.89.655-1.439 1.465-1.237l32.394 8.151c.908.229 1.712 1.194 1.797 2.159h0c.083.968-.593 1.566-1.51 1.332h-.003z"/><path fill="#ffc444" d="M-13.809-23.207c-.76-.191-1.375.327-1.375 1.157v.201c0 .835.62 1.676 1.386 1.874l23.597 6.206 3.924-2.707-27.532-6.731z"/></g></g><g transform="translate(513 159)"><linearGradient id="AA" gradientUnits="userSpaceOnUse" x1="-671.891" y1="29.359" x2="-672.044" y2="29.424" gradientTransform="matrix(3 0 0 8 1947.1797 -262.9219)"><stop offset="0" stop-color="#ffc444"/><stop offset="1" stop-color="#f39e56"/></linearGradient><path fill="url(#AA)" d="M-68.292-24.29c.428-.814.661-1.716.682-2.635.055-2.447-1.428-4.352-1.628-4.244-.105.058.029.775.105 1.093.158.662.328.725.313 1.029-.027.624-.767.649-1.153 1.479-.279.597-.304 1.447 0 2.122.501 1.118 1.631 1.155 1.678 1.158l.003-.002z"/><linearGradient id="AB" gradientUnits="userSpaceOnUse" x1="-667.401" y1="47.496" x2="-667.027" y2="47.795" gradientTransform="matrix(5 0 0 6 3305.6797 -262.9219)"><stop offset="0" stop-color="#ffc444"/><stop offset="1" stop-color="#f39e56"/></linearGradient><path fill="url(#AB)" d="M-32.117 25.632l-.636-2.369 2.65-2.125 1.653-.67-.979 3.311-2.688 1.853z"/><linearGradient id="AC" gradientUnits="userSpaceOnUse" x1="-669.461" y1="36.18" x2="-669.74" y2="35.283" gradientTransform="matrix(4 0 0 7 2645.1797 -174.9219)"><stop offset="0" stop-color="#ffc444"/><stop offset="1" stop-color="#f39e56"/></linearGradient><path fill="url(#AC)" d="M-35.332 70.776s1.374 3.9 1.012 5.633c1.476-.032 2.428-.246 2.428-.246s-.593-1.779-.706-2.66c-.157-1.191-.146-3.119-.146-3.119l-2.589.394.001-.002h0z"/><path fill="#9571f6" d="M-51.978 79.871c.101.108.272.338.29.646.008.168-.033.305-.087.434-.261.627-.667.707-1.106 1.372-.271.405-.221.526-.465.714-.325.24-.719.256-1.059.257-.576.007-1.402-.013-2.445-.125l1.744-1.964.813-.854 1.604-.498.711.018h0z"/><linearGradient id="AD" gradientUnits="userSpaceOnUse" x1="-668.811" y1="12.498" x2="-668.924" y2="11.601" gradientTransform="matrix(4 0 0 11 2621.1797 -52.9219)"><stop offset="0" stop-color="#ffc444"/><stop offset="1" stop-color="#f39e56"/></linearGradient><path fill="url(#AD)" d="M-53.11 72.104s-.866 4.592.236 5.875c.94 1.285-.454.369-.454.369l-1.665 1.475-.997 1.749s.919-4.491.675-6.272l-.368-2.986 2.576-.207h-.003v-.003z"/><linearGradient id="AE" gradientUnits="userSpaceOnUse" x1="-44.624" y1="73.601" x2="-48.048" y2="12.617"><stop offset="0" stop-color="#a03976"/><stop offset="1" stop-color="#311944"/></linearGradient><path fill="url(#AE)" d="M-56.961 20.53s-2.473 2.169-2.473 11.098 1.17 28.314 1.17 28.314l1.873 13.879s1.94.068 3.242-.313c1.17-5.23 3.077-14.076 2.168-21.474-.391-8.035 3.25-18.11 3.25-18.11s3.123 10.203 5.334 15.305 6.422 21.087 6.813 22.232c2.587.23 3.69-.439 3.69-.439s-1.658-17.199-3.219-23.705-1.43-22.191-4.031-26.655c-5.852-2.297-17.817-.128-17.817-.128v-.004z"/><path opacity=".2" fill="#311944" d="M-44.127 36.254c.771 4.976 2.313 7.655 6.166 11.101 3.082 2.296.771 7.271 1.926 11.1.386 1.146 1.541 2.296 1.928 3.443 1.435 2.849.094 6.332.744 9.349 1.014-.14 1.471-.419 1.471-.419s-1.659-17.424-3.219-24.014-1.43-22.479-4.031-27c-5.852-2.325-17.817-.129-17.817-.129s-2.472 2.195-2.472 11.24l.021 2.396c2.565 2.257 7.813 2.757 11.048.256.195-.146.402-.235.617-.278l.017-.048c.005.016.011.031.017.046 1.472-.266 3.255 1.635 3.589 2.961l-.005-.004z"/><path fill="#9571f6" d="M-34.579 78.164s-.353 0-.323.453-.158 2.006 1.628 2.079 2.064-.127 2.123-.127-.469-1.486-.469-1.486l-.571-.729-1.54-.159-.851-.028.003-.003z"/><linearGradient id="AF" gradientUnits="userSpaceOnUse" x1="-32.56" y1="80.546" x2="-33.486" y2="72.389"><stop offset="0" stop-color="#e38ddd"/><stop offset="1" stop-color="#9571f6"/></linearGradient><path fill="url(#AF)" d="M-30.614 79.724c-.037-.375-.249-.965-.461-1.441-.314-.705-.057-.969-.36-1.613-.104-.222-.204-.433-.426-.641-.051-.049-.545-.502-1.263-.479-.141.004-.359.014-.594.137-.276.146-.415.369-.535.562-.188.304-.144.396-.431 1.271-.022.072-.074.223-.112.434-.028.159-.042.294-.047.389.469 0 2.271.071 2.652.35s.571.744.571 1.21.234.686.469.67c.212-.017.627-.403.537-.849h0z"/><linearGradient id="AG" gradientUnits="userSpaceOnUse" x1="-54.21" y1="83.257" x2="-55.206" y2="73.476"><stop offset="0" stop-color="#e38ddd"/><stop offset="1" stop-color="#9571f6"/></linearGradient><path fill="url(#AG)" d="M-52.373 78.47c.239.842.813 1.969.048 1.409-1.34-.177-2.313 1.751-2.793 2.464s-1.763 1.346-1.731.649.6-1.022.758-1.735 1.742-4.003 2.728-3.986c.433.006.75.354.99 1.199z"/><linearGradient id="AH" gradientUnits="userSpaceOnUse" x1="-33.751" y1="31.704" x2="-37.519" y2="-10.056"><stop offset="0" stop-color="#e38ddd"/><stop offset="1" stop-color="#9571f6"/></linearGradient><path fill="url(#AH)" d="M-30.613 21.327c.321-.879 2.318-6.654-.911-11.92-2.643-4.311-7.216-5.719-7.869-5.909-3.97-1.157-5.959.33-7.211-1.039-2.124-2.323.282-10.237 4.939-11.825 5.249-1.787 11.546 5.086 14.098 9.598 3.349 5.921 2.523 11.807 2.33 13.02-.504 3.15-1.674 5.551-2.542 7.026l-2.836 1.049h.002z"/><linearGradient id="AI" gradientUnits="userSpaceOnUse" x1="-34.983" y1="59.348" x2="-44.918" y2="-11.335"><stop offset="0" stop-color="#e38ddd"/><stop offset="1" stop-color="#9571f6"/></linearGradient><path fill="url(#AI)" d="M-54.125-8.54c-2.135 2.133.021 4.543-.442 10.127-.709 8.549-6.151 10.637-6.563 19.307-.139 2.923.355 5.312.74 6.75 1.192 1.488 3.148 3.59 6.035 5.348 4.198 2.557 6.636 2.109 12.662 3.763 9.863 2.702 10.741 5.919 15.634 5.101 4.941-.83 9.279-4.991 8.756-7.278-.313-1.368-2.308-.981-4.603-3.069-2.956-2.689-1.815-5.262-4.063-8.152-3.229-4.154-7.729-1.614-10.479-5.215-2.783-3.643-1.678-10.818.666-14.729 1.533-2.554 2.189-5.548 3.493-8.228.158-.324.221-.688.179-1.045-.212-1.744-3.118-2.69-5.318-3.386-3.356-1.06-6.081-1.188-6.463-1.204-4.636-.186-8.213-.112-10.234 1.91z"/><linearGradient id="AJ" gradientUnits="userSpaceOnUse" x1="-664.595" y1="19.481" x2="-664.144" y2="20.257" gradientTransform="matrix(6.8353 0 0 9.4289 4495.3955 -203.5309)"><stop offset="0" stop-color="#ffc444"/><stop offset="1" stop-color="#f39e56"/></linearGradient><path fill="url(#AJ)" d="M-46.407-13.606c.176-1.332 1.242-2.187 1.479-2.368.976-.764 1.173-.842 1.51-.905l.457-.067h.05c.268.016 1.071.325 1.216.425.467.323.123 2.615-1.29 5.46l-.166.724c1.232.213 1.536.433 1.548.608.021.379-1.327.861-2.579.896-1.566.04-3.233-.627-3.199-1.123.012-.2.308-.448 1.444-.692l.533-.74c-.161-.194-1.128-1.239-1-2.223l-.003.005z"/><linearGradient id="AK" gradientUnits="userSpaceOnUse" x1="-44.577" y1="-14.163" x2="-44.577" y2="-12.976"><stop offset="0" stop-color="#ffc444"/><stop offset="1" stop-color="#f39e56"/></linearGradient><path fill="url(#AK)" d="M-44.469-14.11c.355-.209.627.242.461.637s-.73.641-1.071.406.135-.76.61-1.039v-.004z"/><linearGradient id="AL" gradientUnits="userSpaceOnUse" x1="-657.478" y1="-13.59" x2="-658.237" y2="-14.156" gradientTransform="matrix(58.4741 0 0 30 38449.4297 412.0938)"><stop offset="0" stop-color="#622e04"/><stop offset="1" stop-color="#b3611f"/></linearGradient><path fill="url(#AL)" d="M1.616-14.116c-4.681-5.011-15.571-3.636-21.61.389-2.807 1.871-4.248 4.078-7.563 4.262-2.522.141-6.533-.795-8.646-3.488-.265-.339-1.329-1.763-2.929-3.559-.704-.79-1.406-1.534-2.491-1.702-.275-.042-1.195-.189-1.802.396-.49.474-.611 1.297-.468 1.891.088.355.199.392.184.624-.046.652-1.252.938-1.184 1.267.048.236.676.15.784.444.118.322-.571.602-.866 1.415-.557.366-.905 1.278-1.026 2.497-.179 1.793.004 3.25.348 4.349 1.659 5.284 2.845 9.063 5.718 11.175 3.803 2.793 7.226.215 16.896-.195 13.24-.559 16.542 3.869 21.302.84 5.942-3.783 8.21-15.404 3.353-20.605h0z"/><linearGradient id="AM" gradientUnits="userSpaceOnUse" x1="-659.214" y1="-15.788" x2="-658.377" y2="-14.876" gradientTransform="matrix(27 0 0 33 17725.6875 494.0625)"><stop offset="0" stop-color="#e38ddd"/><stop offset="1" stop-color="#9571f6"/></linearGradient><path fill="url(#AM)" d="M-67.734-24.925c-.117 1.12-.512 6.077 2.835 10.262 3.129 3.91 7.56 4.691 8.384 4.818 3.982.613 5.701-1.139 7.094.055 2.36 2.028 1.106 10.243-3.169 12.456-4.821 2.495-11.816-3.498-14.888-7.649-4.025-5.445-4.022-11.423-4-12.658.062-3.207.865-5.76 1.502-7.35a3.45 3.45 0 0 1 1.15-.153 3.61 3.61 0 0 1 1.092.216v.003z"/><path opacity=".2" fill="#9571f6" d="M-26.354 38.629c-1.172-1.2.117-3.624-1.612-5.426-1.604-1.673-3.422-.321-6.008-1.76-3.314-1.847-2.402-5.226-5.568-7.041-2.277-1.308-3.347.1-6.888-.587-3.533-.686-7.84-3.122-9.965-7.479-.902-1.853-1.234-3.692-1.279-5.337-1.589 2.844-3.239 5.566-3.456 10.162a21.89 21.89 0 0 0 .729 6.663c1.181 1.469 3.109 3.544 5.96 5.28 4.146 2.523 6.552 2.082 12.503 3.716 9.737 2.668 10.605 5.844 15.437 5.034 3.119-.523 5.987-2.391 7.52-4.26-4.5 2.006-6.523 1.906-7.374 1.033l.001.002h0z"/></g><defs><path id="AO" d="M145.171 37.587L19.218 35.682C8.971 35.528.255 44.537-.121 55.81h0c-.375 11.273 7.744 20.299 17.999 20.167l126.072-1.651c8.41-.11 15.418-8.326 15.752-18.354h0c.333-10.027-6.128-18.257-14.531-18.383v-.002h0z"/><path id="AP" d="M115.163 81.543l-68.35 1.646c-5.412.13-9.999 5.055-10.195 10.998h0c-.197 5.942 4.074 10.563 9.487 10.323l68.397-3.034c4.688-.208 8.6-4.799 8.781-10.255h0c.18-5.459-3.435-9.79-8.12-9.678h0 0z"/></defs></svg>