<svg xmlns="http://www.w3.org/2000/svg" width="1400" height="1260" viewBox="0 0 1400 1260" fill="none"><path opacity="0.0526316" d="M506.7 1652.7C582.995 1664.42 761.176 1634.66 863.531 1421.92C991.474 1155.99 881.507 889.975 961.757 617.897C1020.99 417.082 1264.88 -35.8073 1585.29 -111.858" stroke="#EDEDED" stroke-width="3"></path><path opacity="0.105263" d="M383.571 1592.16C458.225 1611.79 638.539 1600.82 762.571 1399.94C917.612 1148.84 836.052 872.79 944.302 610.591C1024.2 417.068 1314.09 -7.84758 1640.7 -49.9893" stroke="#EDEDED" stroke-width="3"></path><path opacity="0.157895" d="M267.226 1522.56C339.419 1549.88 519.893 1557.82 664.243 1371C844.681 1137.48 792.424 854.423 927.488 604.975C1027.18 420.864 1359.9 28.5781 1689.12 20.8072" stroke="#EDEDED" stroke-width="3"></path><path opacity="0.210526" d="M158.57 1444.64C227.512 1479.36 406.167 1506.12 569.254 1335.42C773.113 1122.04 750.73 835.065 911.129 601.102C1029.52 428.42 1401.42 73.0621 1729.65 99.7471" stroke="#EDEDED" stroke-width="3"></path><path opacity="0.263158" d="M58.4329 1359.27C123.368 1401 298.247 1446.29 478.284 1293.57C703.33 1102.67 711.067 814.929 895.043 599.013C1030.83 439.652 1437.84 125.115 1761.49 185.964" stroke="#EDEDED" stroke-width="3"></path><path opacity="0.315789" d="M-32.4531 1267.37C27.7639 1315.66 196.951 1378.98 391.966 1245.92C635.733 1079.59 673.504 794.23 879.042 598.728C1030.74 454.433 1468.4 184.164 1783.92 278.509" stroke="#EDEDED" stroke-width="3"></path><path opacity="0.368421" d="M-113.459 1169.94C-58.6195 1224.27 103.023 1304.92 310.878 1192.97C570.696 1053.03 638.088 773.188 862.935 600.242C1028.89 472.595 1492.4 249.554 1796.32 376.363" stroke="#EDEDED" stroke-width="3"></path><path opacity="0.421053" d="M-184.058 1068.06C-135.197 1127.81 17.1284 1224.93 235.547 1135.31C508.57 1023.3 604.844 752.033 846.537 603.537C1024.93 493.936 1509.21 320.567 1798.22 478.45" stroke="#EDEDED" stroke-width="3"></path><path opacity="0.473684" d="M-243.842 962.82C-201.495 1027.36 -60.1553 1139.86 166.433 1073.57C449.669 990.709 573.772 730.991 829.663 608.572C1018.53 518.218 1518.29 396.421 1789.2 583.648" stroke="#EDEDED" stroke-width="3"></path><path opacity="0.526316" d="M-292.521 855.384C-257.153 923.994 -128.346 1050.65 103.93 1008.41C394.276 955.611 544.846 710.288 812.132 615.288C1009.41 545.171 1519.16 476.279 1769.02 690.799" stroke="#EDEDED" stroke-width="3"></path><path opacity="0.578947" d="M-329.926 746.917C-301.923 818.849 -187.062 958.279 48.3572 940.548C342.632 918.386 518.021 690.145 793.772 623.605C997.298 574.493 1511.46 559.262 1737.53 798.724" stroke="#EDEDED" stroke-width="3"></path><path opacity="0.631579" d="M-356.009 638.61C-335.678 713.075 -236.021 863.747 -0.037791 870.722C294.941 879.441 493.227 670.784 774.423 633.431C981.967 605.863 1494.9 644.46 1694.7 906.241" stroke="#EDEDED" stroke-width="3"></path><path opacity="0.684211" d="M-370.85 531.641C-358.414 607.823 -275.052 768.087 -41.0911 799.69C251.36 839.195 470.371 652.408 753.931 644.653C963.22 638.93 1469.31 730.931 1640.65 1012.16" stroke="#EDEDED" stroke-width="3"></path><path opacity="0.736842" d="M-374.652 427.178C-370.248 504.242 -304.095 672.342 -74.7186 728.228C212.002 798.086 449.337 635.214 732.154 657.142C940.895 673.327 1434.6 817.725 1575.6 1115.33" stroke="#EDEDED" stroke-width="3"></path><path opacity="0.789474" d="M-367.734 326.364C-371.409 403.466 -323.19 577.56 -100.912 657.116C176.935 756.562 429.995 619.391 708.971 670.761C914.877 708.676 1390.78 903.889 1499.91 1214.6" stroke="#EDEDED" stroke-width="3"></path><path opacity="0.842105" d="M-350.54 230.295C-362.254 306.591 -332.496 484.771 -119.752 587.126C146.179 715.07 412.19 605.102 684.269 685.352C885.083 744.583 1337.97 988.472 1414.02 1308.89" stroke="#EDEDED" stroke-width="3"></path><path opacity="0.894737" d="M-323.619 140.022C-343.244 214.676 -332.274 394.991 -131.394 519.023C119.706 674.063 395.755 592.503 657.954 700.754C851.477 780.65 1276.39 1070.54 1318.53 1397.15" stroke="#EDEDED" stroke-width="3"></path><path opacity="0.947368" d="M-287.631 56.5309C-314.952 128.724 -322.89 309.198 -136.076 453.548C97.4426 633.986 380.505 581.728 629.953 716.793C814.064 816.481 1206.35 1149.2 1214.12 1478.43" stroke="#EDEDED" stroke-width="3"></path><path d="M-243.335 -19.2694C-278.053 49.6724 -304.812 228.328 -134.11 391.415C79.2681 595.273 366.242 572.89 600.205 733.289C772.888 851.676 1128.25 1223.58 1101.56 1551.81" stroke="#EDEDED" stroke-width="3"></path></svg>